<svg xmlns="http://www.w3.org/2000/svg" xmlns:xlink="http://www.w3.org/1999/xlink" width="236.483" height="172.978" viewBox="0 0 236.483 172.978"><defs><clipPath id="a"><rect width="224.348" height="158.985" transform="translate(-810.385 5865.845)" fill="none"/></clipPath><clipPath id="b"><path d="M-629.885,6007.917l-34.069-7.31s-6.96-1.055-11.02,6.144-4.947,11.164-4.947,11.164,3.327,2.029,6.962,8.088c3.025,5.045,10.406,14.929,17.007,12.272s8.889-13.361,12.306-19.817C-638.421,6008.582-630.86,6007.768-629.885,6007.917Z" fill="none"/></clipPath><clipPath id="c"><path d="M-615.986,5989.063c.566-1.962,2.169-7.648,3.771-14.462,1.476-6.28,2.729-12.207,3.139-14.159l26.87,5.254c-.31,1.776-1.272,6.994-3.035,14.1-2.206,8.892-3.449,13.1-3.89,14.52Zm4.109-14.384c-1.5,6.394-3,11.776-3.671,14.116l26.177,5.118c.5-1.64,1.72-5.846,3.794-14.2,1.647-6.642,2.591-11.621,2.97-13.743l-26.2-5.122C-609.315,5963.268-610.5,5968.812-611.877,5974.679Z" fill="none"/></clipPath></defs><g transform="translate(810.385 -5865.845)"><g clip-path="url(#a)"><path d="M-714.47,5925.678l7.836-4.26,2.074-10.06,7.708-.312,1.864,9.64,7.2,5.127-12.779,4.894-13.9-5.03Z" fill="#fff"/><path d="M-700.571,5931.051a.331.331,0,0,1-.116-.021l-13.9-5.03a.342.342,0,0,1-.225-.3.343.343,0,0,1,.178-.326l7.7-4.184,2.042-9.9a.343.343,0,0,1,.322-.273l7.709-.311a.357.357,0,0,1,.349.277l1.838,9.5,7.084,5.048a.342.342,0,0,1,.141.322.343.343,0,0,1-.217.278l-12.78,4.894A.33.33,0,0,1-700.571,5931.051Zm-13.066-5.435,13.063,4.728,12.064-4.62-6.676-4.757a.346.346,0,0,1-.137-.214l-1.808-9.351-7.147.289-2.02,9.8a.34.34,0,0,1-.171.232Z" fill="#091135"/><path d="M-727.878,5930.846c-8.242.029-56.43,24.038-37.721,46.775,9.145,11.113,53.51-25.825,53.51-25.825l11.165-9.753-26.954-11.2Z" fill="#fff" fill-rule="evenodd"/><path d="M-760.381,5980.053q-.525,0-1.02-.046a6.288,6.288,0,0,1-4.462-2.163c-4.815-5.853-5.65-12.237-2.482-18.977,4.275-9.094,14.815-16.469,20.718-20.056,8.529-5.183,16.739-8.291,19.749-8.3a.42.42,0,0,1,.132.026l26.954,11.2a.341.341,0,0,1,.207.261.338.338,0,0,1-.113.313l-11.165,9.753C-713.273,5953.228-745.659,5980.053-760.381,5980.053Zm32.437-48.859c-2.913.058-11.076,3.187-19.327,8.2-5.837,3.547-16.256,10.831-20.454,19.763-3.046,6.48-2.241,12.621,2.391,18.251a5.637,5.637,0,0,0,4,1.917c.31.028.629.043.958.043,14.472,0,47.729-27.546,48.071-27.831l10.745-9.386Z" fill="#091135"/><path d="M-664.084,5949.714s9.538,9.8,14.391,30.271c4.052,17.09.743,35.947-4.762,45.964s-15.32,8.815-15.32,8.815l-4.2-82.012,9.895-3.038Z" fill="#fff" fill-rule="evenodd"/><path d="M-668.857,6035.145a9.411,9.411,0,0,1-.96-.041.344.344,0,0,1-.3-.323l-4.2-82.012a.343.343,0,0,1,.242-.345l9.9-3.039a.344.344,0,0,1,.346.089c.1.1,9.66,10.1,14.479,30.43,4.076,17.192.673,36.259-4.8,46.208A16.6,16.6,0,0,1-668.857,6035.145Zm-.591-.7a15.888,15.888,0,0,0,14.693-8.663c5.405-9.833,8.766-28.7,4.73-45.72-4.452-18.782-12.965-28.643-14.163-29.959l-9.435,2.9Z" fill="#091135"/><path d="M-727.965,5983.7s-6.246,38.92-9.374,63.67c-5.375,42.562-6.444,106.724-6.444,106.724l37.926,1.312,6.791-126.659,6.54,126.571,39.771-1.9s-2.141-62.447-7.34-106.977c-3.664-31.381-16.958-77.539-16.958-77.539" fill="#fff" fill-rule="evenodd"/><path d="M-705.857,6155.746h-.012l-37.926-1.312a.341.341,0,0,1-.33-.348c.011-.642,1.13-64.667,6.447-106.76,3.092-24.474,9.313-63.293,9.375-63.683a.345.345,0,0,1,.392-.284.344.344,0,0,1,.285.392h0c-.062.389-6.281,39.2-9.372,63.66-5.112,40.475-6.34,101.264-6.435,106.35l37.253,1.289,6.773-126.323a.343.343,0,0,1,.342-.324h0a.343.343,0,0,1,.342.324l6.522,126.23,39.093-1.87c-.181-5.022-2.386-64.287-7.327-106.611-3.619-30.994-16.814-77.023-16.948-77.484a.344.344,0,0,1,.234-.424.345.345,0,0,1,.424.234c.133.462,13.345,46.545,16.97,77.594,5.14,44.034,7.322,106.38,7.343,107a.342.342,0,0,1-.326.354l-39.772,1.9a.351.351,0,0,1-.358-.324l-6.2-120.077-6.443,120.165A.342.342,0,0,1-705.857,6155.746Z" fill="#091135"/><path d="M-709.712,5906.013c1.454-.336,3,.95,3.442,2.873s-.373,3.757-1.828,4.094-3-.95-3.443-2.873S-711.168,5906.35-709.712,5906.013Z" fill="#fff" fill-rule="evenodd"/><path d="M-708.573,5913.377a2.882,2.882,0,0,1-1.844-.723,4.549,4.549,0,0,1-1.457-2.47,4.539,4.539,0,0,1,.222-2.857,2.749,2.749,0,0,1,1.862-1.647h0c1.638-.377,3.366,1.026,3.854,3.13a4.537,4.537,0,0,1-.222,2.859,2.741,2.741,0,0,1-1.862,1.646A2.449,2.449,0,0,1-708.573,5913.377Zm-1.063-7.03h0a2.079,2.079,0,0,0-1.392,1.258,3.864,3.864,0,0,0-.181,2.425,3.863,3.863,0,0,0,1.229,2.1,2.073,2.073,0,0,0,1.8.518,2.071,2.071,0,0,0,1.392-1.258,3.843,3.843,0,0,0,.18-2.425C-707.006,5907.227-708.365,5906.052-709.636,5906.347Z" fill="#091135"/><path d="M-692.631,5905.343c1.4.5,2,2.422,1.336,4.28s-2.351,2.955-3.755,2.451-2-2.424-1.336-4.281,2.351-2.956,3.755-2.449Z" fill="#fff" fill-rule="evenodd"/><path d="M-694.347,5912.538a2.428,2.428,0,0,1-.819-.142c-1.581-.57-2.273-2.687-1.542-4.719a4.55,4.55,0,0,1,1.736-2.281,2.736,2.736,0,0,1,2.457-.375h0a2.74,2.74,0,0,1,1.657,1.853,4.533,4.533,0,0,1-.114,2.865A3.9,3.9,0,0,1-694.347,5912.538Zm1-6.976a2.32,2.32,0,0,0-1.254.406,3.861,3.861,0,0,0-1.466,1.94c-.6,1.677-.1,3.4,1.13,3.844s2.714-.567,3.317-2.245a3.847,3.847,0,0,0,.1-2.429,2.071,2.071,0,0,0-1.234-1.413h0a1.743,1.743,0,0,0-.59-.1Z" fill="#091135"/><path d="M-701.141,5894.665c4.379,0,7.936,5.319,7.936,11.87s-3.556,11.87-7.936,11.87-7.936-5.319-7.936-11.87S-705.522,5894.665-701.141,5894.665Z" fill="#fff" fill-rule="evenodd"/><path d="M-701.14,5918.748c-4.565,0-8.279-5.479-8.279-12.212s3.714-12.212,8.279-12.212,8.277,5.479,8.277,12.212S-696.577,5918.748-701.14,5918.748Zm0-23.74c-4.187,0-7.594,5.171-7.594,11.527s3.406,11.527,7.594,11.527,7.593-5.171,7.593-11.527S-696.954,5895.008-701.14,5895.008Z" fill="#091135"/><path d="M-691.163,5902.981c-1.872,2-5.342,1.807-7.744-.436s-2.833-5.691-.962-7.695,5.341-1.808,7.743.435,2.833,5.691.962,7.695Z" fill="#091135" fill-rule="evenodd"/><path d="M-699.584,5898.379c-2-1.037-2.609-3.825-1.365-6.22s3.875-3.5,5.872-2.459,2.609,3.825,1.365,6.219-3.875,3.5-5.873,2.46Z" fill="#091135" fill-rule="evenodd"/><path d="M-704.584,5897.379c-2-1.037-2.609-3.825-1.365-6.22s3.875-3.5,5.872-2.459,2.609,3.825,1.365,6.219-3.875,3.5-5.873,2.46Z" fill="#091135" fill-rule="evenodd"/><path d="M-701.163,5899.981c-1.872,2-5.342,1.807-7.744-.436s-2.833-5.691-.962-7.695,5.341-1.808,7.743.435,2.833,5.691.962,7.695Z" fill="#091135" fill-rule="evenodd"/><path d="M-704.122,5895.02c2.252,1.563,2.559,5.025.686,7.726s-5.223,3.624-7.476,2.062-2.559-5.025-.686-7.725,5.223-3.624,7.476-2.062Z" fill="#091135" fill-rule="evenodd"/><path d="M-699.122,5895.02c2.252,1.563,2.559,5.025.686,7.726s-5.223,3.624-7.476,2.062-2.559-5.025-.686-7.725,5.223-3.624,7.476-2.062Z" fill="#091135" fill-rule="evenodd"/><path d="M-696.543,5894.968c.345,2.142-.487,4.062-1.86,4.284s-2.769-1.337-3.115-3.48.488-4.062,1.86-4.282S-696.889,5892.826-696.543,5894.968Z" fill="#091135" fill-rule="evenodd"/><path d="M-712.1,5923.149c.178-.078.354-.151.529-.217.627,2.7,5.264,4.8,10.886,4.8,5.36,0,9.826-1.911,10.773-4.432.079.031,17.252-1.792,33.176,33.985l-16.726,1.864a188.567,188.567,0,0,1,6.094,35.071l-66.543-.174a149.479,149.479,0,0,1,5.958-36.991l-20.975-18.961c19.6-13.2,36.891-15.065,36.891-15.065l-.063.118Z" fill="#fff" fill-rule="evenodd"/><path d="M-667.365,5994.566h0l-66.543-.175a.346.346,0,0,1-.243-.1.348.348,0,0,1-.1-.244,151.264,151.264,0,0,1,5.91-36.879l-20.816-18.816a.342.342,0,0,1-.112-.278.346.346,0,0,1,.15-.26c19.446-13.1,36.872-15.1,37.046-15.122a.315.315,0,0,1,.143.015c.08-.033.16-.064.24-.094a.339.339,0,0,1,.281.019.337.337,0,0,1,.172.224c.59,2.545,5.225,4.538,10.553,4.538,5.058,0,9.551-1.81,10.452-4.21a.343.343,0,0,1,.18-.191.415.415,0,0,1,.151-.031c1.223-.048,5.542.1,11.389,4.013,8.183,5.477,15.615,15.628,22.088,30.175a.343.343,0,0,1-.015.31.339.339,0,0,1-.259.17l-16.325,1.819a190.894,190.894,0,0,1,6,34.755.337.337,0,0,1-.093.256A.344.344,0,0,1-667.365,5994.566Zm-66.193-.859,65.826.173a190.537,190.537,0,0,0-6.056-34.635.345.345,0,0,1,.046-.284.343.343,0,0,1,.245-.149l16.26-1.812c-14.489-32.261-30.019-33.4-32.439-33.36-1.174,2.585-5.734,4.438-11,4.438-5.473,0-10.121-1.991-11.108-4.69l-.172.074a.339.339,0,0,1-.355-.05c-2.428.334-18.344,2.907-36.054,14.725l20.651,18.667a.344.344,0,0,1,.1.354A150.941,150.941,0,0,0-733.558,5993.707Z" fill="#091135"/><path d="M-703.79,5909.182c-.009.907-.355,1.639-.772,1.635s-.749-.743-.739-1.649.354-1.639.771-1.635S-703.781,5908.276-703.79,5909.182Z" fill="#091135" fill-rule="evenodd"/><path d="M-697.362,5909.066c-.01.906-.355,1.639-.772,1.635s-.749-.743-.741-1.65.355-1.639.772-1.635S-697.354,5908.159-697.362,5909.066Z" fill="#091135" fill-rule="evenodd"/><path d="M-704.488,5880.553a24.8,24.8,0,0,1,6.212.8,24.562,24.562,0,0,1,15.113,11.39,24.566,24.566,0,0,1,2.634,18.74,24.716,24.716,0,0,1-23.917,18.541,24.82,24.82,0,0,1-6.214-.8,24.562,24.562,0,0,1-15.113-11.39,24.557,24.557,0,0,1-2.632-18.74,24.715,24.715,0,0,1,23.917-18.541h0m0-5.325a30.065,30.065,0,0,0-29.073,22.532,30.05,30.05,0,0,0,21.566,36.62h0a30.06,30.06,0,0,0,7.547.965,30.065,30.065,0,0,0,29.072-22.532,30.052,30.052,0,0,0-21.567-36.62h0a30.138,30.138,0,0,0-7.547-.965Z" fill="#4848ff"/><path d="M-715.612,5930.817l-10.594,40.952,8.507,2.2,10.594-40.952Z" fill="#4848ff"/><path d="M-752.021,5955.276s20.967.366,25-.3c4.435-.73,14.962-8.094,17.306-2.281,1.051,2.607-.32,7.866-3.081,9.959-3.5,2.657-13.294,2.27-13.294,2.27s-20.408,17.353-35.456,14.7" fill="#fff" fill-rule="evenodd"/><path d="M-758.229,5980.249a19.392,19.392,0,0,1-3.378-.285l.119-.675c14.717,2.6,34.972-14.45,35.174-14.623a.351.351,0,0,1,.236-.081c.1,0,9.709.351,13.073-2.2,2.692-2.042,3.955-7.116,2.97-9.559a2.915,2.915,0,0,0-1.627-1.722c-2.393-.985-6.49.777-10.106,2.333a26.8,26.8,0,0,1-5.2,1.88c-4.017.66-24.2.316-25.061.3l.012-.684c.209,0,20.981.358,24.938-.292a26.581,26.581,0,0,0,5.041-1.834c3.739-1.609,7.977-3.433,10.637-2.337a3.618,3.618,0,0,1,2,2.1c1.081,2.681-.205,8.1-3.191,10.361-3.376,2.561-12.14,2.382-13.381,2.344C-727.59,5966.635-744.159,5980.248-758.229,5980.249Z" fill="#091135"/></g><path d="M-778.45,6025.423a.343.343,0,0,1-.342-.342.344.344,0,0,1,.342-.344h0c68.616-.132,113.656-.084,157.213-.04,14.725.016,29.456.031,45.088.04a.343.343,0,0,1,.342.343.341.341,0,0,1-.341.342h0c-15.632-.009-30.363-.024-45.088-.04-43.556-.045-88.6-.093-157.21.04Z" fill="#091135"/><path d="M-633.965,6010.008c15.409-3.063,20.037,27.263,35.951,13.68,16.487-14.074,23.764-89.717,23.764-89.717l-33.609-6.565s-2.7,24.132-6.134,38.859c-12.806,54.9-18.621,46.509-22.211,50.4" fill="#fff" fill-rule="evenodd"/><path d="M-605.789,6027.525c-4.824,0-8.6-4.213-12.3-8.333-3.107-3.462-6.287-7.006-10.164-8.42-2.3,3.452-4.119,4.222-5.636,4.863a5.4,5.4,0,0,0-2.061,1.265l-.5-.465a6.006,6.006,0,0,1,2.3-1.432c1.342-.567,3.03-1.281,5.19-4.466a10.249,10.249,0,0,0-4.931-.2l-.133-.671a10.954,10.954,0,0,1,5.463.259c3.438-5.415,8.029-17.109,14.242-43.743,3.391-14.537,6.1-38.577,6.127-38.818a.346.346,0,0,1,.138-.238.345.345,0,0,1,.268-.06l33.608,6.565a.342.342,0,0,1,.275.369c-.018.189-1.865,19.162-5.7,39.61-5.164,27.51-11.28,44.444-18.178,50.333C-600.787,6026.5-603.414,6027.525-605.789,6027.525Zm-22.079-17.353c3.944,1.5,7.152,5.07,10.287,8.563,5.541,6.174,10.776,12.007,19.344,4.692,15.663-13.371,23.078-83.88,23.614-89.18l-32.938-6.434c-.357,3.1-2.93,24.943-6.1,38.528-6.164,26.431-10.717,38.248-14.207,43.832Z" fill="#091135"/><path d="M-701.43,6026.008s6.237-12.63,15.436-11.021c8.2,1.433,9.939,5.671,13.316,9.609,2.743,3.2,9.021,12.513,13.357,13.949l-33.571-7.268a23.513,23.513,0,0,1-5.1-2.119,16.921,16.921,0,0,1-3.437-3.15Z" fill="#4848ff" fill-rule="evenodd"/><path d="M-701.43,6026.008s6.237-12.63,15.436-11.021c8.2,1.433,9.939,5.671,13.316,9.609,2.743,3.2,9.021,12.513,13.357,13.949l-33.571-7.268a23.513,23.513,0,0,1-5.1-2.119,16.921,16.921,0,0,1-3.437-3.15Zm38.523,11.061a31.728,31.728,0,0,1-2.706-2.671c-3.012-3.3-5.936-7.432-7.586-9.354-3.281-3.828-4.945-7.987-12.913-9.382-3.462-.6-6.468.963-8.84,3.027a27.6,27.6,0,0,0-5.656,7.228,15.445,15.445,0,0,0,2.987,2.665,22.3,22.3,0,0,0,4.9,2.032l29.818,6.456Z" fill="#091135" fill-rule="evenodd"/><path d="M-686.729,6014.951c.188-.4-33.631-7.4-33.631-7.4s-3-.568-8.116,3.352c-5.175,3.964-6.164,8.131-11.923,14.312.436.6,1.764,10.694,19.813,13.479,8.593,1.325,17.04-7.773,22.478-15.995a17.214,17.214,0,0,1,11.379-7.744Z" fill="#fff" fill-rule="evenodd"/><path d="M-720.36,6007.548s-3-.567-8.116,3.353c-5.175,3.964-6.164,8.131-11.923,14.312.436.6,1.764,10.694,19.813,13.479,8.593,1.325,17.04-7.773,22.478-16a17.22,17.22,0,0,1,11.379-7.744C-686.541,6014.554-720.36,6007.548-720.36,6007.548Zm21.68,14.77c-3.214,4.857-7.485,10.032-12.221,13.107-3.057,1.985-6.3,3.093-9.581,2.588-15.754-2.431-18.419-10.533-19.093-12.568l-.029-.083a66.406,66.406,0,0,0,5.948-7.744,25.4,25.4,0,0,1,5.6-6.174c4.794-3.672,7.571-3.222,7.571-3.222s23.517,4.872,31.192,6.715a17.642,17.642,0,0,0-9.386,7.38Z" fill="#091135" fill-rule="evenodd"/><path d="M-779.33,6004.438l33.622,7.529s6.829,24.414,25.077,26.674l-35.456-7.649s-8.066-1.623-15.3-10.972-7.942-15.582-7.942-15.582Z" fill="#4848ff" fill-rule="evenodd"/><path d="M-724.365,6037.835l-31.723-6.844s-8.066-1.623-15.3-10.972-7.942-15.582-7.942-15.582l33.622,7.529s5.888,21.052,21.344,25.869l3.734.805a21.22,21.22,0,0,1-3.734-.805Zm-54.089-32.5c.5,2.065,2.2,7.269,7.608,14.262,7.05,9.112,14.892,10.718,14.892,10.718h.01l25.81,5.569a31.447,31.447,0,0,1-7.748-7.19,53.706,53.706,0,0,1-8.369-16.151l-32.2-7.21Z" fill="#091135" fill-rule="evenodd"/><path d="M-607.192,6027.5l-32.972-7.641s-3.542-1.246-4.391-2.332c0,0,4.641-9.177,11.413-9.722s11.459,3.576,16.807,11.14,9.143,8.555,9.143,8.555Z" fill="#4848ff" fill-rule="evenodd"/><path d="M-607.192,6027.5l-32.972-7.641s-3.542-1.246-4.391-2.332c0,0,4.641-9.177,11.413-9.722s11.459,3.576,16.807,11.14,9.143,8.555,9.143,8.555Zm-3.88-1.6a34.148,34.148,0,0,1-5.824-6.555c-5.167-7.312-9.644-11.38-16.189-10.852a10.862,10.862,0,0,0-6.517,3.462,25.558,25.558,0,0,0-4.1,5.448,6.306,6.306,0,0,0,.807.51,22.571,22.571,0,0,0,2.928,1.292l28.9,6.7Z" fill="#091135" fill-rule="evenodd"/><path d="M-629.885,6007.917l-34.069-7.31s-6.96-1.055-11.02,6.144-4.947,11.164-4.947,11.164,3.327,2.029,6.962,8.088c3.025,5.045,10.406,14.929,17.007,12.272s8.889-13.361,12.306-19.817C-638.421,6008.582-630.86,6007.768-629.885,6007.917Z" fill="#fff" fill-rule="evenodd"/><g clip-path="url(#b)"><g opacity="0.15"><path d="M-645.887,6013.184a1.655,1.655,0,0,0-1.2-2l-14.566-3.636a1.654,1.654,0,0,0-2,1.2,1.656,1.656,0,0,0,1.2,2.006l14.565,3.636a1.656,1.656,0,0,0,2.007-1.206Z" fill="#4848ff" fill-rule="evenodd"/></g><g opacity="0.15"><path d="M-652.776,6016.219a1.654,1.654,0,0,0-1.2-2.006l-9.375-2.34a1.655,1.655,0,0,0-2.007,1.2,1.655,1.655,0,0,0,1.2,2.006l9.376,2.341a1.654,1.654,0,0,0,2.005-1.2Z" fill="#4848ff" fill-rule="evenodd"/></g><path d="M-666.723,6004.947c1.557.734,1.941,3.2.857,5.5s-3.227,3.57-4.784,2.836-1.942-3.2-.859-5.494,3.227-3.571,4.785-2.837Z" fill="#4848ff" fill-rule="evenodd"/><g opacity="0.15"><path d="M-651.783,6024.957a1.656,1.656,0,0,0-1.2-2.007l-14.564-3.634a1.655,1.655,0,0,0-2.007,1.2,1.656,1.656,0,0,0,1.206,2l14.565,3.636a1.657,1.657,0,0,0,2.005-1.2Z" fill="#4848ff" fill-rule="evenodd"/></g><g opacity="0.15"><path d="M-658.671,6027.992a1.655,1.655,0,0,0-1.2-2.005l-9.376-2.341a1.656,1.656,0,0,0-2.005,1.205,1.654,1.654,0,0,0,1.2,2.006l9.375,2.341a1.657,1.657,0,0,0,2.007-1.206Z" fill="#4848ff" fill-rule="evenodd"/></g><path d="M-672.62,6016.72c1.557.734,1.942,3.2.859,5.5s-3.227,3.57-4.784,2.836-1.942-3.2-.859-5.5S-674.176,6015.986-672.62,6016.72Z" fill="#4848ff" fill-rule="evenodd"/></g><path d="M-663.954,6000.607s-6.96-1.055-11.02,6.144-4.947,11.164-4.947,11.164,3.327,2.029,6.962,8.088c3.025,5.045,10.406,14.929,17.007,12.272s8.889-13.361,12.306-19.817c5.225-9.876,12.786-10.69,13.761-10.541Zm19.7,17.529c-2.048,3.87-3.687,9.266-6.1,13.537-1.527,2.7-3.354,4.957-5.859,5.965-2.427.977-4.957.051-7.312-1.639-3.765-2.7-7.073-7.382-8.853-10.349a27.424,27.424,0,0,0-6.763-8.026,51.718,51.718,0,0,1,4.758-10.537,10.63,10.63,0,0,1,10.306-5.8l30.749,6.6c-3.065,1.067-7.494,3.767-10.925,10.249Z" fill="#091135" fill-rule="evenodd"/><g opacity="0.15"><path d="M-578.653,5945.215a1.656,1.656,0,0,0-1.307-1.941l-24.748-4.829a1.656,1.656,0,0,0-1.941,1.308,1.654,1.654,0,0,0,1.3,1.941h0l24.748,4.828A1.655,1.655,0,0,0-578.653,5945.215Z" fill="#4848ff" fill-rule="evenodd"/></g><g opacity="0.15"><path d="M-591.9,6004.138a1.654,1.654,0,0,0-1.306-1.941h0l-24.748-4.828a1.655,1.655,0,0,0-1.941,1.307,1.657,1.657,0,0,0,1.307,1.941l24.748,4.828A1.656,1.656,0,0,0-591.9,6004.138Z" fill="#4848ff" fill-rule="evenodd"/></g><g opacity="0.15"><path d="M-699.661,6019.852a1.655,1.655,0,0,0-1.237-1.986l-24.559-5.716a1.655,1.655,0,0,0-1.985,1.236,1.655,1.655,0,0,0,1.237,1.988l24.558,5.716a1.656,1.656,0,0,0,1.987-1.237Z" fill="#4848ff" fill-rule="evenodd"/></g><g opacity="0.15"><path d="M-579.43,5951.142a1.657,1.657,0,0,0-1.307-1.941l-24.75-4.827a1.657,1.657,0,0,0-1.941,1.307,1.658,1.658,0,0,0,1.309,1.941l24.749,4.827a1.655,1.655,0,0,0,1.94-1.307Z" fill="#4848ff" fill-rule="evenodd"/></g><g opacity="0.15"><path d="M-593.9,6009.71a1.655,1.655,0,0,0-1.308-1.941l-24.748-4.828a1.659,1.659,0,0,0-1.941,1.307,1.656,1.656,0,0,0,1.307,1.941l24.75,4.828a1.656,1.656,0,0,0,1.941-1.307Z" fill="#4848ff" fill-rule="evenodd"/></g><g opacity="0.15"><path d="M-703.817,6024.545a1.656,1.656,0,0,0-1.236-1.986l-24.559-5.715a1.656,1.656,0,0,0-1.986,1.236,1.654,1.654,0,0,0,1.234,1.986h0l24.559,5.717a1.658,1.658,0,0,0,1.986-1.237Z" fill="#4848ff" fill-rule="evenodd"/></g><g opacity="0.15"><path d="M-591.374,5955.161a1.657,1.657,0,0,0-1.307-1.941l-13.6-2.653a1.657,1.657,0,0,0-1.941,1.307,1.656,1.656,0,0,0,1.309,1.941l13.6,2.653a1.655,1.655,0,0,0,1.94-1.307Z" fill="#4848ff" fill-rule="evenodd"/></g><g opacity="0.15"><path d="M-607.1,6013.069a1.655,1.655,0,0,0-1.307-1.941l-13.6-2.653a1.657,1.657,0,0,0-1.941,1.307,1.656,1.656,0,0,0,1.307,1.941l13.6,2.653a1.654,1.654,0,0,0,1.941-1.3Z" fill="#4848ff" fill-rule="evenodd"/></g><g opacity="0.15"><path d="M-718.7,6027.174a1.654,1.654,0,0,0-1.236-1.987l-13.5-3.142a1.654,1.654,0,0,0-1.985,1.238,1.654,1.654,0,0,0,1.237,1.986l13.5,3.141a1.656,1.656,0,0,0,1.986-1.236Z" fill="#4848ff" fill-rule="evenodd"/></g><path d="M-581.764,5965.363l-27.845-5.446s-1.453,7.053-3.234,14.623c-1.959,8.341-3.922,14.964-3.922,14.964l27.848,5.444s1.235-3.665,4.037-14.957c2.173-8.761,3.116-14.628,3.116-14.628Z" fill="#fff" fill-rule="evenodd"/><path d="M-609.077,5960.442c-.408,1.952-1.663,7.88-3.139,14.159-1.6,6.814-3.205,12.5-3.771,14.462l26.854,5.25c.441-1.42,1.684-5.627,3.89-14.52,1.763-7.1,2.725-12.323,3.035-14.1l-26.87-5.254Z" fill="#fff" fill-rule="evenodd"/><path d="M-589.131,5994.66a.284.284,0,0,1-.067-.007l-26.854-5.25a.348.348,0,0,1-.229-.159.354.354,0,0,1-.037-.277c.6-2.1,2.183-7.709,3.767-14.446,1.445-6.149,2.675-11.943,3.137-14.15a.346.346,0,0,1,.406-.269l26.87,5.253a.346.346,0,0,1,.275.4c-.332,1.9-1.293,7.083-3.039,14.122-2.218,8.938-3.463,13.145-3.9,14.538A.345.345,0,0,1-589.131,5994.66Zm-26.417-5.865,26.177,5.118c.5-1.64,1.72-5.846,3.793-14.2,1.648-6.639,2.594-11.618,2.971-13.74l-26.2-5.122c-.508,2.419-1.692,7.964-3.07,13.831C-613.381,5981.074-614.879,5986.455-615.548,5988.795Z" fill="#091135"/><g clip-path="url(#c)"><g opacity="0.15"><path d="M-579.406,5967.82l-28.209-5.515s-1.471,7.143-3.274,14.813c-1.985,8.449-3.975,15.157-3.975,15.157l28.209,5.516s1.252-3.714,4.09-15.153c2.2-8.873,3.158-14.818,3.158-14.818Z" fill="#4848ff" fill-rule="evenodd"/></g></g></g></svg>