<svg xmlns="http://www.w3.org/2000/svg" xmlns:xlink="http://www.w3.org/1999/xlink" width="166.924" height="171.975" viewBox="0 0 166.924 171.975"><defs><clipPath id="a"><path d="M1216.455,4529.322a.236.236,0,0,1,.335,0l3.3,3.251a.238.238,0,0,1,0,.336l-1.782,1.81a.236.236,0,0,1-.335,0l-3.3-3.251a.237.237,0,0,1,0-.335l1.782-1.81Z" transform="translate(-1214.605 -4529.25)" fill="none" clip-rule="evenodd"/></clipPath><clipPath id="b"><path d="M1128.077,4451.734H961.153v90.15h166.924v-90.15Z" transform="translate(-961.153 -4451.734)" fill="none" clip-rule="evenodd"/></clipPath><clipPath id="d"><path d="M2.866,20.075,0,0H58.626L56.167,20.484Z" fill="none"/></clipPath><clipPath id="f"><path d="M1257.663,4375.783a.237.237,0,0,1-.33-.056l-2.683-3.779a.235.235,0,0,1,.056-.33l2.071-1.471a.236.236,0,0,1,.33.056l2.682,3.779a.236.236,0,0,1-.055.33l-2.071,1.47Z" transform="translate(-1254.606 -4370.104)" fill="none" clip-rule="evenodd"/></clipPath><clipPath id="g"><path d="M1088.885,4431.479a.238.238,0,0,1,.072-.327l3.906-2.494a.236.236,0,0,1,.327.071l1.367,2.141a.237.237,0,0,1-.072.327l-3.906,2.493a.236.236,0,0,1-.327-.071l-1.367-2.141Z" transform="translate(-1088.848 -4428.62)" fill="none" clip-rule="evenodd"/></clipPath></defs><g transform="translate(-961.153 -4198.021)"><g transform="translate(1027.787 4290.855)"><g transform="translate(0 0)"><path d="M1181.031,4487.081a1.629,1.629,0,0,1,2.3-.019l18.12,17.837a1.63,1.63,0,0,1,.018,2.3l-12.276,12.471a1.63,1.63,0,0,1-2.3.018l-18.12-17.838a1.63,1.63,0,0,1-.019-2.3l12.277-12.471Z" transform="translate(-1168.287 -4486.595)" fill="#091135" fill-rule="evenodd"/></g><g transform="translate(14.9 13.723)"><path d="M1216.455,4529.322a.236.236,0,0,1,.335,0l3.3,3.251a.238.238,0,0,1,0,.336l-1.782,1.81a.236.236,0,0,1-.335,0l-3.3-3.251a.237.237,0,0,1,0-.335l1.782-1.81Z" transform="translate(-1214.605 -4529.25)" fill="#fff" fill-rule="evenodd"/></g><g transform="translate(14.9 13.723)"><g clip-path="url(#a)"><g transform="translate(-0.202 0.367)" opacity="0.25"><path d="M1215.664,4530.457a.216.216,0,0,1,.305,0l3.342,3.29a.216.216,0,0,1,0,.306l-1.626,1.652a.217.217,0,0,1-.306,0l-3.342-3.292a.216.216,0,0,1,0-.305l1.626-1.652Z" transform="translate(-1213.976 -4530.393)" fill="#4848ff" fill-rule="evenodd"/></g></g></g><g transform="translate(16.771 2.501)"><path d="M1224.751,4495.491a3.762,3.762,0,0,1,5.317-.042l3.781,3.723a3.761,3.761,0,0,1,.042,5.317l-3.252,3.3a3.762,3.762,0,0,1-5.317.041l-3.782-3.722a3.763,3.763,0,0,1-.041-5.317l3.252-3.3Zm1.309,1.289a1.923,1.923,0,0,1,2.719-.021l3.781,3.723a1.923,1.923,0,0,1,.022,2.718l-3.253,3.3a1.923,1.923,0,0,1-2.718.021l-3.781-3.723a1.922,1.922,0,0,1-.021-2.718l3.252-3.3Z" transform="translate(-1220.419 -4494.37)" fill="#091135" fill-rule="evenodd"/></g></g><g transform="translate(961.153 4279.64)"><g transform="translate(0 0)" clip-path="url(#b)"><g transform="translate(109.261 20.055)"><path d="M1306.235,4514.978l5.885,9.181-9.827.037-.6-7.829,4.543-1.389Z" transform="translate(-1301.402 -4514.688)" fill="#fff" fill-rule="evenodd"/><path d="M1301.682,4523.874a.29.29,0,0,1-.289-.268l-.6-7.828a.289.289,0,0,1,.2-.3l4.543-1.39a.287.287,0,0,1,.328.121l5.885,9.181a.29.29,0,0,1-.243.446l-9.827.037Zm-.295-7.91.563,7.329,9.031-.034-5.482-8.552Z" transform="translate(-1300.791 -4514.076)" fill="#091135"/></g><g transform="translate(104.427 14.803)"><path d="M1287.1,4501.557a.288.288,0,0,1-.24-.128l-1.042-1.544a.289.289,0,0,1,.092-.411l2.841-1.685a.289.289,0,0,1,.4.389l-1.8,3.23a.29.29,0,0,1-.24.148Zm-.63-1.742.607.9,1.048-1.881Z" transform="translate(-1285.765 -4497.749)" fill="#091135"/></g><g transform="translate(104.922 12.059)"><path d="M1298.353,4491.147c-1.6-1.736-4.988-1.216-7.567,1.157s-3.377,5.709-1.781,7.445,4.987,1.217,7.567-1.157,3.379-5.709,1.781-7.445Z" transform="translate(-1287.9 -4489.831)" fill="#fff" fill-rule="evenodd"/><path d="M1291.009,4500.445a3.715,3.715,0,0,1-2.813-1.112c-1.7-1.852-.9-5.375,1.8-7.855a8.409,8.409,0,0,1,4.3-2.192,3.991,3.991,0,0,1,3.672,1.052h0a3.991,3.991,0,0,1,.745,3.746,8.4,8.4,0,0,1-2.542,4.108A7.948,7.948,0,0,1,1291.009,4500.445Zm4.151-10.647a5.042,5.042,0,0,0-.774.06,7.822,7.822,0,0,0-4,2.046c-2.459,2.263-3.25,5.42-1.764,7.037s4.7,1.09,7.158-1.174a7.819,7.819,0,0,0,2.371-3.817,3.436,3.436,0,0,0-.607-3.22h0A3.137,3.137,0,0,0,1295.16,4489.8Z" transform="translate(-1287.303 -4489.219)" fill="#091135"/></g><g transform="translate(107.12 5.574)"><path d="M1296.66,4470.027c-2.419,1.6-3.244,4.618-1.842,6.743s4.506,2.55,6.925.953,3.244-4.619,1.841-6.743-4.506-2.55-6.925-.953Z" transform="translate(-1294.135 -4469.06)" fill="#091135" fill-rule="evenodd"/></g><g transform="translate(107.561 15.707)"><path d="M1295.93,4500.937c-.356.333-.52.738-.366.9s.568.026.924-.31.52-.738.366-.9-.568-.025-.924.309Z" transform="translate(-1295.506 -4500.559)" fill="#091135" fill-rule="evenodd"/></g><g transform="translate(114.142 14.046)"><path d="M1321.625,4497.524c-.938-1.773-2.854-2.6-4.277-1.851s-1.812,2.8-.874,4.577,2.854,2.6,4.275,1.853,1.814-2.8.876-4.579Z" transform="translate(-1315.964 -4495.396)" fill="#091135" fill-rule="evenodd"/></g><g transform="translate(110.329 10.837)"><path d="M1310.961,4487.106a3.737,3.737,0,1,0-.954,5.249,3.774,3.774,0,0,0,.954-5.249Z" transform="translate(-1304.111 -4485.421)" fill="#091135" fill-rule="evenodd"/></g><g transform="translate(112.82 11.971)"><path d="M1317.529,4489.677c-.515-.922-2.169-.981-3.694-.13s-2.342,2.291-1.827,3.212,2.17.98,3.693.13,2.344-2.291,1.828-3.212Z" transform="translate(-1311.854 -4488.945)" fill="#091135" fill-rule="evenodd"/></g><g transform="translate(111.717 15.819)"><path d="M1312.057,4500.967a3.485,3.485,0,1,0,2,3.97,3.173,3.173,0,0,0-2-3.97Z" transform="translate(-1308.424 -4500.907)" fill="#091135" fill-rule="evenodd"/></g><g transform="translate(110.316 18.351)"><path d="M1308.771,4510.19a2.345,2.345,0,1,0-.426,2.928,2.115,2.115,0,0,0,.426-2.928Z" transform="translate(-1304.681 -4509.383)" fill="#fff" fill-rule="evenodd"/><path d="M1306.039,4513.5a1.909,1.909,0,0,1-1.944-2.275,2.862,2.862,0,0,1,.915-1.673,2.4,2.4,0,0,1,3.363-.164,1.981,1.981,0,0,1,.472,1.665,2.956,2.956,0,0,1-2.806,2.448Zm.861-4.147a2.385,2.385,0,0,0-2.232,1.956,1.412,1.412,0,0,0,.325,1.188,1.835,1.835,0,0,0,2.545-.2,2.282,2.282,0,0,0,.734-1.331,1.414,1.414,0,0,0-.325-1.188h0A1.393,1.393,0,0,0,1306.9,4509.354Z" transform="translate(-1304.07 -4508.778)" fill="#091135"/></g><g transform="translate(84.138 52.478)"><path d="M1267.433,4624.083s1.882,11.534-8.224,37.34a135.9,135.9,0,0,0-9.387,48.557l-26.226-1.572s2.343-45.379,15.671-72.594c7.255-14.815,8.565-20.051,8.565-20.051l19.6,8.32Z" transform="translate(-1223.306 -4615.473)" fill="#fff" fill-rule="evenodd"/><path d="M1249.21,4709.659h-.017l-26.226-1.572a.289.289,0,0,1-.272-.3c.023-.454,2.5-45.75,15.7-72.707,7.149-14.6,8.531-19.941,8.544-19.993a.289.289,0,0,1,.394-.2l19.6,8.32a.291.291,0,0,1,.173.219c.019.117,1.778,11.91-8.24,37.493a136.814,136.814,0,0,0-9.368,48.443.29.29,0,0,1-.088.216A.287.287,0,0,1,1249.21,4709.659Zm-25.92-2.134,25.625,1.536a138.467,138.467,0,0,1,9.413-48.355c9.332-23.831,8.4-35.573,8.228-37.033l-19.147-8.126c-.4,1.356-2.281,7.1-8.494,19.783C1226.316,4661.06,1223.522,4703.613,1223.29,4707.525Z" transform="translate(-1222.695 -4614.862)" fill="#091135"/></g><g transform="translate(101.606 51.364)"><path d="M1307.638,4623.938s-3.371,19.413.414,32.359c6.823,23.352,14.068,51.816,14.068,51.816l-26.658,1.511s-19.039-26.081-17.476-50.584S1288.8,4612.3,1288.8,4612.3l18.841,11.641Z" transform="translate(-1277.605 -4612.009)" fill="#fff" fill-rule="evenodd"/><path d="M1294.853,4709.305a.292.292,0,0,1-.234-.119c-.191-.261-19.083-26.447-17.532-50.774,1.549-24.272,10.742-46.612,10.835-46.835a.293.293,0,0,1,.179-.165.29.29,0,0,1,.241.03l18.841,11.641a.289.289,0,0,1,.133.3c-.033.193-3.315,19.5.407,32.227,6.746,23.089,14,51.542,14.07,51.827a.29.29,0,0,1-.264.361l-26.658,1.51Zm-6.524-97.19c-1.12,2.8-9.222,23.729-10.664,46.334-1.483,23.246,15.9,48.261,17.33,50.269l26.148-1.482c-.843-3.3-7.634-29.756-13.978-51.466-3.557-12.171-.789-30.227-.453-32.3Z" transform="translate(-1276.996 -4611.398)" fill="#091135"/></g><g transform="translate(97.784 25.321)"><path d="M1288.02,4531.345a42.338,42.338,0,0,1,12.063,38.641L1266.017,4573s8.678-30.26,10.841-37.6l11.162-4.053Z" transform="translate(-1265.727 -4531.056)" fill="#fff" fill-rule="evenodd"/><path d="M1265.406,4572.679a.289.289,0,0,1-.279-.37c.087-.3,8.7-30.344,10.842-37.6a.285.285,0,0,1,.178-.189l11.161-4.054a.291.291,0,0,1,.288.052,39.287,39.287,0,0,1,7.784,10.238,43.1,43.1,0,0,1,4.375,28.676.289.289,0,0,1-.259.235l-34.065,3.014Zm11.077-37.669c-2.064,7.016-9.649,33.453-10.682,37.054l33.425-2.957a42.5,42.5,0,0,0-4.354-28.078,39.428,39.428,0,0,0-7.527-9.964Z" transform="translate(-1265.116 -4530.445)" fill="#091135"/></g></g></g><g transform="translate(961.153 4279.64)"><g transform="translate(0 0)" clip-path="url(#b)"><g transform="translate(38.428 34.888)"><path d="M1081.734,4579.715a.3.3,0,0,1-.142-.037l-.84-.475a.289.289,0,0,1-.125-.364l7.79-18.479a.288.288,0,0,1,.409-.139l.84.472a.289.289,0,0,1,.125.364l-7.79,18.482a.287.287,0,0,1-.173.161A.293.293,0,0,1,1081.734,4579.715Zm-.473-.889.332.188,7.564-17.944-.332-.187Z" transform="translate(-1080.605 -4560.183)" fill="#091135"/></g><g transform="translate(46.352 34.702)"><path d="M1164.764,4560.506h-58.626v43.841h58.626v-43.841Z" transform="translate(-1105.848 -4560.216)" fill="#fff" fill-rule="evenodd"/><path d="M1164.153,4604.025h-58.626a.29.29,0,0,1-.29-.29v-43.842a.29.29,0,0,1,.29-.29h58.626a.29.29,0,0,1,.29.29v43.842A.29.29,0,0,1,1164.153,4604.025Zm-58.336-.579h58.047v-43.264h-58.047Z" transform="translate(-1105.237 -4559.604)" fill="#091135"/></g><g transform="translate(46.641 34.992)" opacity="0.15"><path d="M1164.764,4560.506h-58.626L1109,4580.58l53.3.41,2.459-20.484Z" transform="translate(-1106.138 -4560.506)" fill="#4848ff" fill-rule="evenodd"/></g></g></g><g transform="translate(1007.794 4314.632)"><g transform="translate(0 0)" clip-path="url(#d)"><g transform="translate(-10.14 -8.126)"><path d="M1161.587,4535.246h-86.97v11.067h86.97v-11.067Z" transform="translate(-1074.617 -4535.246)" fill="#fff" fill-rule="evenodd"/></g></g></g><g transform="translate(961.153 4279.64)"><g transform="translate(0 0)" clip-path="url(#b)"><g transform="translate(46.352 34.702)"><path d="M1161.694,4580.668h0l-53.3-.41a.29.29,0,0,1-.285-.249l-2.866-20.074a.29.29,0,0,1,.068-.231.287.287,0,0,1,.219-.1h58.626a.289.289,0,0,1,.287.324l-2.459,20.485A.29.29,0,0,1,1161.694,4580.668Zm-53.05-.988,52.793.407,2.389-19.9h-57.966Z" transform="translate(-1105.238 -4559.604)" fill="#091135"/></g><g transform="translate(74.18 31.457)"><path d="M1232.031,4551.9c4.607-4.136,12.2.551,11.136,11.935s-6.052,20.962-11.353,25.5c-4.562,3.9-13.258,9.683-23.586,10.981-.7.088-4.152,2.539-8.266,2.354-2.669-.121-6.912-2.145-7.319-4.814-.184-1.2,6.3-.321,10.6-3.592,4.456-3.39,15.391-14.686,16.926-18.144,1.175-2.653,3.966-9.442,5.577-14.417a24.2,24.2,0,0,1,6.283-9.8Z" transform="translate(-1192.351 -4550.128)" fill="#fff" fill-rule="evenodd"/><path d="M1199.8,4602.359c-.152,0-.3,0-.457-.01-2.735-.124-7.157-2.2-7.592-5.06a.578.578,0,0,1,.109-.44c.307-.414,1.172-.537,2.606-.741,2.19-.312,5.5-.785,8-2.685,4.3-3.269,15.3-14.565,16.836-18.033,1.054-2.377,3.919-9.3,5.566-14.387a24.443,24.443,0,0,1,6.365-9.929h0a5.679,5.679,0,0,1,6.54-.908c2.909,1.463,5.771,5.669,5.078,13.085-.978,10.489-5.474,20.574-11.453,25.693-3.321,2.842-12.282,9.608-23.738,11.048a5.9,5.9,0,0,0-.942.416A15.777,15.777,0,0,1,1199.8,4602.359Zm31.818-50.854h0a23.833,23.833,0,0,0-6.2,9.678c-1.654,5.108-4.53,12.058-5.588,14.443-1.565,3.527-12.681,14.961-17.015,18.258-2.618,1.992-6.017,2.477-8.267,2.8a6.051,6.051,0,0,0-2.225.518c.38,2.485,4.473,4.454,7.047,4.571a14.8,14.8,0,0,0,7.092-1.881,4.748,4.748,0,0,1,1.126-.471c11.3-1.422,20.152-8.105,23.433-10.913,5.871-5.027,10.288-14.96,11.253-25.308.666-7.125-2.024-11.136-4.762-12.514A5.121,5.121,0,0,0,1231.615,4551.505Z" transform="translate(-1191.741 -4549.519)" fill="#091135"/></g><g transform="translate(105.571 30.278)"><path d="M1297.238,4548.525c5.228-3.317,12.617-2.873,14.036,8.473.84,6.719-2.5,13.926-2.5,13.926l-18.551-9.272s2.677-10.372,7.018-13.126Z" transform="translate(-1289.931 -4546.445)" fill="#fff" fill-rule="evenodd"/><path d="M1308.161,4570.623a.294.294,0,0,1-.13-.031l-18.551-9.272a.288.288,0,0,1-.151-.332c.11-.428,2.755-10.515,7.143-13.3l.155.244-.155-.244c3.057-1.941,6.425-2.371,9.008-1.154,2.055.969,4.673,3.461,5.469,9.834.84,6.724-2.493,14.012-2.527,14.085a.288.288,0,0,1-.167.152A.292.292,0,0,1,1308.161,4570.623Zm-18.21-9.715,18.067,9.031c.586-1.373,3.087-7.667,2.358-13.5-.6-4.836-2.383-8.081-5.142-9.382-2.4-1.133-5.563-.714-8.451,1.119C1292.937,4550.617,1290.372,4559.384,1289.951,4560.907Z" transform="translate(-1289.32 -4545.854)" fill="#091135"/></g></g></g><g transform="translate(965.163 4369.417)"><path d="M1125.682,4731.386H973.91a.29.29,0,1,1,0-.579h151.772a.29.29,0,1,1,0,.579Z" transform="translate(-973.62 -4730.807)" fill="#091135"/></g><g transform="translate(973.094 4346.866)"><path d="M998.658,4661.3c.922-1.082,3.2-.657,5.08.947s2.662,3.784,1.741,4.866-3.2.657-5.081-.948-2.661-3.784-1.74-4.865Z" transform="translate(-998.271 -4660.706)" fill="#fff" fill-rule="evenodd"/></g><g transform="translate(973.094 4346.866)"><path d="M1003.738,4662.251c-1.882-1.6-4.157-2.028-5.08-.947s-.142,3.262,1.739,4.865,4.159,2.028,5.081.948S1005.621,4663.855,1003.738,4662.251Zm1.235,4.435a1.33,1.33,0,0,1-1.112.364,6.089,6.089,0,0,1-4.88-4.16,1.12,1.12,0,0,1,1.3-1.518,6.084,6.084,0,0,1,4.88,4.158A1.328,1.328,0,0,1,1004.973,4666.686Z" transform="translate(-998.271 -4660.706)" fill="#091135" fill-rule="evenodd"/></g><g transform="translate(984.921 4343.157)"><path d="M1038.212,4649.2c1.373.229,2.215,2.066,1.875,4.1s-1.729,3.5-3.1,3.27-2.213-2.065-1.875-4.1,1.729-3.5,3.1-3.271Z" transform="translate(-1035.035 -4649.178)" fill="#fff" fill-rule="evenodd"/></g><g transform="translate(984.921 4343.157)"><path d="M1038.212,4649.2c-1.374-.228-2.764,1.237-3.1,3.271s.5,3.871,1.875,4.1,2.764-1.237,3.1-3.27S1039.586,4649.43,1038.212,4649.2Zm1.221,3.99a3.824,3.824,0,0,1-1.267,2.389,1.243,1.243,0,0,1-1.977-.329,4.262,4.262,0,0,1,.844-5.061,1.242,1.242,0,0,1,1.975.329A3.831,3.831,0,0,1,1039.433,4653.192Z" transform="translate(-1035.035 -4649.178)" fill="#091135" fill-rule="evenodd"/></g><g transform="translate(976.891 4341.888)"><path d="M1014.285,4645.273c2.963-.464,5.959,2.943,6.688,7.6s-1.087,8.817-4.05,9.28-5.96-2.944-6.688-7.6,1.087-8.816,4.05-9.278Z" transform="translate(-1010.075 -4645.231)" fill="#fff" fill-rule="evenodd"/></g><g transform="translate(976.891 4341.888)"><path d="M1020.973,4652.875c-.729-4.659-3.725-8.065-6.688-7.6s-4.777,4.62-4.05,9.278,3.723,8.065,6.688,7.6S1021.7,4657.534,1020.973,4652.875Zm-1.7,6.8a3.29,3.29,0,0,1-5.35.836,11.143,11.143,0,0,1-1.993-12.763,3.288,3.288,0,0,1,5.349-.836,11.141,11.141,0,0,1,1.994,12.763Z" transform="translate(-1010.075 -4645.231)" fill="#091135" fill-rule="evenodd"/></g><g transform="translate(975.122 4355.44)"><path d="M1019.655,4687.359h-15.079l1.92,14.352h11.377l1.782-14.352Z" transform="translate(-1004.576 -4687.359)" fill="#fff" fill-rule="evenodd"/></g><g transform="translate(975.122 4355.44)"><path d="M1004.576,4687.359l1.92,14.352h11.377l1.782-14.352Zm12.712,13.688h-10.21l-1.742-13.025h13.57Z" transform="translate(-1004.576 -4687.359)" fill="#091135" fill-rule="evenodd"/></g><g transform="translate(1053.764 4240.123)"><g transform="translate(0 0)"><path d="M1232.67,4359.351a1.631,1.631,0,0,1-2.271-.384l-14.721-20.733a1.63,1.63,0,0,1,.385-2.272l14.269-10.131a1.63,1.63,0,0,1,2.272.385l14.721,20.733a1.63,1.63,0,0,1-.385,2.271l-14.27,10.131Z" transform="translate(-1215.377 -4325.529)" fill="#091135" fill-rule="evenodd"/></g><g transform="translate(12.62 14.339)"><path d="M1257.663,4375.783a.237.237,0,0,1-.33-.056l-2.683-3.779a.235.235,0,0,1,.056-.33l2.071-1.471a.236.236,0,0,1,.33.056l2.682,3.779a.236.236,0,0,1-.055.33l-2.071,1.47Z" transform="translate(-1254.606 -4370.104)" fill="#fff" fill-rule="evenodd"/></g><g transform="translate(12.62 14.339)"><g clip-path="url(#f)"><g transform="translate(0.422 -0.171)" opacity="0.25"><path d="M1258.975,4375.129a.215.215,0,0,1-.3-.051l-2.715-3.823a.217.217,0,0,1,.05-.3l1.89-1.342a.217.217,0,0,1,.3.05l2.716,3.826a.216.216,0,0,1-.052.3l-1.89,1.341Z" transform="translate(-1255.919 -4369.571)" fill="#4848ff" fill-rule="evenodd"/></g></g></g><g transform="translate(0.604 15.436)"><path d="M1226.264,4387.348a3.764,3.764,0,0,1-5.243-.89l-3.071-4.327a3.761,3.761,0,0,1,.888-5.242l3.779-2.684a3.762,3.762,0,0,1,5.243.889l3.072,4.326a3.762,3.762,0,0,1-.89,5.243l-3.779,2.685Zm-1.064-1.5a1.923,1.923,0,0,1-2.68-.455l-3.072-4.327a1.924,1.924,0,0,1,.454-2.68l3.781-2.684a1.922,1.922,0,0,1,2.68.455l3.072,4.327a1.923,1.923,0,0,1-.454,2.68l-3.78,2.684Z" transform="translate(-1217.256 -4373.511)" fill="#091135" fill-rule="evenodd"/></g></g><g transform="translate(975.122 4259.809)"><g transform="translate(0)"><path d="M1045.323,4406.277a1.63,1.63,0,0,1,.5-2.25l21.43-13.685a1.63,1.63,0,0,1,2.25.5l9.418,14.749a1.631,1.631,0,0,1-.5,2.25l-21.43,13.685a1.631,1.631,0,0,1-2.25-.5l-9.418-14.75Z" transform="translate(-1045.067 -4390.087)" fill="#091135" fill-rule="evenodd"/></g><g transform="translate(14.084 12.396)"><path d="M1088.885,4431.479a.238.238,0,0,1,.072-.327l3.906-2.494a.236.236,0,0,1,.327.071l1.367,2.141a.237.237,0,0,1-.072.327l-3.906,2.493a.236.236,0,0,1-.327-.071l-1.367-2.141Z" transform="translate(-1088.848 -4428.62)" fill="#fff" fill-rule="evenodd"/></g><g transform="translate(14.084 12.396)"><g clip-path="url(#g)"><g transform="translate(0.274 0.437)" opacity="0.25"><path d="M1089.733,4432.835a.216.216,0,0,1,.066-.3l3.953-2.524a.216.216,0,0,1,.3.065l1.247,1.953a.217.217,0,0,1-.066.3l-3.954,2.524a.216.216,0,0,1-.3-.065l-1.247-1.954Z" transform="translate(-1089.699 -4429.979)" fill="#4848ff" fill-rule="evenodd"/></g></g></g><g transform="translate(4.587 0.104)"><path d="M1059.916,4399.05a3.763,3.763,0,0,1,1.146-5.193l4.472-2.855a3.761,3.761,0,0,1,5.192,1.145l2.5,3.907a3.762,3.762,0,0,1-1.145,5.192l-4.472,2.856a3.762,3.762,0,0,1-5.193-1.145l-2.5-3.907Zm1.548-.989a1.924,1.924,0,0,1,.586-2.655l4.472-2.856a1.924,1.924,0,0,1,2.655.585l2.495,3.908a1.922,1.922,0,0,1-.585,2.654l-4.473,2.855a1.922,1.922,0,0,1-2.655-.585l-2.5-3.906Z" transform="translate(-1059.326 -4390.411)" fill="#091135" fill-rule="evenodd"/></g></g><g transform="translate(962.783 4198.021)"><path d="M1109.6,4255.586H968.079s-3.964-5.436-.312-10.5c6.067-8.417,22.295-9.853,32.872-3.046,0,0-3.474-11.341.628-21.833,4.836-12.368,19.712-24.405,40.433-21.83,30.243,3.757,37.123,38.389,37.123,38.389s9.63-13.187,22.441-4.924c13.351,8.613,8.338,23.749,8.338,23.749Z" transform="translate(-966.221 -4198.021)" fill="#4848ff" fill-rule="evenodd"/></g></g></svg>