<svg xmlns="http://www.w3.org/2000/svg" xmlns:xlink="http://www.w3.org/1999/xlink" width="211.904" height="165.718" viewBox="0 0 211.904 165.718"><defs><clipPath id="a"><path d="M-766.867,6307.382a.307.307,0,0,0,.344-.265h0l.772-5.961a.306.306,0,0,0-.265-.344h0l-3.267-.423a.307.307,0,0,0-.344.264l-.772,5.961a.307.307,0,0,0,.264.344l3.267.423Z" fill="none"/></clipPath></defs><g transform="translate(797.151 -6245.307)"><g opacity="0.1"><path d="M-658.672,6245.307a73.459,73.459,0,0,1,73.425,73.424,73.459,73.459,0,0,1-73.425,73.426,73.46,73.46,0,0,1-73.425-73.426A73.46,73.46,0,0,1-658.672,6245.307Zm0,134.5a61.1,61.1,0,0,0,61.075-61.074,61.1,61.1,0,0,0-61.075-61.074,61.1,61.1,0,0,0-61.074,61.074,61.1,61.1,0,0,0,61.074,61.072Z" fill="#4848ff" fill-rule="evenodd"/></g><g opacity="0.1"><path d="M-658.672,6309.056a9.684,9.684,0,0,0-9.68,9.679,9.686,9.686,0,0,0,9.68,9.681,9.686,9.686,0,0,0,9.681-9.681,9.685,9.685,0,0,0-9.681-9.679Z" fill="#4848ff" fill-rule="evenodd"/><path d="M-650.688,6272.385a3.993,3.993,0,0,1,4.873-2.85,3.993,3.993,0,0,1,2.851,4.873l-11.32,43.228a3.993,3.993,0,0,1-4.873,2.851,4,4,0,0,1-2.851-4.875l11.32-43.228Z" fill="#4848ff" fill-rule="evenodd"/><path d="M-658.495,6324.787a5.167,5.167,0,0,1-1.964-7.037,5.168,5.168,0,0,1,7.037-1.964l31.082,17.519a5.168,5.168,0,0,1,1.964,7.038,5.169,5.169,0,0,1-7.037,1.964Z" fill="#4848ff" fill-rule="evenodd"/></g><path d="M-605.394,6318.4a1.674,1.674,0,0,1,1.673-1.674h3.209a1.674,1.674,0,0,1,1.673,1.674,1.673,1.673,0,0,1-1.673,1.673h-3.209a1.673,1.673,0,0,1-1.673-1.673Z" fill="#4848ff" fill-rule="evenodd"/><path d="M-658.594,6265.1a1.674,1.674,0,0,1-1.673-1.673v-3.14a1.675,1.675,0,0,1,1.673-1.673,1.673,1.673,0,0,1,1.672,1.673v3.14A1.672,1.672,0,0,1-658.594,6265.1Z" fill="#4848ff" fill-rule="evenodd"/><path d="M-658.594,6378.741a1.673,1.673,0,0,1-1.673-1.673h0v-3.149a1.675,1.675,0,0,1,1.673-1.673,1.673,1.673,0,0,1,1.672,1.673v3.149A1.672,1.672,0,0,1-658.594,6378.741Z" fill="#4848ff" fill-rule="evenodd"/><path d="M-690.465,6279l-9.945,5.193,8.756,5.053,4.537-6.683Z" fill="#fff" fill-rule="evenodd"/><path d="M-691.652,6289.553a.3.3,0,0,0,.247-.131l4.537-6.684a.3.3,0,0,0-.03-.373l-3.348-3.562a.3.3,0,0,0-.357-.06l-9.945,5.193a.3.3,0,0,0-.16.259.3.3,0,0,0,.149.265l8.756,5.053A.308.308,0,0,0-691.652,6289.553Zm4.156-6.952-4.247,6.255-8.044-4.642,9.262-4.836Z" fill="#091135"/><path d="M-681.515,6278.814l.7,3.324-1.893.289,1.19-3.613Z" fill="#fff" fill-rule="evenodd"/><path d="M-682.705,6282.726h.045l1.893-.288a.3.3,0,0,0,.2-.125.3.3,0,0,0,.047-.232l-.7-3.324a.3.3,0,0,0-.276-.237.3.3,0,0,0-.3.205l-1.191,3.613a.3.3,0,0,0,.056.287A.3.3,0,0,0-682.705,6282.726Zm1.535-.835-1.1.167.691-2.1Z" fill="#091135"/><path d="M-685.662,6271.7c2.426,0,4.4,2.928,4.4,6.535s-1.97,6.535-4.4,6.535-4.4-2.929-4.4-6.535S-688.093,6271.7-685.662,6271.7Z" fill="#fff" fill-rule="evenodd"/><path d="M-685.661,6285.068c2.589,0,4.694-3.066,4.694-6.835s-2.106-6.835-4.694-6.835-4.7,3.066-4.7,6.835S-688.251,6285.068-685.661,6285.068Zm0-13.071c2.259,0,4.1,2.8,4.1,6.237s-1.838,6.237-4.1,6.237-4.1-2.8-4.1-6.237S-687.921,6272-685.661,6272Z" fill="#091135"/><path d="M-676.494,6271.276c.476,2.946-1.237,5.675-3.822,6.092s-5.07-1.634-5.546-4.578,1.237-5.675,3.822-6.092S-676.969,6268.332-676.494,6271.276Z" fill="#091135" fill-rule="evenodd"/><path d="M-682.564,6279.182c0,.5-.2.909-.428.907s-.414-.413-.41-.915.2-.909.428-.906S-682.559,6278.68-682.564,6279.182Z" fill="#091135" fill-rule="evenodd"/><path d="M-690.865,6270.3c2-.526,3.959.348,4.381,1.947s-.859,3.327-2.856,3.852-3.961-.346-4.381-1.947S-692.862,6270.823-690.865,6270.3Z" fill="#091135" fill-rule="evenodd"/><path d="M-688.2,6266.294c2-.526,3.959.348,4.381,1.947s-.859,3.327-2.856,3.852-3.961-.346-4.381-1.947S-690.2,6266.819-688.2,6266.294Z" fill="#091135" fill-rule="evenodd"/><path d="M-686.272,6269.741a3.883,3.883,0,0,1,4.438,3.228,3.883,3.883,0,0,1-3.31,4.378,3.882,3.882,0,0,1-4.437-3.228,3.881,3.881,0,0,1,3.309-4.377Z" fill="#091135" fill-rule="evenodd"/><path d="M-687.327,6268.869c1.058-.252,2.254.959,2.673,2.706s-.1,3.369-1.159,3.621-2.253-.959-2.672-2.707.1-3.368,1.158-3.621Z" fill="#091135" fill-rule="evenodd"/><path d="M-687.538,6273.463c1.327.912,1.511,2.952.41,4.555s-3.072,2.165-4.4,1.254-1.512-2.954-.411-4.557,3.073-2.164,4.4-1.252Z" fill="#091135" fill-rule="evenodd"/><path d="M-689.363,6281.187a2.178,2.178,0,0,1-1.921-2.363,2.179,2.179,0,0,1,1.921-2.363,1.948,1.948,0,0,1,1.923,1.975c0,.05,0,.1-.008.151" fill="#fff" fill-rule="evenodd"/><path d="M-689.363,6281.487a.3.3,0,0,0,.3-.3h0a.3.3,0,0,0-.3-.3h0a1.886,1.886,0,0,1-1.622-2.063,1.886,1.886,0,0,1,1.622-2.064,1.657,1.657,0,0,1,1.625,1.687c0,.047,0,.093-.009.14a.3.3,0,0,0,.3.3h0a.3.3,0,0,0,.3-.3h0a2.251,2.251,0,0,0-2.068-2.419c-.048,0-.1,0-.146-.006a2.474,2.474,0,0,0-2.22,2.662A2.474,2.474,0,0,0-689.363,6281.487Z" fill="#091135"/><path d="M-753.454,6354.084l-19.112-21.72-24.282,17.262,13.719,1.6,15.7,9.894,13.98-7.041Z" fill="#fff" fill-rule="evenodd"/><path d="M-767.435,6361.429a.294.294,0,0,0,.134-.032l13.98-7.041a.3.3,0,0,0,.159-.21.3.3,0,0,0-.069-.254l-19.112-21.72a.3.3,0,0,0-.4-.045l-24.282,17.262a.3.3,0,0,0-.117.319.3.3,0,0,0,.255.222l13.651,1.6,15.637,9.857A.291.291,0,0,0-767.435,6361.429Zm13.5-7.433-13.484,6.791-15.552-9.8a.3.3,0,0,0-.125-.044l-12.947-1.513,23.429-16.656Z" fill="#091135"/><path d="M-692.2,6389.172l-5.73,20.666,33.188.889-7.492-6.674-1.213-16.273-18.748,1.391Z" fill="#fff" fill-rule="evenodd"/><path d="M-664.749,6411.025a.3.3,0,0,0,.278-.189.3.3,0,0,0-.079-.333l-7.4-6.593-1.209-16.152a.3.3,0,0,0-.32-.276l-18.748,1.392a.3.3,0,0,0-.266.218l-5.73,20.666a.3.3,0,0,0,.047.258.3.3,0,0,0,.233.121l33.188.888Zm-8.986-22.924,1.2,15.974a.3.3,0,0,0,.1.2l6.881,6.13-31.988-.857,5.571-20.094Z" fill="#091135"/><path d="M-712.28,6277.077s-8.884-2.817-16.035-.037c-8.334,3.241-16.955,9.381-24.67,19.972-4.569,6.273-4.812,12.986,1.249,13.483,5.606.458,7-10.77,7-10.77s10.923-4.719,18.089-6.26c5.609-1.207,11.847,1.793,12.159.5,0,0,1.82-16.673,2.213-16.89Z" fill="#fff" fill-rule="evenodd"/><path d="M-751.4,6310.809c5.211,0,6.728-9.424,6.931-10.875,1.359-.579,11.285-4.758,17.878-6.176,3.118-.671,6.418-.02,8.828.455,2.093.413,3.357.662,3.559-.176a.239.239,0,0,0,.007-.038c.69-6.323,1.825-15.936,2.148-16.733a.3.3,0,0,0,.065-.218.3.3,0,0,0-.207-.255c-.09-.029-9.067-2.816-16.234-.031-9.425,3.665-17.77,10.419-24.8,20.075-3.057,4.2-4.18,8.5-2.93,11.228a4.909,4.909,0,0,0,4.4,2.729C-751.64,6310.8-751.518,6310.809-751.4,6310.809Zm27.706-17.937a14.426,14.426,0,0,0-3.023.3c-7.112,1.53-18.036,6.231-18.145,6.278a.3.3,0,0,0-.178.238c-.014.109-1.419,10.926-6.674,10.509a4.3,4.3,0,0,1-3.9-2.382c-1.143-2.493-.017-6.665,2.869-10.627,6.965-9.562,15.22-16.247,24.537-19.87,6.279-2.442,14.031-.47,15.566-.036-.272,1.043-.827,4.535-2.146,16.625-.111.261-1.761-.064-2.859-.281A31.238,31.238,0,0,0-723.693,6292.872Zm11.558-15.533,0,0" fill="#091135"/><path d="M-706.12,6298.23c4.031,2.36,13.17-8.562,6.911-15-5.514-5.675-15.665-8.374-15.665-8.374l-4.082,19.862s8.232.818,12.836,3.515Z" fill="#fff" fill-rule="evenodd"/><path d="M-704.859,6298.853c1.678,0,3.738-1.261,5.462-3.461,2.761-3.522,3.955-8.715.4-12.374-5.508-5.669-15.7-8.427-15.8-8.454a.3.3,0,0,0-.234.034.3.3,0,0,0-.136.194l-4.082,19.863a.3.3,0,0,0,.052.238.3.3,0,0,0,.211.121c.082.008,8.221.842,12.714,3.475h0A2.757,2.757,0,0,0-704.859,6298.853Zm-9.79-23.626c1.728.5,10.362,3.2,15.222,8.207,3.3,3.4,2.16,8.271-.441,11.589-2.03,2.591-4.6,3.83-6.1,2.948h0c-4.139-2.426-11.025-3.334-12.628-3.519Zm8.526,23" fill="#091135"/><path d="M-721.054,6312.687s-7.514,22.034,18.449,33.825c23.043,10.466,5.026,51.555,5.026,51.555l27.487-2.482s14.024-37.242,3.254-52.188c-9.922-13.769-29.482-24.78-29.482-24.78l-24.733-5.93Z" fill="#fff" fill-rule="evenodd"/><path d="M-697.575,6398.366h.027l27.487-2.482a.3.3,0,0,0,.253-.193,142.786,142.786,0,0,0,5.679-20.538c2.882-14.919,2.054-25.662-2.463-31.93-9.846-13.664-29.382-24.755-29.578-24.866a.347.347,0,0,0-.077-.03l-24.733-5.929a.3.3,0,0,0-.353.194,27.136,27.136,0,0,0-.522,12.644c1.26,6.44,5.6,15.406,19.13,21.549,11.736,5.33,12.45,18.923,10.982,29.388a94.551,94.551,0,0,1-6.106,21.774.3.3,0,0,0,.031.3A.3.3,0,0,0-697.575,6398.366Zm27.272-3.062-26.8,2.42a95.346,95.346,0,0,0,5.955-21.469c.949-6.766.728-12.6-.656-17.356a19.072,19.072,0,0,0-10.67-12.659c-13.3-6.038-17.557-14.818-18.791-21.12a26.856,26.856,0,0,1,.421-12.077l24.419,5.855c.949.542,19.782,11.4,29.351,24.674,10.17,14.123-2.214,48.939-3.233,51.732Z" fill="#091135"/><path d="M-722.434,6313.714s-8.725,2.2-14.215,30.892c-1.488,7.78-24.248-2.556-24.248-2.556l-21.4,16.415s30.43,23.759,60.652,8.368c13.723-6.988,22.019-57,22.019-57l-22.811,3.887Z" fill="#fff" fill-rule="evenodd"/><path d="M-743.417,6372.29a47.772,47.772,0,0,0,21.911-5.192c5.768-2.937,11.255-13.471,16.307-31.308,3.751-13.241,5.85-25.789,5.871-25.915a.3.3,0,0,0-.084-.261.3.3,0,0,0-.261-.083l-22.812,3.887h-.023c-.364.092-8.973,2.578-14.435,31.125a2.762,2.762,0,0,1-1.535,2.039c-5.4,2.8-22.127-4.734-22.3-4.811a.3.3,0,0,0-.306.035l-21.4,16.414a.3.3,0,0,0-.117.236.3.3,0,0,0,.115.237,74.687,74.687,0,0,0,19.077,10A60.565,60.565,0,0,0-743.417,6372.29Zm43.428-62.1c-.841,4.823-9.015,49.868-21.789,56.373-15.512,7.9-31.079,5.219-41.407,1.578a75.27,75.27,0,0,1-18.615-9.682l20.943-16.062c1.547.691,12.354,5.408,19.1,5.409a7.837,7.837,0,0,0,3.552-.684,3.368,3.368,0,0,0,1.848-2.458c5.293-27.663,13.669-30.557,13.987-30.655Z" fill="#091135"/><path d="M-698.268,6281.033a43.565,43.565,0,0,0-25.879,32.634l33.244,9.851s1.211-26.616,1.851-34.464Z" fill="#fff" fill-rule="evenodd"/><path d="M-690.9,6323.817a.3.3,0,0,0,.173-.056.3.3,0,0,0,.125-.23c.012-.266,1.218-26.7,1.851-34.454a.3.3,0,0,0-.1-.25l-9.216-8.021a.3.3,0,0,0-.3-.056,40.431,40.431,0,0,0-11.262,6.949,44.343,44.343,0,0,0-14.811,25.912.3.3,0,0,0,.209.342l33.244,9.852A.3.3,0,0,0-690.9,6323.817Zm1.541-34.637c-.595,7.421-1.672,30.672-1.823,33.943l-32.619-9.667a43.735,43.735,0,0,1,14.542-25.285,40.619,40.619,0,0,1,10.931-6.8Z" fill="#091135"/><path d="M-692.3,6286.4c-6.308-.893-10.313,7.268-2.876,16.383s15.928,14.35,23.059,15.186c6.135.719,17.345-8.6,24.716-12.577,3.012-1.625-2.4.716.455,1.862.876.353,3.538-.662,3.687-3.153.13-2.184-1.791-5.7-6.949-7.771-4.818-1.936-18,6.341-21.292,4.267-2.526-1.591-6.455-5.5-10.684-8.821-3.366-2.646-6.923-4.924-10.116-5.376Z" fill="#fff" fill-rule="evenodd"/><path d="M-671.406,6318.308c4.409,0,10.721-4.125,16.836-8.122,2.32-1.516,4.527-2.958,6.5-4.082a.855.855,0,0,0-.021.1c-.064.391.063.938,1.034,1.328a2.913,2.913,0,0,0,2.332-.5,3.671,3.671,0,0,0,1.764-2.912c.146-2.446-2.025-6.013-7.136-8.066-2.588-1.039-7.28.669-11.817,2.323-3.91,1.424-7.953,2.9-9.427,1.969a52.147,52.147,0,0,1-5.378-4.354c-1.608-1.4-3.43-3-5.281-4.449-4.217-3.316-7.478-5.044-10.259-5.437h0a5.978,5.978,0,0,0-6.255,3.032c-1.617,2.867-1.65,8.008,3.106,13.836,7.207,8.832,15.683,14.406,23.256,15.293A6.461,6.461,0,0,0-671.406,6318.308Zm24.353-13.449c-.126.072-.286.161-.487.269-2.2,1.185-4.7,2.823-7.357,4.557-6.081,3.974-12.973,8.478-17.183,7.986-7.42-.869-15.753-6.365-22.862-15.078-4.565-5.6-4.568-10.469-3.048-13.165a5.4,5.4,0,0,1,5.651-2.733h0c2.673.377,5.842,2.066,9.973,5.314,1.838,1.446,3.654,3.031,5.257,4.43a52.372,52.372,0,0,0,5.453,4.409c1.722,1.085,5.535-.3,9.951-1.913,4.225-1.539,9.015-3.283,11.389-2.33,4.836,1.943,6.9,5.238,6.762,7.476a3.088,3.088,0,0,1-1.487,2.444,2.413,2.413,0,0,1-1.789.45c-.3-.122-.666-.325-.673-.6-.007-.326.4-.726.74-.99.62-.347.657-.424.6-.631a.3.3,0,0,0-.307-.218,1.832,1.832,0,0,0-.582.323ZM-692.3,6286.4" fill="#091135"/><path d="M-692.483,6286.089c-6.367.165-12.426,4.782-7.13,15.288,3.136,6.221,10.124,10.462,10.124,10.462l10.529-18.561s-8.234-7.325-13.523-7.188Z" fill="#fff" fill-rule="evenodd"/><path d="M-689.489,6312.137a.272.272,0,0,0,.075-.01.3.3,0,0,0,.185-.142l10.529-18.562a.3.3,0,0,0-.061-.371c-.34-.3-8.39-7.389-13.73-7.264h0c-3.725.1-6.85,1.66-8.358,4.182-1.2,2.007-2.006,5.638.969,11.539,3.138,6.226,10.166,10.54,10.236,10.583A.292.292,0,0,0-689.489,6312.137Zm10.148-18.8-10.253,18.075c-1.289-.838-7.032-4.778-9.752-10.176-2.258-4.479-2.6-8.27-.99-10.963,1.4-2.345,4.341-3.8,7.86-3.891h.139c4.688,0,11.774,5.91,13,6.96Z" fill="#091135"/><path d="M-760.316,6324.174a2.114,2.114,0,0,0,2.368-1.823l4.239-32.706a2.114,2.114,0,0,0-1.824-2.368l-22.509-2.918a2.113,2.113,0,0,0-2.367,1.824h0l-4.24,32.706a2.115,2.115,0,0,0,1.823,2.367l22.51,2.917Z" fill="#4848ff" fill-rule="evenodd"/><path d="M-766.867,6307.382a.307.307,0,0,0,.344-.265h0l.772-5.961a.306.306,0,0,0-.265-.344h0l-3.267-.423a.307.307,0,0,0-.344.264l-.772,5.961a.307.307,0,0,0,.264.344l3.267.423Z" fill="#fff" fill-rule="evenodd"/><g clip-path="url(#a)"><g opacity="0.25"><path d="M-767.527,6307.305a.28.28,0,0,0,.313-.242l.782-6.033a.281.281,0,0,0-.241-.314l-2.981-.386a.282.282,0,0,0-.315.242l-.782,6.034a.279.279,0,0,0,.241.313h0l2.981.386Z" fill="#4848ff" fill-rule="evenodd"/></g></g><path d="M-754.29,6314.288a4.88,4.88,0,0,0,5.463-4.21l.884-6.825a4.878,4.878,0,0,0-4.208-5.463l-5.963-.773a4.88,4.88,0,0,0-5.463,4.209l-.885,6.825a4.88,4.88,0,0,0,4.21,5.463l5.962.773Zm.306-2.363a2.493,2.493,0,0,0,2.793-2.153l.885-6.825a2.5,2.5,0,0,0-2.152-2.794l-5.964-.772a2.5,2.5,0,0,0-2.793,2.152l-.884,6.826a2.494,2.494,0,0,0,2.152,2.793l5.963.773Z" fill="#4848ff" fill-rule="evenodd"/><path d="M-752.7,6310.33a4.849,4.849,0,0,0,5.93-3.446l.014-.054c.954-3.068-.259-5.209-1.59-5.932-2.9-1.573-4.367-.006-4.367-.006" fill="#fff" fill-rule="evenodd"/><path d="M-751.461,6310.762a4.958,4.958,0,0,0,5-3.84c.977-3.14-.213-5.458-1.732-6.284-3.063-1.664-4.661-.019-4.727.052a.3.3,0,0,0,.013.423.3.3,0,0,0,.423-.013c.053-.055,1.367-1.369,4.006.064,1.312.713,2.323,2.763,1.447,5.581a4.525,4.525,0,0,1-5.465,3.33l-.115-.03a.3.3,0,0,0-.366.211.3.3,0,0,0,.211.366A5.673,5.673,0,0,0-751.461,6310.762Z" fill="#091135"/></g></svg>