<svg xmlns="http://www.w3.org/2000/svg" width="183.217" height="172.971" viewBox="0 0 183.217 172.971"><g transform="translate(-534 -1017)"><g transform="translate(2001.797 -5225.563)"><g opacity="0.1"><path d="M-1378.778,6255.663a13.109,13.109,0,0,0-13.1-13.1H-1454.7a13.111,13.111,0,0,0-13.1,13.1v29.9a13.11,13.11,0,0,0,13.1,13.1h62.817a13.109,13.109,0,0,0,13.1-13.1v-29.9Z" fill="#4848ff" fill-rule="evenodd"/></g><path d="M-1453.876,6261.718a1.177,1.177,0,0,1-.814-.328l-2.667-2.562,1.628-1.694,1.817,1.747,4.259-4.45,1.7,1.625-5.072,5.3a1.177,1.177,0,0,1-.824.362Z" fill="#4848ff"/><path d="M-1390.7,6256.567a1.326,1.326,0,0,0-1.325-1.324h-48.84a1.325,1.325,0,0,0-1.336,1.314,1.325,1.325,0,0,0,1.314,1.336h48.862a1.325,1.325,0,0,0,1.325-1.325Z" fill="#fff" fill-rule="evenodd"/><path d="M-1407.581,6260.543a1.326,1.326,0,0,0-1.325-1.325h-31.961a1.326,1.326,0,0,0-1.325,1.326,1.325,1.325,0,0,0,1.325,1.325h31.961A1.326,1.326,0,0,0-1407.581,6260.543Z" fill="#fff" fill-rule="evenodd"/><path d="M-1453.876,6279.6a1.172,1.172,0,0,1-.814-.327l-2.667-2.562,1.628-1.694,1.817,1.747,4.259-4.45,1.7,1.625-5.072,5.3a1.174,1.174,0,0,1-.824.363Z" fill="#4848ff"/><path d="M-1390.7,6274.447a1.326,1.326,0,0,0-1.325-1.326h-48.84a1.327,1.327,0,0,0-1.287,1.364,1.326,1.326,0,0,0,1.287,1.287h48.84A1.325,1.325,0,0,0-1390.7,6274.447Z" fill="#fff" fill-rule="evenodd"/><path d="M-1407.581,6278.421a1.326,1.326,0,0,0-1.325-1.324h-31.961a1.325,1.325,0,0,0-1.336,1.314,1.325,1.325,0,0,0,1.314,1.336h31.983a1.325,1.325,0,0,0,1.325-1.325Z" fill="#fff" fill-rule="evenodd"/><g opacity="0.1"><path d="M-1363.5,6326.284a7.265,7.265,0,0,0-7.26-7.261h-34.809a7.266,7.266,0,0,0-7.261,7.261v13.843a7.266,7.266,0,0,0,7.261,7.261h34.809a7.265,7.265,0,0,0,7.26-7.261Z" fill="#4848ff" fill-rule="evenodd"/></g><path d="M-1405.117,6329.639a.65.65,0,0,1-.451-.182l-1.477-1.42.9-.939,1.007.968,2.359-2.466.941.9-2.811,2.937a.65.65,0,0,1-.457.2Z" fill="#4848ff"/><path d="M-1370.111,6326.788a.734.734,0,0,0-.735-.734h-27.064a.734.734,0,0,0-.734.735.735.735,0,0,0,.734.734h27.064a.733.733,0,0,0,.735-.733h0Z" fill="#fff" fill-rule="evenodd"/><path d="M-1379.462,6328.988a.736.736,0,0,0-.736-.734h-17.711a.735.735,0,0,0-.734.735.735.735,0,0,0,.734.734h17.711a.736.736,0,0,0,.736-.735Z" fill="#fff" fill-rule="evenodd"/><path d="M-1405.117,6339.546a.655.655,0,0,1-.451-.181l-1.477-1.42.9-.939,1.007.968,2.359-2.466.941.9-2.811,2.938a.648.648,0,0,1-.457.2Z" fill="#4848ff"/><path d="M-1370.111,6336.693a.735.735,0,0,0-.735-.735h-27.064a.735.735,0,0,0-.73.74.735.735,0,0,0,.73.73h27.064a.735.735,0,0,0,.735-.735Z" fill="#fff" fill-rule="evenodd"/><path d="M-1379.462,6338.893a.736.736,0,0,0-.736-.734h-17.711a.734.734,0,0,0-.734.735.734.734,0,0,0,.734.734h17.711a.736.736,0,0,0,.736-.735Z" fill="#fff" fill-rule="evenodd"/><g opacity="0.1"><path d="M-1396.582,6365.961a7.264,7.264,0,0,0-7.261-7.261h-34.809a7.265,7.265,0,0,0-7.261,7.261v21.808a7.265,7.265,0,0,0,7.261,7.261h34.809a7.264,7.264,0,0,0,7.261-7.261Z" fill="#4848ff" fill-rule="evenodd"/></g><path d="M-1438.2,6378.914a.65.65,0,0,1-.451-.182l-1.477-1.42.9-.939,1.007.968,2.359-2.466.94.9-2.811,2.937a.648.648,0,0,1-.457.2Z" fill="#4848ff"/><path d="M-1403.19,6376.06a.735.735,0,0,0-.735-.734h-27.063a.734.734,0,0,0-.734.734.734.734,0,0,0,.734.734h27.063a.734.734,0,0,0,.735-.734Z" fill="#fff" fill-rule="evenodd"/><path d="M-1412.543,6378.263a.735.735,0,0,0-.734-.734h-17.712a.734.734,0,0,0-.734.735.734.734,0,0,0,.734.734h17.711a.735.735,0,0,0,.735-.735Z" fill="#fff" fill-rule="evenodd"/><path d="M-1438.2,6368.506a.652.652,0,0,1-.451-.182l-1.477-1.42.9-.939,1.007.968,2.359-2.466.94.9-2.811,2.937a.648.648,0,0,1-.457.2Z" fill="#4848ff"/><path d="M-1403.19,6365.652a.737.737,0,0,0-.735-.734h-27.063a.734.734,0,0,0-.734.735.734.734,0,0,0,.734.734h27.063a.734.734,0,0,0,.735-.734Z" fill="#fff" fill-rule="evenodd"/><path d="M-1412.543,6367.855a.735.735,0,0,0-.734-.734h-17.712a.734.734,0,0,0-.734.735.734.734,0,0,0,.734.734h17.711a.735.735,0,0,0,.735-.735Z" fill="#fff" fill-rule="evenodd"/><path d="M-1438.2,6388.821a.65.65,0,0,1-.451-.182l-1.477-1.42.9-.939,1.007.968,2.359-2.466.94.9-2.811,2.937a.648.648,0,0,1-.457.2Z" fill="#4848ff"/><path d="M-1403.19,6385.967a.735.735,0,0,0-.735-.734h-27.063a.734.734,0,0,0-.734.735.734.734,0,0,0,.734.734h27.063a.734.734,0,0,0,.735-.734Z" fill="#fff" fill-rule="evenodd"/><path d="M-1412.543,6388.17a.735.735,0,0,0-.735-.734h-17.711a.734.734,0,0,0-.734.735.734.734,0,0,0,.734.734h17.711a.735.735,0,0,0,.735-.735Z" fill="#fff" fill-rule="evenodd"/><path d="M-1393.3,6298.9a10.814,10.814,0,0,0-10.809-10.81h-34.487A10.809,10.809,0,0,0-1449.4,6298.9a10.809,10.809,0,0,0,10.809,10.81h34.487A10.813,10.813,0,0,0-1393.3,6298.9Z" fill="#4848ff" fill-rule="evenodd"/><path d="M-1423.526,6304.084a1.675,1.675,0,0,1-1.158-.466l-3.793-3.645,2.316-2.41,2.586,2.484,6.058-6.331,2.414,2.311-7.215,7.541a1.667,1.667,0,0,1-1.172.515Z" fill="#fff"/><path d="M-1449.778,6309.221a1.545,1.545,0,0,1-.192,2.178l-.027.022-3.416,2.749a1.609,1.609,0,0,1-2.236-.222,1.544,1.544,0,0,1,.189-2.175l.03-.025,3.414-2.75A1.611,1.611,0,0,1-1449.778,6309.221Z" fill="#4848ff" fill-rule="evenodd"/><path d="M-1444.933,6312.053a1.584,1.584,0,0,1,1.179,1.9l0,.014-1.006,4.115a1.612,1.612,0,0,1-1.933,1.185,1.581,1.581,0,0,1-1.18-1.9l0-.018,1.005-4.115a1.616,1.616,0,0,1,1.934-1.186Z" fill="#4848ff" fill-rule="evenodd"/><path d="M-1459.512,6304.434a1.568,1.568,0,0,1,1.491-1.64h0l4.2-.195a1.569,1.569,0,0,1,1.666,1.466,1.57,1.57,0,0,1-1.467,1.666l-.049,0-4.2.194a1.571,1.571,0,0,1-1.642-1.494Z" fill="#4848ff" fill-rule="evenodd"/><path d="M-1325.272,6369.809l3.192,24.929-27.131,20.5,3.382-11.6-.724-39.352,21.281,5.517Z" fill="#fff" fill-rule="evenodd"/><path d="M-1349.209,6415.534a.3.3,0,0,1-.294-.3.268.268,0,0,1,.012-.08l3.369-11.553-.723-39.308a.291.291,0,0,1,.287-.3.275.275,0,0,1,.08.009l21.281,5.517a.294.294,0,0,1,.217.247l3.193,24.929a.3.3,0,0,1-.114.271l-27.131,20.5A.3.3,0,0,1-1349.209,6415.534Zm2.959-50.861.717,38.965a.29.29,0,0,1-.011.088l-3.134,10.745,26.288-19.865-3.146-24.563Z" fill="#091135"/><path d="M-1315.9,6336.707l21.493-7.408,9.531,33.241-11.633-6.4-17.935.447-1.457-19.879Z" fill="#fff" fill-rule="evenodd"/><path d="M-1284.875,6362.834a.288.288,0,0,1-.143-.037l-11.562-6.363-17.856.444a.281.281,0,0,1-.3-.261v-.011l-1.457-19.878a.294.294,0,0,1,.2-.3l21.493-7.408a.293.293,0,0,1,.373.184l.005.016,9.531,33.241a.294.294,0,0,1-.2.364.33.33,0,0,1-.081.011Zm-11.633-6.989a.306.306,0,0,1,.141.037l11.014,6.061-9.251-32.266-20.987,7.233,1.419,19.374,17.655-.439Z" fill="#091135"/><path d="M-1319.1,6321.587l-35.937,24.594,42.784-13.507,5.468,27.526s-87.553,14.694-72.625-15.79c8.125-16.594,40.417-38.338,40.417-38.338l19.892,15.515Z" fill="#fff" fill-rule="evenodd"/><path d="M-1347.769,6364.04c-17.23,0-27.955-2.689-31.93-8.02-2.292-3.073-2.283-7.022.025-11.738,8.066-16.474,40.194-38.234,40.518-38.452a.3.3,0,0,1,.345.012l19.893,15.515a.294.294,0,0,1,.05.413.292.292,0,0,1-.065.061l-34.3,23.475,40.9-12.911a.294.294,0,0,1,.367.191c0,.011.006.022.009.032l5.468,27.526a.3.3,0,0,1-.046.224.292.292,0,0,1-.193.123,304.308,304.308,0,0,1-32.26,3.343Q-1343.63,6364.04-1347.769,6364.04Zm8.764-57.6c-2.583,1.764-32.452,22.4-40.141,38.1-2.2,4.5-2.233,8.246-.083,11.129,10.352,13.88,67.427,5.042,72.1,4.291l-5.344-26.906-42.472,13.408a.294.294,0,0,1-.367-.194.293.293,0,0,1,.114-.329l35.6-24.366Z" fill="#091135"/><path d="M-1361.16,6277.355c6.689-1.833,12.59,6.811,5.816,17.68s-14.76,17.2-22.345,19.081c-4.95,1.231-21.945-8.875-21.945-8.875s-5.622,1.468-9.351-.984c-3.114-2.047-3.5-7.224,1.782-10.172,4.937-2.755,23.5,4.024,26.775,1.33,2.509-2.065,5.876-6.49,9.986-10.664,3.27-3.322,5.9-6.466,9.282-7.4Z" fill="#fff" fill-rule="evenodd"/><path d="M-1378.639,6314.514c-5.721,0-19.572-8.088-21.041-8.956-.866.206-5.93,1.272-9.466-1.053a5.36,5.36,0,0,1-2.409-4.714c.085-2.343,1.619-4.515,4.209-5.96,2.624-1.463,8.737-.369,14.649.689,5.208.933,10.595,1.9,12.083.671a51.688,51.688,0,0,0,4.966-5.2c1.492-1.689,3.182-3.6,5-5.448.458-.466.9-.927,1.342-1.381,2.728-2.829,5.083-5.271,8.073-6.091h0a6.7,6.7,0,0,1,7.347,2.6c2.229,2.991,3.084,8.639-1.2,15.519-6.474,10.388-14.473,17.21-22.524,19.211A4.289,4.289,0,0,1-1378.639,6314.514Zm-21-9.563a.289.289,0,0,1,.15.041c.169.1,16.941,10.028,21.724,8.842,7.9-1.963,15.775-8.693,22.167-18.951,4.132-6.629,3.345-12.022,1.231-14.858a6.136,6.136,0,0,0-6.72-2.383h0c-2.834.777-5.138,3.166-7.806,5.932q-.656.682-1.344,1.386c-1.8,1.832-3.489,3.74-4.976,5.424a52.011,52.011,0,0,1-5.033,5.26c-1.7,1.4-6.73.5-12.56-.546-5.539-.992-11.816-2.116-14.259-.754-2.407,1.343-3.831,3.336-3.908,5.469a4.774,4.774,0,0,0,2.144,4.2c3.574,2.351,9.061.96,9.115.945a.316.316,0,0,1,.08-.011Z" fill="#091135"/><path d="M-1360.373,6277.184c6.9-.7,14.08,3.452,9.81,15.527-2.53,7.149-9.492,12.692-9.492,12.692l-13.928-18.592s7.882-9.046,13.612-9.627Z" fill="#fff" fill-rule="evenodd"/><path d="M-1360.057,6305.7h-.037a.292.292,0,0,1-.2-.115l-13.928-18.592a.3.3,0,0,1,.013-.368c.325-.374,8.026-9.141,13.8-9.727,4.024-.409,7.6.844,9.575,3.351,1.568,2,2.935,5.8.541,12.565-2.528,7.147-9.516,12.768-9.586,12.824A.285.285,0,0,1-1360.057,6305.7Zm-13.55-18.87,13.6,18.153c1.227-1.036,6.953-6.115,9.166-12.367,1.824-5.16,1.669-9.312-.449-12.007-1.845-2.348-5.23-3.519-9.053-3.129h0c-5.113.518-12.126,8.089-13.262,9.351Zm13.233-9.643" fill="#091135"/><path d="M-1406.109,6293.726c.177-.208-9.387,2.507-11.466,1.921s-1.387,2.872,2.1,3.458c3.8.641,4.741-.346,6.736-.748" fill="#fff" fill-rule="evenodd"/><path d="M-1413.235,6299.611a13.825,13.825,0,0,1-2.3-.214,4.226,4.226,0,0,1-3.409-2.49,1.288,1.288,0,0,1,.17-1.325,1.2,1.2,0,0,1,1.272-.216c1.42.4,6.908-.913,9.545-1.545,1.959-.47,1.961-.47,2.094-.253a.3.3,0,0,1-.029.351.3.3,0,0,1-.283.1c-.209.032-.908.2-1.644.376-4,.959-8.394,1.948-9.842,1.54-.322-.091-.565-.072-.687.056a.763.763,0,0,0-.037.734,3.631,3.631,0,0,0,2.949,2.095,9.07,9.07,0,0,0,5.153-.334,12.567,12.567,0,0,1,1.474-.412.294.294,0,0,1,.356.215.294.294,0,0,1-.216.356l-.024,0a12.1,12.1,0,0,0-1.409.4A9.1,9.1,0,0,1-1413.235,6299.611Z" fill="#091135"/><path d="M-1308.235,6303.652c-.365,21.674-9.507,20.469-10.577,46.386s-2.05,36.9-2.05,36.9l-27.867-5.87s-4.017-28.1,4.195-55.591c7.5-25.11,26.45-42.2,26.45-42.2a24.161,24.161,0,0,1,9.851,20.378Z" fill="#fff" fill-rule="evenodd"/><path d="M-1320.863,6387.227a.312.312,0,0,1-.06-.006l-27.868-5.869a.3.3,0,0,1-.23-.246c-.04-.281-3.931-28.479,4.2-55.717,7.438-24.9,26.344-42.162,26.535-42.333a.3.3,0,0,1,.354-.03,24.66,24.66,0,0,1,9.986,20.631l-.294-.005.294.005c-.177,10.574-2.437,15.742-4.829,21.214-2.556,5.847-5.2,11.893-5.749,25.18-1.06,25.626-2.041,36.8-2.051,36.909a.294.294,0,0,1-.293.268Zm-27.6-6.408,27.339,5.758c.168-2.018,1.062-13.362,2.021-36.551.554-13.4,3.22-19.5,5.8-25.391,2.368-5.416,4.6-10.531,4.781-20.989h0a24.156,24.156,0,0,0-9.529-20c-1.9,1.778-19.182,18.428-26.2,41.909-7.738,25.9-4.552,52.671-4.215,55.264Z" fill="#091135"/><path d="M-1367.815,6271.333l11.681,3.564-8.358,7.162-6.2-6.243,2.871-4.482Z" fill="#fff" fill-rule="evenodd"/><path d="M-1364.492,6282.353a.3.3,0,0,1-.208-.087l-6.194-6.244a.294.294,0,0,1-.039-.365l2.871-4.481a.3.3,0,0,1,.332-.123l11.682,3.564a.293.293,0,0,1,.19.37.289.289,0,0,1-.085.13l-8.359,7.161A.287.287,0,0,1-1364.492,6282.353Zm-5.82-6.578,5.836,5.884,7.745-6.636-10.958-3.344Z" fill="#091135"/><path d="M-1376.521,6276.172h-.021l-2.081-.148a.293.293,0,0,1-.273-.312l0-.019.473-3.669a.3.3,0,0,1,.33-.253.3.3,0,0,1,.232.176l1.607,3.818a.293.293,0,0,1-.157.385.277.277,0,0,1-.114.023Zm-1.75-.713,1.293.092-1-2.373Z" fill="#091135"/><path d="M-1374.247,6263.979c-2.634.211-4.515,3.561-4.2,7.474s2.707,6.92,5.34,6.708,4.515-3.561,4.2-7.475-2.707-6.919-5.341-6.708Z" fill="#fff" fill-rule="evenodd"/><path d="M-1373.367,6278.467c-2.678,0-5.058-3.055-5.375-6.989-.326-4.071,1.679-7.566,4.471-7.79h0a4.444,4.444,0,0,1,3.793,1.917,9.368,9.368,0,0,1,1.864,5.06c.326,4.072-1.679,7.568-4.47,7.792C-1373.179,6278.463-1373.274,6278.467-1373.367,6278.467Zm-.618-14.2a1.974,1.974,0,0,0-.239.01h0c-2.469.2-4.232,3.409-3.931,7.157s2.564,6.645,5.023,6.44,4.233-3.41,3.932-7.159a8.776,8.776,0,0,0-1.737-4.741,3.983,3.983,0,0,0-3.048-1.71Zm-.262-.283" fill="#091135"/><path d="M-1384.234,6264.32c-.26,3.236,1.836,6.048,4.678,6.277s5.359-2.214,5.619-5.452-1.837-6.05-4.679-6.277-5.359,2.214-5.619,5.452Z" fill="#091135" fill-rule="evenodd"/><path d="M-1376.958,6272.369c.05.544.292.968.543.946s.415-.484.365-1.029-.292-.968-.544-.946-.414.484-.364,1.028Z" fill="#091135" fill-rule="evenodd"/><path d="M-1368.723,6262.006c-2.212-.4-4.266.721-4.584,2.494s1.22,3.533,3.434,3.93,4.268-.721,4.585-2.494-1.221-3.535-3.436-3.93Z" fill="#091135" fill-rule="evenodd"/><path d="M-1371.905,6253.727c-3.346-.684-6.452,1.233-6.932,4.264s1.845,6.041,5.192,6.72,6.455-1.233,6.934-4.264-1.847-6.045-5.195-6.72Z" fill="#091135" fill-rule="evenodd"/><path d="M-1362.54,6262.285c-3.347-.684-6.452,1.232-6.933,4.264s1.845,6.041,5.192,6.72,6.455-1.233,6.934-4.265-1.846-6.044-5.195-6.719Z" fill="#091135" fill-rule="evenodd"/><path d="M-1364.3,6256.434c-3.347-.684-6.452,1.233-6.933,4.264s1.846,6.041,5.193,6.72,6.454-1.233,6.934-4.264-1.847-6.044-5.2-6.72Z" fill="#091135" fill-rule="evenodd"/><path d="M-1362.651,6250.056c-3.347-.684-6.452,1.233-6.933,4.264s1.845,6.041,5.192,6.72,6.455-1.233,6.934-4.264-1.846-6.044-5.195-6.72Z" fill="#091135" fill-rule="evenodd"/><path d="M-1357.3,6255.686c-3.346-.684-6.452,1.232-6.932,4.264s1.845,6.041,5.192,6.72,6.455-1.233,6.934-4.265-1.847-6.044-5.195-6.719Z" fill="#091135" fill-rule="evenodd"/><path d="M-1357.3,6258.77c-3.346-.684-6.452,1.233-6.932,4.264s1.845,6.041,5.192,6.72,6.455-1.233,6.934-4.264-1.847-6.045-5.195-6.72Z" fill="#091135" fill-rule="evenodd"/><path d="M-1366.355,6248.1c-3.346-.683-6.452,1.233-6.932,4.265s1.845,6.041,5.192,6.719,6.455-1.232,6.934-4.264-1.847-6.044-5.195-6.72Z" fill="#091135" fill-rule="evenodd"/><path d="M-1357.869,6246.772c-3.346-.683-6.452,1.233-6.932,4.265s1.845,6.04,5.192,6.719,6.455-1.233,6.934-4.264-1.847-6.044-5.195-6.72Z" fill="#091135" fill-rule="evenodd"/><path d="M-1350.782,6251.449c-3.347-.683-6.452,1.233-6.933,4.265s1.845,6.041,5.192,6.719,6.455-1.232,6.934-4.264-1.846-6.044-5.2-6.72Z" fill="#091135" fill-rule="evenodd"/><path d="M-1351.42,6259.313c-2.393-.467-4.613.841-4.957,2.91s1.319,4.123,3.713,4.587,4.616-.842,4.958-2.911-1.32-4.125-3.715-4.586Z" fill="#091135" fill-rule="evenodd"/><path d="M-1373.757,6261.8a4.185,4.185,0,0,0-4.383,3.976,4.185,4.185,0,0,0,3.976,4.384,4.185,4.185,0,0,0,4.379-3.9A4.225,4.225,0,0,0-1373.757,6261.8Z" fill="#091135" fill-rule="evenodd"/><path d="M-1372.69,6260.762c-1.169-.182-2.362,1.237-2.663,3.169s.4,3.647,1.572,3.829,2.362-1.237,2.663-3.169S-1371.517,6260.944-1372.69,6260.762Z" fill="#091135" fill-rule="evenodd"/><path d="M-1372.057,6265.729c-1.361,1.1-1.383,3.336-.048,4.979s3.522,2.081,4.882.976,1.383-3.336.048-4.98S-1370.7,6264.623-1372.057,6265.729Z" fill="#091135" fill-rule="evenodd"/><path d="M-1369.815,6268.825a2.628,2.628,0,0,0-2.938,2.277,2.626,2.626,0,0,0,2.276,2.937,2.628,2.628,0,0,0,2.938-2.276,2.618,2.618,0,0,0,.013-.538A2.371,2.371,0,0,0-1369.815,6268.825Z" fill="#fff" fill-rule="evenodd"/><path d="M-1369.542,6274.252a2.706,2.706,0,0,1-2.446-2.673,3.177,3.177,0,0,1,.517-2.052,2.191,2.191,0,0,1,1.632-1,2.915,2.915,0,0,1,2.6,3.2,2.918,2.918,0,0,1-2.141,2.514A1.116,1.116,0,0,1-1369.542,6274.252Zm-.136-5.14h-.114a1.617,1.617,0,0,0-1.2.743,2.588,2.588,0,0,0-.415,1.672,1.85,1.85,0,0,0,1.539,2.113,1.849,1.849,0,0,0,2.113-1.538,1.865,1.865,0,0,0-.069-.862,2.126,2.126,0,0,0-1.853-2.128Zm-.137-.288" fill="#091135"/><path d="M-1362.3,6271.521s20.855,6.221,45.466,11.752l-23.456,31.351s-17.038-4.52-24.879-30.115l2.869-12.989Z" fill="#fff" fill-rule="evenodd"/><path d="M-1340.289,6314.918a.24.24,0,0,1-.075-.01,28.015,28.015,0,0,1-9.611-5.517c-4.812-3.976-11.4-11.5-15.473-24.8a.293.293,0,0,1-.006-.15l2.868-12.988a.3.3,0,0,1,.353-.223l.019,0c.208.062,21.127,6.282,45.446,11.747a.293.293,0,0,1,.223.349.28.28,0,0,1-.053.114l-23.456,31.351A.289.289,0,0,1-1340.289,6314.918Zm-24.575-30.421c7.273,23.647,22.592,29.192,24.463,29.788l23.062-30.824c-22.56-5.087-42.094-10.789-44.74-11.569Z" fill="#091135"/><path d="M-1360.073,6282.768c-2.94-6.422,4.469-13.256,16.5-8.229s20.282,12.4,23.421,19.714c2.7,6.295-3.664,21.15-5.565,30.241-.776,3.715.005-2.772,2.124-.1.651.819.413,3.97-2.187,4.914-2.281.828-6.622-.1-10.452-4.933-3.579-4.51,1.056-21.13-2.188-23.977-2.488-2.182-7.878-5.124-12.748-8.57-3.875-2.742-7.419-5.8-8.908-9.055Z" fill="#fff" fill-rule="evenodd"/><path d="M-1327.454,6329.868c-2.559,0-6-1.521-9-5.315-1.914-2.411-1.58-7.931-1.255-13.269.279-4.614.568-9.385-.9-10.671a57.934,57.934,0,0,0-6.321-4.338c-2-1.267-4.271-2.7-6.4-4.212-4.851-3.433-7.712-6.347-9-9.173h0a6.589,6.589,0,0,1,1.24-7.563c2.528-2.615,7.965-4.266,15.643-1.059,11.654,4.866,20.248,12.108,23.578,19.869,1.942,4.526-.7,13.388-3.038,21.207-.891,2.984-1.737,5.82-2.309,8.3a1.127,1.127,0,0,1,.174-.1c.382-.186.986-.22,1.692.669a3.2,3.2,0,0,1,.2,2.6,4.039,4.039,0,0,1-2.515,2.771A5.212,5.212,0,0,1-1327.454,6329.868Zm-23.955-56.782a9.938,9.938,0,0,0-7.269,2.649,6.021,6.021,0,0,0-1.127,6.91h0c1.248,2.727,4.047,5.567,8.81,8.938,2.12,1.5,4.382,2.932,6.377,4.2a57.827,57.827,0,0,1,6.4,4.394c1.681,1.475,1.409,5.958,1.1,11.147-.3,4.984-.644,10.633,1.129,12.868,3.6,4.542,7.771,5.691,10.122,4.84a3.464,3.464,0,0,0,2.15-2.378,2.712,2.712,0,0,0-.094-2.076c-.231-.294-.573-.625-.891-.538-.378.1-.679.694-.85,1.146-.171.753-.234.784-.44.787h0a.3.3,0,0,1-.287-.228,2.043,2.043,0,0,1,.165-.726c.035-.154.077-.344.127-.58.566-2.708,1.515-5.89,2.521-9.258,2.306-7.723,4.918-16.478,3.061-20.808-3.27-7.621-11.749-14.75-23.264-19.559a20.158,20.158,0,0,0-7.735-1.728Z" fill="#091135"/><path d="M-1360.462,6282.668c-1.836-6.82,1.16-14.717,14-12.406,7.6,1.37,14.315,7.46,14.315,7.46l-16.4,17.049s-10.385-6.439-11.909-12.1Z" fill="#fff" fill-rule="evenodd"/><path d="M-1348.553,6295.066a.3.3,0,0,1-.155-.045c-.428-.265-10.5-6.566-12.038-12.277h0c-1.07-3.977-.4-7.779,1.8-10.168,1.748-1.9,5.342-3.9,12.536-2.6,7.6,1.369,14.393,7.47,14.46,7.531a.293.293,0,0,1,.019.415l-.005.006-16.4,17.05A.293.293,0,0,1-1348.553,6295.066Zm-2.142-24.917c-3.437,0-6.1.953-7.821,2.824-2.059,2.241-2.68,5.836-1.663,9.619h0c1.361,5.059,10.137,10.875,11.581,11.8l16.023-16.654c-1.233-1.055-7.284-5.99-13.942-7.189a23.747,23.747,0,0,0-4.178-.4Z" fill="#091135"/></g></g></svg>