<svg xmlns="http://www.w3.org/2000/svg" width="177.183" height="172.975" viewBox="0 0 177.183 172.975"><g transform="translate(1103.387 -6242.559)"><g opacity="0.04"><path d="M-989,6299.579h-44.2v-57.02H-989Z" fill="#4848ff" fill-rule="evenodd"/></g><g opacity="0.06"><path d="M-1027.887,6247.972v46.264h33.575v-46.264h-33.575m-5.31-5.31H-989v56.884h-44.2Z" fill="#4848ff"/></g><path d="M-960.162,6307.814l4.5,11.992-11.3-2.373,1.233-9.141,5.562-.479Z" fill="#fff" fill-rule="evenodd"/><path d="M-955.659,6320.124a.32.32,0,0,0,.242-.111.319.319,0,0,0,.056-.32l-4.5-11.993a.321.321,0,0,0-.326-.205l-5.561.479a.321.321,0,0,0-.289.275l-1.232,9.142a.318.318,0,0,0,.25.354l11.3,2.373A.33.33,0,0,0-955.659,6320.124Zm-4.716-11.973,4.214,11.223-10.44-2.192,1.159-8.594Z" fill="#091135"/><path d="M-970.466,6307.479a.307.307,0,0,0,.124-.025.315.315,0,0,0,.191-.246l.648-4.294a.317.317,0,0,0-.187-.339.319.319,0,0,0-.376.092l-2.429,3.024a.319.319,0,0,0-.067.243.32.32,0,0,0,.131.216l1.781,1.27A.312.312,0,0,0-970.466,6307.479Zm.156-3.492-.394,2.612-1.084-.772Z" fill="#091135"/><path d="M-961.926,6297.753c-2.472-1.25-5.989.72-7.847,4.394s-1.359,7.675,1.113,8.925,5.989-.72,7.847-4.4S-959.454,6299-961.926,6297.753Z" fill="#fff" fill-rule="evenodd"/><path d="M-967.036,6311.769a5.536,5.536,0,0,0,2.686-.77,9.85,9.85,0,0,0,3.822-4.178c1.935-3.829,1.373-8.024-1.254-9.353a4.668,4.668,0,0,0-4.453.357,9.85,9.85,0,0,0-3.822,4.178,9.856,9.856,0,0,0-1.1,5.555,4.674,4.674,0,0,0,2.353,3.8A3.881,3.881,0,0,0-967.036,6311.769Zm3.487-14.074a3.235,3.235,0,0,1,1.48.343h0c2.313,1.169,2.749,4.981.972,8.5a9.208,9.208,0,0,1-3.565,3.91,4.063,4.063,0,0,1-3.854.344,4.061,4.061,0,0,1-2.008-3.308,9.216,9.216,0,0,1,1.036-5.188,9.207,9.207,0,0,1,3.564-3.91,4.9,4.9,0,0,1,2.375-.692Zm1.624.059" fill="#091135"/><path d="M-968.938,6303.78c-.253.514-.267,1.027-.03,1.144s.634-.207.888-.721.268-1.026.031-1.143-.635.205-.89.72Z" fill="#091135" fill-rule="evenodd"/><path d="M-955.072,6300.635c-.235-2.851-2.281-5.012-4.564-4.823s-3.948,2.655-3.716,5.51,2.281,5.012,4.566,4.823,3.947-2.657,3.715-5.51Z" fill="#091135" fill-rule="evenodd"/><path d="M-959.3,6299.288c1.869,2.157,4.79,2.691,6.517,1.193s1.613-4.464-.257-6.626-4.789-2.69-6.518-1.191-1.611,4.465.257,6.625Z" fill="#091135" fill-rule="evenodd"/><path d="M-960.295,6296.071a4.435,4.435,0,0,0-6.186,1,4.433,4.433,0,0,0,1.117,6.166,4.43,4.43,0,0,0,6.185-1A4.432,4.432,0,0,0-960.295,6296.071Z" fill="#091135" fill-rule="evenodd"/><path d="M-958.773,6295.724c-.947-.8-2.792-.182-4.117,1.381s-1.632,3.484-.685,4.288,2.791.182,4.117-1.38,1.632-3.486.685-4.288Z" fill="#091135" fill-rule="evenodd"/><path d="M-960.923,6300.517c-1.821.246-3.061,2.229-2.764,4.432s2.015,3.787,3.838,3.542,3.061-2.23,2.764-4.432S-959.1,6300.271-960.923,6300.517Z" fill="#091135" fill-rule="evenodd"/><path d="M-960.608,6304.513a2.488,2.488,0,0,0-3.175,1.417,2.487,2.487,0,0,0,.74,3.4,2.485,2.485,0,0,0,3.174-1.418,2.485,2.485,0,0,0-.739-3.4Z" fill="#fff" fill-rule="evenodd"/><path d="M-962.208,6309.842a2.524,2.524,0,0,0,1.035-.23,3.334,3.334,0,0,0,1.588-1.56,2.8,2.8,0,0,0-.879-3.825h0a2.8,2.8,0,0,0-3.6,1.558,2.8,2.8,0,0,0,.88,3.826A2.146,2.146,0,0,0-962.208,6309.842Zm1.457-5.046a2.176,2.176,0,0,1,.6,2.969,2.693,2.693,0,0,1-1.279,1.265,1.682,1.682,0,0,1-1.466.013,2.176,2.176,0,0,1-.6-2.97,2.178,2.178,0,0,1,2.747-1.277Z" fill="#091135"/><path d="M-963.531,6366.689s-22.268,9.758-40,4.414c-20.972-6.323-22.842-10.43-34.324-8.42-24.949,4.365-33.979,7.973-33.979,7.973l-13.343-21.924s16.041-11.9,50.644-20.273c18.835-4.557,55.1,29.719,55.1,29.719l15.9,8.514Z" fill="#fff" fill-rule="evenodd"/><path d="M-991.809,6373.006c14.447,0,28.23-5.948,28.406-6.025a.317.317,0,0,0,.19-.279.318.318,0,0,0-.168-.293l-15.86-8.5a205.669,205.669,0,0,0-20.492-16.567c-15.235-10.67-26.967-15.109-34.871-13.2-34.269,8.29-50.6,20.208-50.759,20.328a.319.319,0,0,0-.083.421l13.343,21.925a.32.32,0,0,0,.391.13c.09-.037,9.3-3.649,33.914-7.955,7.441-1.3,10.786-.01,18.113,2.819,3.935,1.52,8.832,3.411,16.065,5.592A41.032,41.032,0,0,0-991.809,6373.006Zm27.535-6.354c-3.707,1.5-23.379,8.9-39.161,4.145-7.209-2.174-12.094-4.061-16.019-5.576-7.44-2.874-10.836-4.185-18.452-2.853-22.468,3.93-32.156,7.292-33.789,7.894l-13.052-21.446c2.115-1.478,18.386-12.334,50.292-20.051,18.45-4.461,54.445,29.3,54.807,29.642a.314.314,0,0,0,.069.048Z" fill="#091135"/><path d="M-1060.489,6357.928l-18.094,15.987-20.865-25.629,11.59.769,18.242-8.262,9.127,17.136Z" fill="#fff" fill-rule="evenodd"/><path d="M-1078.583,6374.233a.314.314,0,0,0,.211-.08l18.094-15.987a.317.317,0,0,0,.07-.389l-9.127-17.136a.32.32,0,0,0-.413-.14l-18.169,8.229-11.51-.764a.322.322,0,0,0-.3.171.32.32,0,0,0,.036.348l20.865,25.629a.318.318,0,0,0,.221.116Zm17.694-16.377-17.657,15.6-20.194-24.8,10.86.721a.348.348,0,0,0,.153-.028l17.97-8.139Z" fill="#091135"/><path d="M-947.871,6345.744s4.126,16.775-8.47,37.135c-4.013,6.488-8.945,4.391-11.322,4.578s3.585-41.5,3.585-41.5,16.184.234,16.207-.216Z" fill="#fff" fill-rule="evenodd"/><path d="M-964.1,6387.955c2.444,0,5.434-.716,8.027-4.91,12.522-20.239,8.55-37.209,8.509-37.379a.316.316,0,0,0-.339-.241.322.322,0,0,0-.176.074c-.95.257-10.258.223-16,.141a.31.31,0,0,0-.32.273c-.014.1-1.424,9.976-2.585,19.969-2.367,20.358-1.442,21.343-1.094,21.714a.524.524,0,0,0,.435.178,10.12,10.12,0,0,1,1.6.07C-965.451,6387.9-964.8,6387.955-964.1,6387.955Zm15.984-41.817c.473,2.41,2.933,18.094-8.5,36.572-3.128,5.059-6.735,4.735-9.369,4.5a11.228,11.228,0,0,0-1.651-.074c-1.24-1.516,1.666-25.675,3.829-40.854.987.013,4.42.055,7.819.057A71.774,71.774,0,0,0-948.114,6346.138Zm-.076-.413,0,0" fill="#091135"/><path d="M-971.425,6328.514c-2.515-6.825,10.709-17.721,17.841-6.339,6.284,10.029,6.853,25.834,6.853,25.834s-13.278-.274-16.386-3.453c-4.278-4.375-5.434-8.243-8.307-16.042Z" fill="#fff" fill-rule="evenodd"/><path d="M-946.733,6348.328a.317.317,0,0,0,.227-.1.315.315,0,0,0,.091-.235c-.006-.159-.644-16.007-6.9-25.993-3.045-4.86-7.7-6.369-12.446-4.037-4.045,1.985-7.407,6.741-5.964,10.656q.378,1.025.719,1.961c2.391,6.545,3.708,10.152,7.659,14.192,3.163,3.234,16.06,3.537,16.608,3.548Zm-14.718-30.786c2.934,0,5.622,1.651,7.6,4.8,5.66,9.033,6.658,22.987,6.788,25.337-2.089-.071-13.114-.576-15.823-3.346-3.856-3.943-5.156-7.5-7.516-13.966q-.344-.94-.72-1.964h0c-1.2-3.255,1.387-7.772,5.647-9.864a9.128,9.128,0,0,1,4.024-1Z" fill="#091135"/><path d="M-963.535,6363.263s-22.268,9.757-40,4.411c-20.972-6.321-22.877-16.51-33.944-12.849-30.91,10.225-32.111,12.356-32.111,12.356l-13.343-21.926s13.794-11.856,48.4-20.226c18.835-4.557,55.1,29.717,55.1,29.717l15.9,8.516Z" fill="#fff" fill-rule="evenodd"/><path d="M-991.807,6369.58c14.446,0,28.229-5.947,28.4-6.024a.318.318,0,0,0,.19-.279.318.318,0,0,0-.168-.293l-15.86-8.5a205.591,205.591,0,0,0-20.492-16.566c-15.235-10.67-26.967-15.11-34.871-13.2-34.281,8.292-48.391,20.175-48.529,20.293a.322.322,0,0,0-.065.409l13.343,21.925a.32.32,0,0,0,.273.153h.005a.316.316,0,0,0,.255-.134c.125-.139,2.616-2.535,31.95-12.238,5.928-1.961,9.092.1,14.334,3.521a68.419,68.419,0,0,0,19.419,9.33A41.032,41.032,0,0,0-991.807,6369.58Zm27.534-6.353c-3.706,1.5-23.38,8.9-39.161,4.144a67.89,67.89,0,0,1-19.255-9.254c-5.217-3.4-8.663-5.649-14.882-3.593-25.025,8.278-30.662,11.27-31.93,12.18l-13.007-21.374c1.858-1.483,16.186-12.28,48.055-19.988,18.45-4.462,54.445,29.3,54.807,29.639a.32.32,0,0,0,.069.049Z" fill="#091135"/><path d="M-1024.828,6290.524l5.457,3.2,2.191,31.6-5.457-3.2-2.192-31.6Z" fill="#4848ff" fill-rule="evenodd"/><path d="M-1017.18,6325.637a.308.308,0,0,0,.168-.048.316.316,0,0,0,.15-.292l-2.191-31.6a.319.319,0,0,0-.157-.253l-5.457-3.2a.323.323,0,0,0-.329,0,.32.32,0,0,0-.15.293l2.192,31.6a.32.32,0,0,0,.156.252l5.457,3.2A.307.307,0,0,0-1017.18,6325.637Zm-2.5-31.727,2.138,30.828-4.791-2.807-2.138-30.828Z" fill="#091135"/><path d="M-1023.858,6324l1.008-1.727,27.361,15.955-1.007,1.728L-1023.859,6324Z" fill="#fff" fill-rule="evenodd"/><path d="M-996.5,6340.269a.3.3,0,0,0,.081-.011.317.317,0,0,0,.194-.148l1.007-1.728a.318.318,0,0,0-.113-.435h0l-27.361-15.955a.319.319,0,0,0-.436.113l-1.008,1.727a.328.328,0,0,0-.033.243.322.322,0,0,0,.148.194l27.363,15.956A.326.326,0,0,0-996.5,6340.269Zm.571-1.932-.686,1.177-26.812-15.634.687-1.177Z" fill="#091135"/><path d="M-954.91,6317.845a49.737,49.737,0,0,1-7.836,46.9l-32.158-18.906s19.986-23.115,26.143-29.666l13.851,1.667Z" fill="#fff" fill-rule="evenodd"/><path d="M-962.746,6365.069a.316.316,0,0,0,.254-.126,50.591,50.591,0,0,0,10.608-32.367,46.094,46.094,0,0,0-2.732-14.852.32.32,0,0,0-.256-.194l-13.851-1.668a.331.331,0,0,0-.27.1c-6.091,6.479-25.953,29.444-26.152,29.675a.318.318,0,0,0-.074.26.324.324,0,0,0,.153.223l32.158,18.906A.317.317,0,0,0-962.746,6365.069Zm7.61-46.929a46.354,46.354,0,0,1,2.617,14.48,49.946,49.946,0,0,1-10.309,31.712l-31.584-18.569c2.314-2.673,19.948-23.03,25.775-29.249Z" fill="#091135"/><path d="M-966.609,6323.809c6.906-2.287,11.853,5.472,6.568,17.82-5.814,13.585-12.588,20.078-20.2,23.121-4.029,1.612-10.991-.683-17.355-13.26-3.19-6.3-3.117-11.1-5.47-15.781-.508-1.006-5.417-2.037-6.745-7.363-.813-3.266,4.258-1.577,9.915.016,10.862,3.058,12.014,18.763,15.294,15.762,2.514-2.3,3.649-7.617,7.725-12.214,3.242-3.658,6.775-6.942,10.27-8.1Z" fill="#fff" fill-rule="evenodd"/><path d="M-982.643,6365.513a6.766,6.766,0,0,0,2.519-.468c8.566-3.424,15.04-10.825,20.375-23.291,3.585-8.378,2.33-14.119-.04-16.7a6.322,6.322,0,0,0-6.921-1.55h0c-3.041,1.007-6.348,3.61-10.408,8.191a33.056,33.056,0,0,0-4.709,7.462,16.8,16.8,0,0,1-2.992,4.728c-.378.345-.616.3-.7.287-.772-.144-1.646-1.9-2.657-3.924-2.06-4.13-5.173-10.375-11.641-12.2l-1.254-.355c-4.237-1.207-7.584-2.162-8.744-1.039a1.732,1.732,0,0,0-.312,1.762c.984,3.949,3.864,5.61,5.584,6.6a4.076,4.076,0,0,1,1.186.827,32.511,32.511,0,0,1,2.242,6.624,43.037,43.037,0,0,0,3.228,9.157C-992.648,6361.977-986.871,6365.513-982.643,6365.513Zm18.386-41.788a5.286,5.286,0,0,1,4,1.762c2.235,2.433,3.389,7.917-.076,16.017-5.264,12.3-11.628,19.593-20.027,22.951-3.96,1.587-10.774-.9-16.953-13.108a41.969,41.969,0,0,1-3.18-9.031,32.951,32.951,0,0,0-2.289-6.749c-.187-.37-.684-.658-1.436-1.092-1.633-.942-4.365-2.521-5.285-6.207-.137-.551-.091-.928.138-1.149.9-.867,4.572.181,8.125,1.193l1.256.356c6.2,1.745,9.234,7.836,11.244,11.868,1.177,2.359,2.026,4.064,3.112,4.266a1.429,1.429,0,0,0,1.241-.443,17.207,17.207,0,0,0,3.131-4.912,32.487,32.487,0,0,1,4.617-7.326c3.982-4.493,7.2-7.039,10.132-8.009h0A7.17,7.17,0,0,1-964.257,6323.725Z" fill="#091135"/><path d="M-967.366,6322.407c7.084-1.652,15.108,1.706,12.282,14.838-1.674,7.776-8.173,14.474-8.173,14.474l-16.98-17.475S-973.249,6323.78-967.366,6322.407Z" fill="#fff" fill-rule="evenodd"/><path d="M-963.262,6352.038h0a.315.315,0,0,0,.229-.1c.065-.067,6.583-6.853,8.256-14.628,1.585-7.367-.347-11.141-2.247-13.008-2.388-2.347-6.283-3.173-10.419-2.208h0c-5.937,1.386-12.776,11.539-13.064,11.971a.321.321,0,0,0,.036.4l16.98,17.474A.317.317,0,0,0-963.262,6352.038Zm-.845-29.7a9.325,9.325,0,0,1,6.637,2.421c2.561,2.519,3.277,6.813,2.071,12.42-1.46,6.786-6.715,12.819-7.867,14.078l-16.565-17.048c1.028-1.484,7.3-10.269,12.533-11.492h0a14.126,14.126,0,0,1,3.19-.378Z" fill="#091135"/><path d="M-953.461,6376.358a2.857,2.857,0,0,1,1.045-3.9,2.858,2.858,0,0,1,3.9,1.045l21.609,37.43a2.856,2.856,0,0,1-1.045,3.9,2.856,2.856,0,0,1-3.9-1.044l-21.611-37.431Z" fill="#fff" fill-rule="evenodd"/><path d="M-929.372,6415.534a3.15,3.15,0,0,0,1.58-.425,3.146,3.146,0,0,0,1.478-1.927,3.145,3.145,0,0,0-.317-2.408l-21.609-37.429a3.155,3.155,0,0,0-1.927-1.479,3.147,3.147,0,0,0-2.408.316,3.179,3.179,0,0,0-1.161,4.335h0l21.611,37.43A3.176,3.176,0,0,0-929.372,6415.534Zm-21.622-43.14a2.54,2.54,0,0,1,.662.088,2.519,2.519,0,0,1,1.541,1.182l21.609,37.429a2.519,2.519,0,0,1,.253,1.924,2.52,2.52,0,0,1-1.181,1.541,2.54,2.54,0,0,1-3.464-.928l-21.611-37.431a2.541,2.541,0,0,1,.929-3.464A2.526,2.526,0,0,1-950.994,6372.394Zm-2.466,3.964" fill="#091135"/><path d="M-1071.766,6372.9a2.854,2.854,0,0,1,1.044-3.9h0a2.853,2.853,0,0,1,3.9,1.043v0l23.608,40.889a2.856,2.856,0,0,1-1.045,3.9,2.857,2.857,0,0,1-3.9-1.044l-23.607-40.891Z" fill="#fff" fill-rule="evenodd"/><path d="M-1045.687,6415.533a3.152,3.152,0,0,0,1.581-.423,3.177,3.177,0,0,0,1.162-4.335l-23.608-40.89a3.151,3.151,0,0,0-1.929-1.479,3.149,3.149,0,0,0-2.406.317,3.156,3.156,0,0,0-1.478,1.927,3.154,3.154,0,0,0,.317,2.408l23.608,40.891A3.176,3.176,0,0,0-1045.687,6415.533Zm-23.619-46.6a2.572,2.572,0,0,1,.66.087,2.518,2.518,0,0,1,1.542,1.182l23.608,40.89a2.539,2.539,0,0,1-.928,3.465,2.54,2.54,0,0,1-3.464-.928l-23.607-40.891h0a2.518,2.518,0,0,1-.253-1.924,2.526,2.526,0,0,1,1.181-1.54,2.516,2.516,0,0,1,1.264-.341Z" fill="#091135"/><path d="M-1000.84,6377.4a2.857,2.857,0,0,0-1.045-3.9,2.856,2.856,0,0,0-3.9,1.046l-21.008,36.384a2.859,2.859,0,0,0,1.045,3.9,2.859,2.859,0,0,0,3.9-1.044l21.006-36.385Z" fill="#fff" fill-rule="evenodd"/><path d="M-1024.325,6415.533a3.174,3.174,0,0,0,2.754-1.586l21.006-36.385h0a3.179,3.179,0,0,0-1.161-4.336,3.177,3.177,0,0,0-4.334,1.164l-21.008,36.38a3.177,3.177,0,0,0,1.162,4.335A3.152,3.152,0,0,0-1024.325,6415.533Zm23.209-38.29-21.007,36.385a2.541,2.541,0,0,1-3.465.928,2.541,2.541,0,0,1-.929-3.465l21.008-36.384a2.531,2.531,0,0,1,1.54-1.182,2.524,2.524,0,0,1,1.924.252,2.541,2.541,0,0,1,.928,3.465Z" fill="#091135"/><path d="M-1074.4,6373.366a2.858,2.858,0,0,0-1.046-3.9,2.857,2.857,0,0,0-3.9,1.044l-23.338,40.423a2.858,2.858,0,0,0,1.045,3.9,2.858,2.858,0,0,0,3.9-1.045l23.338-40.422Z" fill="#fff" fill-rule="evenodd"/><path d="M-1100.221,6415.534a3.174,3.174,0,0,0,2.754-1.586l23.339-40.423a3.147,3.147,0,0,0,.316-2.408,3.153,3.153,0,0,0-1.479-1.927,3.159,3.159,0,0,0-2.407-.317,3.158,3.158,0,0,0-1.927,1.479l-23.338,40.422a3.179,3.179,0,0,0,1.161,4.335A3.146,3.146,0,0,0-1100.221,6415.534Zm23.349-46.133a2.506,2.506,0,0,1,1.262.341,2.52,2.52,0,0,1,1.182,1.541,2.513,2.513,0,0,1-.252,1.924h0l-23.338,40.422a2.54,2.54,0,0,1-3.465.929,2.541,2.541,0,0,1-.929-3.465l23.338-40.423a2.527,2.527,0,0,1,1.54-1.181,2.566,2.566,0,0,1,.661-.088Z" fill="#091135"/><path d="M-929.755,6342.912c.2,18.187-10.227,33.822-26.886,42.948-25.372,13.9-53.237,9.972-64.852,3.374-14.465-8.22-11.3-27.031,12.023-22.143,39.053,8.185,56.173-11.9,57.3-28.694s22.242-10.653,22.411,4.515Z" fill="#4848ff" fill-rule="evenodd"/><path d="M-1103.13,6379.916a12.692,12.692,0,0,1,12.686-12.686h36.856a12.692,12.692,0,0,1,12.687,12.686,12.693,12.693,0,0,1-12.687,12.688h-36.856A12.693,12.693,0,0,1-1103.13,6379.916Z" fill="#4848ff" fill-rule="evenodd"/><g opacity="0.04"><path d="M-947.462,6278.835h-34.219v-28.487h34.219Z" fill="#4848ff" fill-rule="evenodd"/></g><g opacity="0.04"><rect width="31.567" height="34.801" transform="translate(-1070.622 6271.104)" fill="#4848ff"/><path d="M-1069.984,6271.742v33.526h30.288v-33.526h-30.292m-1.275-1.274h32.841v36.075h-32.841Z" fill="#4848ff"/></g><g opacity="0.06"><path d="M-1066.161,6275.565v25.879h22.646v-25.879h-22.646m-5.1-5.1h32.841v36.075h-32.841Z" fill="#4848ff"/></g><g opacity="0.06"><path d="M-976.371,6255.669v17.866h23.6v-17.866h-23.6m-5.31-5.311h34.219v28.486h-34.219Z" fill="#4848ff"/></g><g opacity="0.04"><path d="M-1038.565,6265.386H-1079.8V6242.8h41.236Z" fill="#4848ff" fill-rule="evenodd"/></g><g opacity="0.06"><path d="M-1074.491,6248.115v11.965h30.615v-11.965h-30.615m-5.31-5.311h41.236v22.586H-1079.8Z" fill="#4848ff"/></g><ellipse cx="1.333" cy="2" rx="1.333" ry="2" transform="translate(-963.297 6307.635)" fill="#4848ff"/></g></svg>