<svg xmlns="http://www.w3.org/2000/svg" width="187.252" height="175.5" viewBox="0 0 187.252 175.5"><g transform="translate(1441.882 -5866.635)"><g opacity="0.1"><path d="M-1254.63,5880.075a13.446,13.446,0,0,0-13.439-13.44H-1332.5a13.447,13.447,0,0,0-13.441,13.44v102.67a13.447,13.447,0,0,0,13.441,13.441h64.427a13.446,13.446,0,0,0,13.439-13.441v-102.67Z" fill="#4848ff" fill-rule="evenodd"/></g><path d="M-1331.654,5886.286a1.206,1.206,0,0,1-.834-.336l-2.735-2.628,1.669-1.737,1.865,1.791,4.367-4.564,1.742,1.666-5.2,5.438a1.207,1.207,0,0,1-.845.371Z" fill="#4848ff"/><path d="M-1266.86,5881a1.361,1.361,0,0,0-1.359-1.359h-50.093a1.36,1.36,0,0,0-1.36,1.36,1.359,1.359,0,0,0,1.36,1.359h50.093a1.359,1.359,0,0,0,1.359-1.359Z" fill="#fff" fill-rule="evenodd"/><path d="M-1284.169,5885.082a1.359,1.359,0,0,0-1.359-1.36h-32.784a1.36,1.36,0,0,0-1.36,1.36,1.36,1.36,0,0,0,1.36,1.359h32.782a1.36,1.36,0,0,0,1.359-1.359Z" fill="#fff" fill-rule="evenodd"/><path d="M-1331.654,5904.624a1.207,1.207,0,0,1-.834-.337l-2.735-2.627,1.669-1.738,1.865,1.791,4.367-4.565,1.742,1.667-5.2,5.437a1.206,1.206,0,0,1-.845.372Z" fill="#4848ff"/><path d="M-1266.86,5899.341a1.359,1.359,0,0,0-1.359-1.36h-50.093a1.359,1.359,0,0,0-1.36,1.359,1.36,1.36,0,0,0,1.36,1.36h50.093a1.36,1.36,0,0,0,1.359-1.36h0Z" fill="#fff" fill-rule="evenodd"/><path d="M-1284.169,5903.418a1.359,1.359,0,0,0-1.359-1.358h-32.784a1.36,1.36,0,0,0-1.36,1.359,1.36,1.36,0,0,0,1.36,1.36h32.782a1.36,1.36,0,0,0,1.359-1.36Z" fill="#fff" fill-rule="evenodd"/><path d="M-1266.86,5917.626a1.358,1.358,0,0,0-1.359-1.359h-50.093a1.359,1.359,0,0,0-1.36,1.359,1.36,1.36,0,0,0,1.36,1.36h50.093A1.36,1.36,0,0,0-1266.86,5917.626Z" fill="#fff" fill-rule="evenodd"/><path d="M-1329.811,5916.69a2.958,2.958,0,0,1,2.958,2.958,2.958,2.958,0,0,1-2.958,2.958,2.958,2.958,0,0,1-2.957-2.958A2.959,2.959,0,0,1-1329.811,5916.69Z" fill="#4848ff" fill-rule="evenodd"/><g opacity="0.5"><path d="M-1329.811,5915.275a4.373,4.373,0,0,1,4.374,4.373,4.373,4.373,0,0,1-4.374,4.373,4.373,4.373,0,0,1-4.373-4.373h0A4.376,4.376,0,0,1-1329.811,5915.275Zm0,.614a3.759,3.759,0,0,1,3.759,3.759,3.759,3.759,0,0,1-3.759,3.759,3.759,3.759,0,0,1-3.759-3.759h0A3.761,3.761,0,0,1-1329.811,5915.889Z" fill="#4848ff" fill-rule="evenodd"/></g><path d="M-1284.169,5921.7a1.359,1.359,0,0,0-1.359-1.359h-32.784a1.36,1.36,0,0,0-1.36,1.359,1.36,1.36,0,0,0,1.36,1.36h32.782a1.36,1.36,0,0,0,1.359-1.36h0Z" fill="#fff" fill-rule="evenodd"/><path d="M-1266.86,5935.892a1.359,1.359,0,0,0-1.359-1.359h-50.093a1.36,1.36,0,0,0-1.36,1.359,1.36,1.36,0,0,0,1.36,1.36h50.093a1.361,1.361,0,0,0,1.359-1.361Z" fill="#fff" fill-rule="evenodd"/><path d="M-1284.169,5939.971a1.359,1.359,0,0,0-1.359-1.359h-32.784a1.36,1.36,0,0,0-1.36,1.359,1.36,1.36,0,0,0,1.36,1.36h32.782a1.36,1.36,0,0,0,1.359-1.36h0Z" fill="#fff" fill-rule="evenodd"/><path d="M-1329.811,5933.226a4.373,4.373,0,0,1,4.374,4.373,4.374,4.374,0,0,1-4.374,4.374,4.373,4.373,0,0,1-4.373-4.374h0A4.375,4.375,0,0,1-1329.811,5933.226Zm0,.613a3.759,3.759,0,0,1,3.759,3.759,3.758,3.758,0,0,1-3.759,3.759,3.759,3.759,0,0,1-3.759-3.759v0a3.763,3.763,0,0,1,3.759-3.759Z" fill="#4848ff" fill-rule="evenodd"/><path d="M-1266.963,5955.9a1.359,1.359,0,0,0-1.359-1.359h-50.092a1.359,1.359,0,0,0-1.359,1.36,1.358,1.358,0,0,0,1.359,1.359h50.093a1.359,1.359,0,0,0,1.359-1.36Z" fill="#fff" fill-rule="evenodd"/><path d="M-1284.274,5959.975a1.359,1.359,0,0,0-1.359-1.36h-32.781a1.359,1.359,0,0,0-1.359,1.36,1.359,1.359,0,0,0,1.359,1.36h32.782a1.361,1.361,0,0,0,1.359-1.361Z" fill="#fff" fill-rule="evenodd"/><path d="M-1329.913,5953.227a4.373,4.373,0,0,1,4.374,4.373,4.373,4.373,0,0,1-4.373,4.374,4.374,4.374,0,0,1-4.374-4.374h0A4.375,4.375,0,0,1-1329.913,5953.227Zm0,.614a3.759,3.759,0,0,1,3.76,3.759,3.759,3.759,0,0,1-3.76,3.759,3.759,3.759,0,0,1-3.759-3.759h0A3.763,3.763,0,0,1-1329.913,5953.841Z" fill="#4848ff" fill-rule="evenodd"/><path d="M-1375.568,5903.177l-7.965,7.322,9.419,2.518,2.554-7.358-4.008-2.48Z" fill="#fff" fill-rule="evenodd"/><path d="M-1374.113,5913.319a.3.3,0,0,1-.078-.011l-9.418-2.518a.3.3,0,0,1-.211-.371.3.3,0,0,1,.085-.141l7.964-7.322a.305.305,0,0,1,.363-.035l4.008,2.479a.3.3,0,0,1,.126.355l-2.558,7.361A.3.3,0,0,1-1374.113,5913.319Zm-8.81-2.967,8.617,2.3,2.384-6.867-3.609-2.232Z" fill="#091135"/><path d="M-1366.408,5903.126l.678,3.206-1.827.276,1.148-3.482Z" fill="#fff" fill-rule="evenodd"/><path d="M-1367.556,5906.912a.3.3,0,0,1-.229-.107.3.3,0,0,1-.057-.289l1.148-3.482a.3.3,0,0,1,.3-.207.3.3,0,0,1,.278.239l.678,3.205a.3.3,0,0,1-.047.234.3.3,0,0,1-.2.125l-1.825.278A.244.244,0,0,1-1367.556,5906.912Zm1.085-2.628-.646,1.954,1.025-.155Z" fill="#091135"/><path d="M-1370.406,5896.27c2.34,0,4.24,2.819,4.24,6.3s-1.9,6.3-4.24,6.3-4.238-2.819-4.238-6.3S-1372.746,5896.27-1370.406,5896.27Z" fill="#fff" fill-rule="evenodd"/><path d="M-1370.406,5909.17c-2.5,0-4.539-2.962-4.539-6.6s2.036-6.6,4.539-6.6,4.541,2.961,4.541,6.6S-1367.9,5909.17-1370.406,5909.17Zm0-12.6c-2.171,0-3.936,2.691-3.936,6s1.766,6,3.936,6,3.939-2.69,3.939-6-1.768-5.995-3.939-5.995Z" fill="#091135"/><path d="M-1367.418,5903.482c-.005.484-.189.875-.413.874s-.4-.4-.395-.881.19-.876.412-.873.4.4.4.881Z" fill="#091135" fill-rule="evenodd"/><path d="M-1375.424,5894.915c1.925-.5,3.818.336,4.229,1.879s-.828,3.207-2.753,3.713-3.819-.335-4.23-1.876.828-3.208,2.754-3.714Z" fill="#091135" fill-rule="evenodd"/><path d="M-1368.586,5894.44a3.684,3.684,0,0,1,4.154,3.082,3.6,3.6,0,0,1-3.2,4,3.686,3.686,0,0,1-4.145-3.016A3.631,3.631,0,0,1-1368.586,5894.44Z" fill="#091135" fill-rule="evenodd"/><path d="M-1372.215,5897.967a3.459,3.459,0,0,1,1.775,4.557A3.457,3.457,0,0,1-1375,5904.3a3.458,3.458,0,0,1-1.775-4.557,3.519,3.519,0,0,1,.315-.566A3.151,3.151,0,0,1-1372.215,5897.967Z" fill="#091135" fill-rule="evenodd"/><path d="M-1373.974,5905.415a2.327,2.327,0,0,1-1.8-2.753,2.328,2.328,0,0,1,1.8-1.8,1.881,1.881,0,0,1,1.854,1.906c0,.048,0,.1-.008.145" fill="#fff" fill-rule="evenodd"/><path d="M-1373.7,5905.786a2.691,2.691,0,0,1-2.191-3.113,2.693,2.693,0,0,1,2.191-2.19,2.244,2.244,0,0,1,2.214,2.272c0,.048,0,.1-.006.144a.311.311,0,0,1-.311.31.311.311,0,0,1-.311-.31,1.627,1.627,0,0,0-1.45-1.788c-.046,0-.092-.008-.139-.009a2.093,2.093,0,0,0-1.529,2.535,2.091,2.091,0,0,0,1.529,1.529.311.311,0,0,1,.311.31.311.311,0,0,1-.311.311h0Z" fill="#091135"/><path d="M-1339.781,5922.482c-.245-.078,7.025-2.195,8.4-3.682s2.525,1.6.028,3.777c-2.718,2.373-7.111,2.205-7.111,2.205" fill="#fff" fill-rule="evenodd"/><path d="M-1338.244,5925.091h-.234a.3.3,0,0,1-.3-.308.3.3,0,0,1,.308-.3,1.4,1.4,0,0,0,.169,0c.8,0,4.431-.115,6.747-2.133a3.366,3.366,0,0,0,1.319-3.08c-.068-.3-.211-.5-.373-.55s-.349.061-.555.285c-.952,1.03-4.216,2.222-7.2,3.257-.533.186-1.037.36-1.209.433a.3.3,0,0,1-.3.075.313.313,0,0,1-.216-.289c0-.256,0-.256,1.527-.788,1.957-.678,6.027-2.091,6.957-3.1a1.147,1.147,0,0,1,1.151-.458,1.233,1.233,0,0,1,.805,1,3.9,3.9,0,0,1-1.51,3.67C-1333.606,5924.943-1337.278,5925.091-1338.244,5925.091Z" fill="#091135"/><path d="M-1421.48,6011.768l-20.1,27.546,30.353.68-3.029-4.109,2.774-12.348-10-11.77Z" fill="#fff" fill-rule="evenodd"/><path d="M-1411.228,6040.295h-.007l-30.353-.68a.3.3,0,0,1-.294-.309.3.3,0,0,1,.058-.17l20.1-27.545a.3.3,0,0,1,.232-.124.305.305,0,0,1,.24.1l10,11.769a.3.3,0,0,1,.064.262l-2.744,12.213,2.948,4a.3.3,0,0,1-.066.422.309.309,0,0,1-.177.058Zm-29.769-1.27,29.163.653-2.665-3.616a.3.3,0,0,1-.051-.244l2.741-12.2-9.655-11.364Z" fill="#091135"/><path d="M-1365.575,6020.406l-.953,20.113,29.3-.155-4.822-4.893-5.74-18.529-17.8,3.462Z" fill="#fff" fill-rule="evenodd"/><path d="M-1366.528,6040.82a.3.3,0,0,1-.3-.3v-.013l.954-20.114a.3.3,0,0,1,.244-.281l17.795-3.461a.3.3,0,0,1,.345.207l5.715,18.457,4.77,4.84a.3.3,0,0,1-.006.427.3.3,0,0,1-.206.085l-29.3.156Zm1.243-20.164-.926,19.561,28.275-.151-4.32-4.384a.3.3,0,0,1-.073-.123l-5.657-18.269Z" fill="#091135"/><path d="M-1399.283,5927.077s-9.5,12.868-7.768,36.28c.553,7.462,5.068,7.808,6.786,9.026s13.112-37.938,13.112-37.938-12.285-6.963-12.131-7.368Z" fill="#fff" fill-rule="evenodd"/><path d="M-1400.18,5972.712a.443.443,0,0,1-.259-.084,8.19,8.19,0,0,0-1.225-.644c-2.082-.963-5.229-2.416-5.687-8.6-1.723-23.256,7.73-36.353,7.825-36.482a.3.3,0,0,1,.423-.062.306.306,0,0,1,.1.143c.6.641,7.637,4.733,11.994,7.2a.3.3,0,0,1,.141.346c-.027.094-2.742,9.414-5.682,18.705-5.994,18.931-7.067,19.308-7.472,19.449A.482.482,0,0,1-1400.18,5972.712Zm.089-.575.849-44.589c-1.358,2.041-9.073,14.671-7.509,35.788.432,5.831,3.269,7.144,5.337,8.1a9.29,9.29,0,0,1,1.244.647c1.6-1.162,8.559-23.411,12.659-37.494-.742-.421-3.353-1.913-5.92-3.417a61.724,61.724,0,0,1-5.811-3.631Zm.24-.363,0,0" fill="#091135"/><path d="M-1374.968,5923.071c4.5-4.186-1.317-17.436-11.03-11.58-8.559,5.162-15,16.859-15,16.859s10.11,4.851,13.665,3.641c4.892-1.666,7.236-4.14,12.373-8.922Z" fill="#fff" fill-rule="evenodd"/><path d="M-1388.736,5932.486c-4.3,0-12.031-3.686-12.4-3.862a.3.3,0,0,1-.14-.4l.007-.015c.065-.117,6.589-11.827,15.117-16.971,4.162-2.511,8.257-1.871,10.96,1.712,2.3,3.048,3.021,7.934.43,10.346h0q-.675.63-1.29,1.209c-4.3,4.028-6.666,6.243-11.19,7.783A4.685,4.685,0,0,1-1388.736,5932.486Zm-11.847-4.267c1.678.776,10.08,4.531,13.144,3.49,4.4-1.5,6.736-3.685,10.976-7.654l1.292-1.208h0c2.1-1.952,1.862-6.412-.5-9.543-2.5-3.31-6.3-3.89-10.171-1.555-7.654,4.622-13.694,14.664-14.738,16.469Zm25.615-5.148" fill="#091135"/><path d="M-1391.474,5943.93s-1.868,11.442,8.157,37.044a320.487,320.487,0,0,1,14.435,47.182l26.5-2.392s-7.932-43.2-21.154-70.2c-7.2-14.7-8.5-19.89-8.5-19.89l-19.447,8.257Z" fill="#fff" fill-rule="evenodd"/><path d="M-1368.88,6028.458a.3.3,0,0,1-.3-.242,323.153,323.153,0,0,0-14.42-47.134c-9.941-25.384-8.194-37.087-8.176-37.2a.3.3,0,0,1,.18-.229l19.446-8.257a.3.3,0,0,1,.4.161.206.206,0,0,1,.014.04c.013.052,1.385,5.353,8.474,19.831,13.091,26.728,21.1,69.841,21.179,70.274a.3.3,0,0,1-.243.351l-.026,0-26.5,2.393Zm-22.316-84.318c-.169,1.482-1.078,13.128,8.162,36.724a326.36,326.36,0,0,1,14.394,46.968l25.906-2.339c-.765-4.033-8.615-44.367-21.067-69.794-6.142-12.537-8.011-18.237-8.421-19.612Z" fill="#091135"/><path d="M-1392.8,5944.921s3.619,10.81-10.615,30.3-29.6,44.282-29.6,44.282l24.59,9.844s26.147-18.509,32.419-42.047,4.6-47.37,4.6-47.37l-21.4,4.992Z" fill="#fff" fill-rule="evenodd"/><path d="M-1408.43,6029.649a.28.28,0,0,1-.111-.022l-24.591-9.843a.3.3,0,0,1-.174-.186.3.3,0,0,1,.03-.253c.154-.248,15.538-25.024,29.616-44.3,13.952-19.106,10.606-29.919,10.573-30.026a.3.3,0,0,1,.192-.381l.025-.008,21.4-4.993a.293.293,0,0,1,.248.051.3.3,0,0,1,.122.221c.017.239,1.6,24.155-4.612,47.47-6.23,23.372-32.273,42.03-32.536,42.215A.307.307,0,0,1-1408.43,6029.649Zm-24.145-10.293,24.1,9.65c2.014-1.468,26.226-19.483,32.169-41.783,5.777-21.672,4.786-43.869,4.615-46.919l-20.744,4.841c.492,1.951,2.252,12.455-10.748,30.255-13.211,18.1-27.584,41.052-29.395,43.957Z" fill="#091135"/><path d="M-1383.349,5908.736a42.006,42.006,0,0,0-11.97,38.333l33.8,2.991s-8.61-30.02-10.755-37.3l-11.076-4.021Z" fill="#fff" fill-rule="evenodd"/><path d="M-1361.522,5950.361h-.026l-33.8-2.991a.3.3,0,0,1-.27-.245,42.772,42.772,0,0,1,4.345-28.457,38.963,38.963,0,0,1,7.725-10.16.3.3,0,0,1,.3-.055l11.077,4.021a.3.3,0,0,1,.186.2c2.12,7.2,10.669,37.006,10.755,37.305a.3.3,0,0,1-.209.372.33.33,0,0,1-.081.011Zm-33.541-3.571,33.13,2.932c-1.046-3.649-8.544-29.776-10.589-36.734l-10.76-3.907a39.2,39.2,0,0,0-7.471,9.9,42.159,42.159,0,0,0-4.308,27.811Z" fill="#091135"/><path d="M-1378.849,5912.859c-6.081-.861-9.943,7.007-2.773,15.795s15.357,13.839,22.233,14.644c5.916.693,16.724-8.292,23.832-12.127,2.906-1.567-2.31.691.44,1.795.844.341,3.411-.639,3.554-3.04.125-2.1-1.727-5.494-6.7-7.492-4.647-1.867-17.353,6.113-20.53,4.113-2.436-1.533-6.223-5.3-10.3-8.5-3.247-2.552-6.677-4.748-9.755-5.184Z" fill="#fff" fill-rule="evenodd"/><path d="M-1358.706,5943.641a6.405,6.405,0,0,1-.718-.041c-7.307-.856-15.483-6.232-22.432-14.752-4.589-5.625-4.557-10.587-2.995-13.356a5.776,5.776,0,0,1,6.042-2.929h0c2.685.379,5.831,2.046,9.9,5.244,1.784,1.4,3.543,2.938,5.094,4.293a50.009,50.009,0,0,0,5.181,4.194c1.417.893,5.312-.527,9.079-1.9,4.377-1.594,8.9-3.244,11.4-2.239,4.934,1.982,7.03,5.428,6.889,7.79a3.553,3.553,0,0,1-1.712,2.819,2.827,2.827,0,0,1-2.259.482c-.943-.379-1.067-.914-1.007-1.294a.339.339,0,0,1,.014-.068c-1.9,1.082-4.018,2.468-6.244,3.927C-1348.365,5939.66-1354.452,5943.641-1358.706,5943.641Zm-21.038-30.541a5.132,5.132,0,0,0-4.581,2.689c-1.463,2.595-1.461,7.289,2.936,12.678,6.848,8.4,14.883,13.7,22.035,14.535,4.049.47,10.695-3.867,16.557-7.7,2.561-1.673,4.979-3.253,7.1-4.4.178-.1.322-.176.438-.242a1.846,1.846,0,0,1,.6-.332.305.305,0,0,1,.309.221c.06.213,0,.3-.583.624-.328.252-.715.634-.7.943.007.258.351.45.641.567a2.32,2.32,0,0,0,1.712-.432,2.967,2.967,0,0,0,1.429-2.346c.129-2.154-1.855-5.324-6.512-7.2-2.284-.918-6.9.762-10.976,2.245-4.262,1.552-7.943,2.891-9.606,1.843a50.31,50.31,0,0,1-5.257-4.25c-1.545-1.349-3.3-2.879-5.07-4.272-3.982-3.13-7.036-4.759-9.611-5.123h0a6.068,6.068,0,0,0-.852-.063Z" fill="#091135"/><path d="M-1379.027,5912.559c-6.143.158-11.984,4.611-6.876,14.74,3.021,6,9.768,10.087,9.768,10.087l10.151-17.9s-7.939-7.064-13.038-6.931Z" fill="#fff" fill-rule="evenodd"/><path d="M-1376.137,5937.688a.307.307,0,0,1-.156-.043c-.068-.042-6.848-4.2-9.877-10.209-2.871-5.7-2.093-9.2-.933-11.14,1.457-2.434,4.474-3.945,8.071-4.037h0c5.149-.129,12.918,6.714,13.246,7.007a.3.3,0,0,1,.062.375l-10.152,17.9a.3.3,0,0,1-.261.153Zm-2.879-24.827c-3.39.086-6.22,1.488-7.57,3.745-1.551,2.593-1.221,6.244.954,10.558,2.618,5.187,8.124,8.977,9.389,9.8l9.868-17.406c-1.2-1.03-8.007-6.7-12.51-6.7h-.136Zm-.008-.3" fill="#091135"/><path d="M-1300.283,5976.563a16.736,16.736,0,0,1,16.737,16.737,16.737,16.737,0,0,1-16.737,16.738,16.738,16.738,0,0,1-16.737-16.737A16.746,16.746,0,0,1-1300.283,5976.563Z" fill="#4848ff" fill-rule="evenodd"/><path d="M-1300.283,5976.563a16.736,16.736,0,0,1,16.737,16.737,16.737,16.737,0,0,1-16.737,16.738,16.738,16.738,0,0,1-16.737-16.737A16.746,16.746,0,0,1-1300.283,5976.563Zm0,.614a16.124,16.124,0,0,1,16.124,16.124,16.124,16.124,0,0,1-16.124,16.124,16.124,16.124,0,0,1-16.124-16.124A16.133,16.133,0,0,1-1300.283,5977.177Z" fill="#4848ff" fill-rule="evenodd"/><path d="M-1290.324,5993.3a1.43,1.43,0,0,0-1.43-1.43h-17.059a1.43,1.43,0,0,0-1.43,1.43,1.43,1.43,0,0,0,1.43,1.43h17.06a1.43,1.43,0,0,0,1.43-1.43Z" fill="#fff" fill-rule="evenodd"/><path d="M-1300.283,6002.758a1.511,1.511,0,0,0,1.511-1.511v-15.9a1.511,1.511,0,0,0-1.623-1.389,1.51,1.51,0,0,0-1.389,1.389v15.9a1.51,1.51,0,0,0,1.51,1.511h-.009Z" fill="#fff" fill-rule="evenodd"/><path d="M-1369.747,5895.511s-7.221-9.47-21.287,9.663c-9.522,12.954-17.861,3.7-17.862,3.7a6.267,6.267,0,0,1,.569,1.163,12.342,12.342,0,0,0,5.37,5.561,16.543,16.543,0,0,0,8.158,1.526,20.986,20.986,0,0,0,13.233-5.954q.756-.741,1.446-1.547a29.143,29.143,0,0,0,2.593-3.565q.643-1.033,1.212-2.114.3-.567.581-1.145a5.359,5.359,0,0,1,.526-1.123Z" fill="#091135" fill-rule="evenodd"/><path d="M-1344.13,6042.135" fill="#fff" stroke="#000" stroke-linecap="round" stroke-linejoin="round" stroke-width="0.5" fill-rule="evenodd"/></g></svg>