<svg id="Layer_1" data-name="Layer 1" xmlns="http://www.w3.org/2000/svg" viewBox="0 0 12 13"><defs><style>.cls-1{fill:#02cec3;}</style></defs><g id="Group_5541" data-name="Group 5541"><path id="Path_3036" data-name="Path 3036" class="cls-1" d="M9.57,4.21l.9-.9a.35.35,0,0,0,0-.49.34.34,0,0,0-.49,0l0,0-.93.94a5,5,0,0,0-2.64-1V2h.42a.58.58,0,0,0,.58-.58A.57.57,0,0,0,6.83.82H5.29a.58.58,0,0,0-.58.58A.57.57,0,0,0,5.29,2h.42v.79a4.94,4.94,0,0,0-2.63,1l-.94-.94a.35.35,0,1,0-.49.49h0l.9.9a5,5,0,1,0,7,0v0M6.06,11.49A3.76,3.76,0,1,1,9.81,7.73h0a3.75,3.75,0,0,1-3.75,3.75"/><path id="Path_3037" data-name="Path 3037" class="cls-1" d="M6.06,4.68A3.06,3.06,0,1,0,9.11,7.74h0a3.06,3.06,0,0,0-3-3.06m1.16,3.4H6.06a.35.35,0,0,1-.35-.34V6.08a.35.35,0,0,1,.7,0V7.39h.81a.35.35,0,0,1,.35.35.35.35,0,0,1-.35.35"/></g></svg>