<svg id="Layer_1" data-name="Layer 1" xmlns="http://www.w3.org/2000/svg" xmlns:xlink="http://www.w3.org/1999/xlink" viewBox="0 0 13 13"><defs><style>.cls-1{fill:none;}.cls-2{clip-path:url(#clip-path);}.cls-3{fill:#4848ff;}</style><clipPath id="clip-path"><rect class="cls-1" x="0.17" y="0.82" width="12" height="12"/></clipPath></defs><g id="Group_5547" data-name="Group 5547"><g id="Group_5544" data-name="Group 5544"><g class="cls-2"><g id="Group_5543" data-name="Group 5543"><path id="Path_3038" data-name="Path 3038" class="cls-3" d="M7,2.5a3.5,3.5,0,0,0,.9-.23,2.29,2.29,0,0,0,.68-.51,1,1,0,0,1,.79-.34V1.35A.34.34,0,0,0,9,1H.81a.34.34,0,0,0-.34.34h0V12.28a.34.34,0,0,0,.34.34H9a.33.33,0,0,0,.33-.33h0V9h0a1.05,1.05,0,0,1-.49-.13h0A5.3,5.3,0,0,1,7.17,7.46a5.76,5.76,0,0,1-.93-2,6.61,6.61,0,0,1-.16-2.08A1,1,0,0,1,7,2.5M5.37,10a.2.2,0,0,1-.2.2H2a.2.2,0,0,1-.2-.2v-.3a.2.2,0,0,1,.2-.2H5.18a.2.2,0,0,1,.2.2Zm0-3a.2.2,0,0,1-.2.2H2a.2.2,0,0,1-.2-.2v-.3a.2.2,0,0,1,.2-.2H5.18a.2.2,0,0,1,.2.2Zm0-3a.2.2,0,0,1-.2.2H2a.2.2,0,0,1-.2-.2h0v-.3a.2.2,0,0,1,.2-.2H5.18a.2.2,0,0,1,.2.2Z"/></g></g></g><g id="Group_5546" data-name="Group 5546"><g class="cls-2"><g id="Group_5545" data-name="Group 5545"><path id="Path_3039" data-name="Path 3039" class="cls-3" d="M11.85,3.45a.34.34,0,0,0-.29-.28,4,4,0,0,1-1.12-.29,3.3,3.3,0,0,1-.9-.67.32.32,0,0,0-.45,0l0,0a3,3,0,0,1-.9.67A3.85,3.85,0,0,1,7,3.17a.34.34,0,0,0-.28.28,5.69,5.69,0,0,0,.15,1.84,4.67,4.67,0,0,0,2.24,3,.34.34,0,0,0,.31,0,4.64,4.64,0,0,0,2.24-3,5.69,5.69,0,0,0,.15-1.84M10.78,4.71,9.5,6.19a.35.35,0,0,1-.48,0l0,0-.84-.84a.34.34,0,0,1,0-.48.36.36,0,0,1,.49,0h0l.57.58,1-1.2a.34.34,0,0,1,.52.44"/></g></g></g></g></svg>