<svg id="Layer_1" data-name="Layer 1" xmlns="http://www.w3.org/2000/svg" viewBox="0 0 15 14"><defs><style>.cls-1{fill:#ff3f87;}</style></defs><g id="Group_5550-2" data-name="Group 5550-2"><path id="Path_3043" data-name="Path 3043" class="cls-1" d="M14.22,10.63,9.35,1.48A2.06,2.06,0,0,0,6.54.74a2.13,2.13,0,0,0-.72.71v0l-5,9a2,2,0,0,0,.7,2.81,1.91,1.91,0,0,0,1,.3l9.86.08a2.09,2.09,0,0,0,1.82-1,2,2,0,0,0,0-2m-7.48-6a.82.82,0,0,1,.82-.82.83.83,0,0,1,.82.83l0,3.28a.82.82,0,0,1-.83.82.83.83,0,0,1-.81-.83ZM7.5,12A1.23,1.23,0,1,1,8.74,10.8h0A1.23,1.23,0,0,1,7.5,12"/></g></svg>