<svg id="Layer_1" data-name="Layer 1" xmlns="http://www.w3.org/2000/svg" xmlns:xlink="http://www.w3.org/1999/xlink" viewBox="0 0 16 17"><defs><style>.cls-1,.cls-3,.cls-5{fill:none;}.cls-2{clip-path:url(#clip-path);}.cls-3{stroke:#02cec3;}.cls-3,.cls-5{stroke-linejoin:round;}.cls-4{fill:#02cec3;}.cls-5{stroke:#fff;stroke-linecap:round;}</style><clipPath id="clip-path"><rect class="cls-1" x="1.07" y="0.45" width="13.54" height="15.55"/></clipPath></defs><g id="Group_5549" data-name="Group 5549"><g class="cls-2"><g id="Group_5548" data-name="Group 5548"><path id="Path_3040" data-name="Path 3040" class="cls-3" d="M9.93,14.71,8,15.51H7.75l-2-.8A6.29,6.29,0,0,1,1.56,9.05V3.14a.37.37,0,0,1,.28-.35l6-1.85,6,1.85a.37.37,0,0,1,.28.35V9.07A6.26,6.26,0,0,1,9.93,14.71Z"/><path id="Path_3041" data-name="Path 3041" class="cls-4" d="M6.44,13.55A5.73,5.73,0,0,1,4,11.71a4.5,4.5,0,0,1-.91-2.66V4a.3.3,0,0,1,.22-.26l4.54-1.4,4.55,1.4A.29.29,0,0,1,12.6,4v5.1a4.37,4.37,0,0,1-.9,2.65,5.7,5.7,0,0,1-2.44,1.84L8,14.09H7.75Z"/><path id="Path_3042" data-name="Path 3042" class="cls-5" d="M4.9,8.44l2.29,2.29,3.59-4.9"/></g></g></g></svg>