<svg id="Layer_1" data-name="Layer 1" xmlns="http://www.w3.org/2000/svg" viewBox="0 0 40 41"><defs><style>.cls-1{fill:#091135;}.cls-2{fill:#fff;}.cls-3{fill:#02cec3;}</style></defs><g id="Group_4914" data-name="Group 4914"><g id="Group_3216" data-name="Group 3216"><g id="Group_3224" data-name="Group 3224"><g id="Rectangle_1254-2" data-name="Rectangle 1254-2"><path id="Path_1767-2" data-name="Path 1767-2" class="cls-1" d="M36.08,15.4V31.62a9.1,9.1,0,0,1-9.1,9.1H9.52A9.08,9.08,0,0,1,.43,31.63h0V15.29a9.09,9.09,0,0,1,9.08-9.1H24.72a9,9,0,0,0,6.68,9.25,8.54,8.54,0,0,0,2.26.29h0A8.83,8.83,0,0,0,36.08,15.4Z"/></g></g><g id="Group_4910" data-name="Group 4910"><path id="Path_2045-2" data-name="Path 2045-2" class="cls-2" d="M12.6,18.21a.62.62,0,0,0,.87-.87l-1.74-1.73a.62.62,0,0,0-.87,0,.63.63,0,0,0,0,.83Z"/><path id="Path_2046-2" data-name="Path 2046-2" class="cls-2" d="M8.38,23.61h2.5a.62.62,0,0,0,0-1.23H8.38a.62.62,0,1,0,0,1.23Z"/><path id="Path_2047-2" data-name="Path 2047-2" class="cls-2" d="M28.13,22.38h-2.5a.62.62,0,0,0,0,1.23h2.5a.62.62,0,1,0,0-1.23Z"/><path id="Path_2048-2" data-name="Path 2048-2" class="cls-2" d="M25.64,15.6a.62.62,0,0,0-.87,0h0L23,17.34a.62.62,0,0,0,0,.87.6.6,0,0,0,.84,0l1.74-1.74A.62.62,0,0,0,25.64,15.6Z"/><path id="Path_2049-2" data-name="Path 2049-2" class="cls-2" d="M18.87,15.62v-2.5a.62.62,0,1,0-1.23,0h0v2.5a.62.62,0,1,0,1.23,0Z"/><path id="Path_2050-2" data-name="Path 2050-2" class="cls-2" d="M23.79,23a5.53,5.53,0,0,1-1.61,3.91,3.07,3.07,0,0,0-.85,2.15v.13a.61.61,0,0,1-.6.62H15.79a.61.61,0,0,1-.61-.6v-.15a3,3,0,0,0-.8-2.11,5.56,5.56,0,0,1-1.49-5.35,5.46,5.46,0,0,1,4-4A5.52,5.52,0,0,1,23.78,23Z"/><path id="Path_2051-2" data-name="Path 2051-2" class="cls-2" d="M18.87,33.49a1.84,1.84,0,0,0,1.84-1.85V31H15.79v.61a1.86,1.86,0,0,0,1.85,1.85Z"/></g></g><g id="Path_1766" data-name="Path 1766"><path id="Path_1769-2" data-name="Path 1769-2" class="cls-3" d="M39.66,6.75V7a6,6,0,0,1-4,5.43,5.8,5.8,0,0,1-1.93.33,5.22,5.22,0,0,1-1.53-.19,6,6,0,0,1-4.42-6.32,6.7,6.7,0,0,1,.17-1,5.88,5.88,0,0,1,1.94-3.06,6,6,0,0,1,9.82,4.57Z"/></g></g></svg>