<svg id="Layer_1" data-name="Layer 1" xmlns="http://www.w3.org/2000/svg" viewBox="0 0 37 35"><defs><style>.cls-1{fill:#091135;}.cls-2{fill:#fff;}</style></defs><g id="Group_4912" data-name="Group 4912"><rect id="Rectangle_1255-2" data-name="Rectangle 1255-2" class="cls-1" x="0.71" y="0.19" width="35.65" height="34.53" rx="9.1"/><g id="Group_4907" data-name="Group 4907"><path id="Path_2045" data-name="Path 2045" class="cls-2" d="M12.89,12.21a.62.62,0,0,0,.87-.87L12,9.61a.62.62,0,0,0-.87,0,.6.6,0,0,0,0,.83Z"/><path id="Path_2046" data-name="Path 2046" class="cls-2" d="M8.66,17.61h2.5a.62.62,0,1,0,0-1.23H8.66a.62.62,0,0,0,0,1.23Z"/><path id="Path_2047" data-name="Path 2047" class="cls-2" d="M28.42,16.38h-2.5a.62.62,0,1,0,0,1.23h2.5a.62.62,0,0,0,0-1.23Z"/><path id="Path_2048" data-name="Path 2048" class="cls-2" d="M25.93,9.6a.62.62,0,0,0-.87,0h0l-1.74,1.74a.62.62,0,0,0,0,.87.61.61,0,0,0,.85,0l1.74-1.74A.62.62,0,0,0,25.93,9.6Z"/><path id="Path_2049" data-name="Path 2049" class="cls-2" d="M19.16,9.62V7.12a.62.62,0,0,0-.61-.62.61.61,0,0,0-.62.61h0v2.5a.61.61,0,0,0,.61.62.63.63,0,0,0,.62-.62Z"/><path id="Path_2050" data-name="Path 2050" class="cls-2" d="M24.08,17a5.53,5.53,0,0,1-1.61,3.91,3.07,3.07,0,0,0-.85,2.15v.13a.62.62,0,0,1-.6.62H16.08a.62.62,0,0,1-.62-.6v-.15a3,3,0,0,0-.8-2.11,5.55,5.55,0,0,1-1.48-5.35,5.44,5.44,0,0,1,4-4A5.52,5.52,0,0,1,24.07,17Z"/><path id="Path_2051" data-name="Path 2051" class="cls-2" d="M19.16,27.49A1.85,1.85,0,0,0,21,25.64V25H16.08v.61a1.85,1.85,0,0,0,1.85,1.85Z"/></g></g></svg>