<svg xmlns="http://www.w3.org/2000/svg" width="17.935" height="13.043" viewBox="0 0 17.935 13.043">
  <path id="Path_43" data-name="Path 43" d="M5590.744,1551.393a.815.815,0,0,1-.816.815h-9.782a.815.815,0,0,1-.816-.815,4.892,4.892,0,0,1,4.892-4.891h1.63a4.892,4.892,0,0,1,4.892,4.891Zm-5.707-12.228a3.261,3.261,0,1,0,3.261,3.261,3.261,3.261,0,0,0-3.261-3.261Zm-7.337,0a3.261,3.261,0,1,0,3.261,3.261,3.261,3.261,0,0,0-3.261-3.261Zm0,12.228a6.468,6.468,0,0,1,1.916-4.606,4.434,4.434,0,0,0-1.557-.285h-.718a4.54,4.54,0,0,0-4.532,4.533v.358a.815.815,0,0,0,.815.815h4.223a2.429,2.429,0,0,1-.147-.815Zm0,0" transform="translate(-5572.809 -1539.165)" fill="#4848ff"/>
</svg>
