<svg xmlns="http://www.w3.org/2000/svg" width="33" height="33" viewBox="0 0 33 33">
  <g id="Group_5024" data-name="Group 5024" transform="translate(14787 19466)">
    <rect id="Rectangle_1676" data-name="Rectangle 1676" width="33" height="33" rx="10" transform="translate(-14787 -19466)" fill="#edeaff"/>
    <g id="Group_4846" data-name="Group 4846" transform="translate(-15546.049 -19836.527)">
      <path id="Path_1575" data-name="Path 1575" d="M775.549,536.363a1.381,1.381,0,0,1-.484-.088L768,533.922v4.8a1.729,1.729,0,0,0,1.73,1.73h11.639a1.729,1.729,0,0,0,1.73-1.73v-4.8l-7.1,2.365A1.3,1.3,0,0,1,775.549,536.363Z" transform="translate(0 -147.87)" fill="#4848ff"/>
      <path id="Path_1576" data-name="Path 1576" d="M781.369,381.887h-3.3v-.629A1.259,1.259,0,0,0,776.808,380h-2.516a1.259,1.259,0,0,0-1.258,1.258v.629h-3.3a1.729,1.729,0,0,0-1.73,1.73v1.441l7.4,2.466a.466.466,0,0,0,.3,0l7.4-2.466v-1.441A1.729,1.729,0,0,0,781.369,381.887Zm-7.077,0v-.629h2.516v.629Z" transform="translate(0 0)" fill="#4848ff"/>
    </g>
  </g>
</svg>
