<svg xmlns="http://www.w3.org/2000/svg" width="33" height="33" viewBox="0 0 33 33">
  <g id="Group_5023" data-name="Group 5023" transform="translate(14787 19518)">
    <rect id="Rectangle_1677" data-name="Rectangle 1677" width="33" height="33" rx="10" transform="translate(-14787 -19518)" fill="#edeaff"/>
    <g id="Group_4845" data-name="Group 4845" transform="translate(-14788.195 -19169.166)">
      <circle id="Ellipse_287" data-name="Ellipse 287" cx="3.691" cy="3.691" r="3.691" transform="translate(14.003 -339.395)" fill="#4848ff"/>
      <path id="Path_2027" data-name="Path 2027" d="M611.354,300.989H599.869a.41.41,0,0,1-.409-.41,5.381,5.381,0,0,1,1.559-3.8,5.267,5.267,0,0,1,3.773-1.591h1.64a5.266,5.266,0,0,1,3.773,1.591,5.381,5.381,0,0,1,1.559,3.8A.411.411,0,0,1,611.354,300.989Z" transform="translate(-587.918 -626.262)" fill="#4848ff"/>
    </g>
  </g>
</svg>
