<svg xmlns="http://www.w3.org/2000/svg" width="33" height="33" viewBox="0 0 33 33">
  <g id="Group_5028" data-name="Group 5028" transform="translate(14787 19259)">
    <rect id="Rectangle_1681" data-name="Rectangle 1681" width="33" height="33" rx="10" transform="translate(-14787 -19259)" fill="#edeaff"/>
    <g id="Group_4847" data-name="Group 4847" transform="translate(-14776.652 -19249.793)">
      <path id="Path_2028" data-name="Path 2028" d="M304.7,152a.609.609,0,0,0-.132-.662l-1.822-1.822a.608.608,0,0,0-.859.859l.786.786h-3.394a.608.608,0,0,0,0,1.215h3.394l-.786.786a.608.608,0,1,0,.859.859l1.822-1.822a.6.6,0,0,0,.132-.2" transform="translate(-290.16 -145.086)" fill="#4848ff"/>
      <path id="Path_2029" data-name="Path 2029" d="M10.33,8.507a.607.607,0,0,0-.608.608v3.038H7.292V2.431a.608.608,0,0,0-.433-.582l-2.11-.633H9.723V4.254a.608.608,0,1,0,1.215,0V.608A.607.607,0,0,0,10.33,0H.608A.543.543,0,0,0,.545.012.6.6,0,0,0,.287.1C.274.11.258.111.245.12S.238.131.233.134A.6.6,0,0,0,.072.326.51.51,0,0,0,.055.377.576.576,0,0,0,.007.52a.378.378,0,0,0,0,.053C.008.585,0,.6,0,.608V12.761a.607.607,0,0,0,.489.6l6.077,1.215a.566.566,0,0,0,.119.012.608.608,0,0,0,.608-.608v-.608H10.33a.607.607,0,0,0,.608-.608V9.115a.607.607,0,0,0-.608-.608" fill="#4848ff"/>
    </g>
  </g>
</svg>
