<svg xmlns="http://www.w3.org/2000/svg" width="33" height="33" viewBox="0 0 33 33">
  <g id="Group_5025" data-name="Group 5025" transform="translate(14787 19414)">
    <rect id="Rectangle_1680" data-name="Rectangle 1680" width="33" height="33" rx="10" transform="translate(-14787 -19414)" fill="#edeaff"/>
    <g id="Group_4842" data-name="Group 4842" transform="translate(-14793.86 -19453.99)">
      <path id="Path_2025" data-name="Path 2025" d="M30.121,55.547h-.079v-.786a1.813,1.813,0,0,0-1.573-1.793v-.959A1.819,1.819,0,0,0,26.661,50.2H18.279a1.92,1.92,0,0,0-1.919,1.887v8.886a1.819,1.819,0,0,0,1.809,1.809H28.234a1.819,1.819,0,0,0,1.809-1.809v-.865h.079a1.02,1.02,0,0,0,1.022-1.022V56.569A1.02,1.02,0,0,0,30.121,55.547Zm-12.66-3.428a.822.822,0,0,1,.818-.818h8.367a.7.7,0,0,1,.708.708v.944H18.279A.836.836,0,0,1,17.461,52.119Zm12.581,6.888H27.447a1.179,1.179,0,1,1,0-2.359h2.595Z" transform="translate(0 0)" fill="#4848ff"/>
      <circle id="Ellipse_286" data-name="Ellipse 286" cx="0.786" cy="0.786" r="0.786" transform="translate(26.975 57.041)" fill="#4848ff"/>
    </g>
  </g>
</svg>
