<svg xmlns="http://www.w3.org/2000/svg" width="23.577" height="21.968" viewBox="0 0 23.577 21.968">
  <g id="Group_2771" data-name="Group 2771" transform="translate(-1175.706 2089.809)">
    <path id="Path_211" data-name="Path 211" d="M1198.269-2083.049a6.874,6.874,0,0,1-.051,1.369,10.251,10.251,0,0,1-.387,1.648,10.993,10.993,0,0,1-.618,1.557,14.71,14.71,0,0,1-1.062,1.813,24.594,24.594,0,0,1-4.886,5.141,30.356,30.356,0,0,1-3.133,2.269l0-.005-.061,0,.013.035c-.169.11-.342.216-.507.332-.1.069-.158,0-.224-.044-.971-.6-1.916-1.248-2.823-1.946a28.209,28.209,0,0,1-4.776-4.547,14.375,14.375,0,0,1-2.513-4.324,8.251,8.251,0,0,1-.492-3.638,5.921,5.921,0,0,1,2.264-4.1,5.805,5.805,0,0,1,3.61-1.311,5.957,5.957,0,0,1,4.662,2c.208.224.208.226.414,0a5.994,5.994,0,0,1,3.448-1.911,3.425,3.425,0,0,1,.938-.091,6.053,6.053,0,0,1,3.522,1.042,6.052,6.052,0,0,1,2.228,2.758A6.207,6.207,0,0,1,1198.269-2083.049Z" fill="none" stroke="#4848ff" stroke-miterlimit="10" stroke-width="2"/>
  </g>
</svg>
