<svg xmlns="http://www.w3.org/2000/svg" width="24.151" height="24.186" viewBox="0 0 24.151 24.186">
  <g id="Group_1304" data-name="Group 1304" transform="translate(-1386.74 -252.484)">
    <g id="Group_1299" data-name="Group 1299">
      <g id="Group_1298" data-name="Group 1298">
        <path id="Path_340" data-name="Path 340" d="M1408.3,252.484h-18.981a2.587,2.587,0,0,0-2.578,2.593V268.9a2.594,2.594,0,0,0,2.578,2.578h3.067l-.461,4.22a.873.873,0,0,0,.764.965.937.937,0,0,0,.676-.216l5.487-4.969h9.448a2.588,2.588,0,0,0,2.592-2.578V255.077A2.581,2.581,0,0,0,1408.3,252.484Z" fill="#4848ff"/>
      </g>
    </g>
    <g id="Group_1300" data-name="Group 1300">
      <rect id="Rectangle_778" data-name="Rectangle 778" width="16.908" height="1.408" transform="translate(1390.711 259.294)" fill="#fff"/>
    </g>
    <g id="Group_1301" data-name="Group 1301">
      <rect id="Rectangle_779" data-name="Rectangle 779" width="16.74" height="1.408" transform="translate(1390.711 263.051)" fill="#fff"/>
    </g>
    <g id="Group_1302" data-name="Group 1302">
      <path id="Path_341" data-name="Path 341" d="M1407.619,266.105" fill="#fff" stroke="#c7d0ff" stroke-linecap="round" stroke-miterlimit="10" stroke-width="1"/>
    </g>
    <g id="Group_1303" data-name="Group 1303">
      <path id="Path_342" data-name="Path 342" d="M1390.711,266.105" fill="#fff" stroke="#c7d0ff" stroke-linecap="round" stroke-miterlimit="10" stroke-width="1"/>
    </g>
  </g>
</svg>
