<svg xmlns="http://www.w3.org/2000/svg" width="19.844" height="23.413" viewBox="0 0 19.844 23.413">
  <path id="Path_347" data-name="Path 347" d="M1341.959,268.424a4.547,4.547,0,0,0-7.531-2.617c-.724-.523-1.451-1.044-2.212-1.583a5.144,5.144,0,0,0,0-4.432c.735-.516,1.469-1.037,2.232-1.564a4.409,4.409,0,0,0,3.768,1.106,4.551,4.551,0,0,0,3.767-5.059,4.484,4.484,0,0,0-1.978-3.2,4.546,4.546,0,0,0-6.623,1.8,4.624,4.624,0,0,0-.073,3.77c-.734.514-1.461,1.036-2.215,1.578a5.254,5.254,0,0,0-8.774,4.92,5.261,5.261,0,0,0,8.778,2.651c.731.532,1.467,1.059,2.207,1.6a4.533,4.533,0,0,0,3.111,6.2c.057.014.114.023.173.032a.643.643,0,0,1,.222.059l.059.036h1.2l.026-.047a4.564,4.564,0,0,0,3.054-1.82A4.409,4.409,0,0,0,1341.959,268.424Z" transform="translate(-1322.186 -250.304)" fill="#4848ff"/>
</svg>
