<svg xmlns="http://www.w3.org/2000/svg" width="11.795" height="15.962" viewBox="0 0 11.795 15.962">
  <g id="Group_2773" data-name="Group 2773" transform="translate(-1182.884 1359.144)">
    <path id="Path_220" data-name="Path 220" d="M1183.7-1343.182a2.573,2.573,0,0,1-.417-.2,1,1,0,0,1-.4-.882q.006-4.268,0-8.537c0-1.744.013-3.489-.006-5.234a1.05,1.05,0,0,1,1.115-1.11c2.575.015,5.151.007,7.727,0a.338.338,0,0,1,.281.119c.862.943,1.73,1.88,2.591,2.823a.327.327,0,0,1,.077.2q.006,5.889,0,11.777a.97.97,0,0,1-.759,1.007.347.347,0,0,0-.055.027Zm10.156-12.342h-2.076a.431.431,0,0,1-.478-.481q0-1.068,0-2.134v-.178h-7.294c-.274,0-.3.031-.3.3v13.709c0,.276.029.306.3.306h9.549c.274,0,.3-.03.3-.3v-11.22Zm-.519-.829-1.2-1.309v1.309Z" fill="#4848ff"/>
    <path id="Path_221" data-name="Path 221" d="M1188.65-1350.7H1192a1.153,1.153,0,0,1,.186.008.3.3,0,0,1,.252.293.288.288,0,0,1-.242.3,1.038,1.038,0,0,1-.2.016h-6.7a1.036,1.036,0,0,1-.185-.014.293.293,0,0,1-.254-.3.3.3,0,0,1,.273-.291,1.4,1.4,0,0,1,.171-.005Z" fill="#4848ff"/>
    <path id="Path_222" data-name="Path 222" d="M1188.66-1348.046h-3.366a1.133,1.133,0,0,1-.155-.005.306.306,0,0,1-.283-.3.307.307,0,0,1,.289-.31,1.037,1.037,0,0,1,.125,0h6.762a.706.706,0,0,1,.184.021.276.276,0,0,1,.22.283.28.28,0,0,1-.226.294.837.837,0,0,1-.2.019Z" fill="#4848ff"/>
    <path id="Path_223" data-name="Path 223" d="M1188.646-1354.152h-3.35a1.168,1.168,0,0,1-.156,0,.3.3,0,0,1-.284-.3.3.3,0,0,1,.257-.3.806.806,0,0,1,.17-.013h6.732a.785.785,0,0,1,.2.022.276.276,0,0,1,.222.282.285.285,0,0,1-.224.3.834.834,0,0,1-.2.017Z" fill="#4848ff"/>
    <path id="Path_224" data-name="Path 224" d="M1188.646-1352.086h-3.319c-.046,0-.093,0-.14,0a.306.306,0,0,1-.331-.3.309.309,0,0,1,.335-.311c.041,0,.083,0,.124,0h6.668a1.452,1.452,0,0,1,.187.007.29.29,0,0,1,.267.292.294.294,0,0,1-.271.3,1.626,1.626,0,0,1-.186.006Q1190.312-1352.084,1188.646-1352.086Z" fill="#4848ff"/>
  </g>
</svg>
