<svg xmlns="http://www.w3.org/2000/svg" width="17.009" height="17.009" viewBox="0 0 17.009 17.009">
  <g id="Group_5021" data-name="Group 5021" transform="translate(-17.067 -17.067)">
    <path id="Path_192" data-name="Path 192" d="M18.889,116.372H29.216a1.822,1.822,0,0,0,1.822-1.822V104.222a1.822,1.822,0,0,0-1.822-1.822H18.889a1.822,1.822,0,0,0-1.822,1.822v10.327A1.822,1.822,0,0,0,18.889,116.372Zm-.607-12.149a.607.607,0,0,1,.607-.607H29.216a.607.607,0,0,1,.607.607v10.327a.607.607,0,0,1-.607.607H18.889a.607.607,0,0,1-.607-.607Z" transform="translate(0 -82.295)" fill="#707070"/>
    <path id="Path_193" data-name="Path 193" d="M98.09,17.067H87.155a1.822,1.822,0,0,0-1.822,1.822.607.607,0,0,0,1.215,0,.607.607,0,0,1,.607-.607H98.09a.607.607,0,0,1,.607.607V29.824a.607.607,0,0,1-.607.607.607.607,0,0,0,0,1.215,1.822,1.822,0,0,0,1.822-1.822V18.889A1.822,1.822,0,0,0,98.09,17.067Z" transform="translate(-65.836)" fill="#707070"/>
  </g>
</svg>
