<svg id="图层_1" data-name="图层 1" xmlns="http://www.w3.org/2000/svg" viewBox="0 0 38.49 37.28"><defs><style>.cls-1{fill:#4848ff;}.cls-2{fill:#fff;}</style></defs><g id="Group_3217" data-name="Group 3217"><rect id="Rectangle_1255-2" data-name="Rectangle 1255-2" class="cls-1" x="1.42" y="1.37" width="35.65" height="34.53" rx="9.1"/><g id="Group_3215" data-name="Group 3215"><path id="Path_1764" data-name="Path 1764" class="cls-2" d="M21.88,12.33,11.46,22.76a.33.33,0,0,0-.11.19l-1.16,4.63a.42.42,0,0,0,.3.5h.2l4.64-1.15a.45.45,0,0,0,.19-.11L25.94,16.4Z"/><path id="Path_1765" data-name="Path 1765" class="cls-2" d="M28.52,10.91,27.36,9.75a2.11,2.11,0,0,0-2.9,0L23,11.17l4.06,4.06,1.43-1.42a2.05,2.05,0,0,0,0-2.9Z"/></g></g></svg>