<svg xmlns="http://www.w3.org/2000/svg" width="17.989" height="12.931" viewBox="0 0 17.989 12.931">
  <g id="Group_5020" data-name="Group 5020" transform="translate(-630.635 -802.154)">
    <g id="Group_148" data-name="Group 148">
      <path id="Path_67" data-name="Path 67" d="M648.285,805.855l-8.433-3.654a.558.558,0,0,0-.446,0l-8.433,3.654a.562.562,0,0,0,0,1.031l8.433,3.655a.562.562,0,0,0,.446,0l5.961-2.583v5.986a.573.573,0,0,0,.535.578.563.563,0,0,0,.59-.562v-6.206a.176.176,0,0,0-.153-.174l-7.228-.933a.562.562,0,0,1,.1-1.119c.025,0,8.037,1.036,8.031,1.035a.423.423,0,0,1,.332.245.177.177,0,0,0,.237.09.563.563,0,0,0,.024-1.043Zm0,0" fill="#4848ff"/>
      <path id="Path_68" data-name="Path 68" d="M638.958,811.572l-4.705-2.039a.176.176,0,0,0-.246.162v2.017c0,1.891,2.469,3.373,5.622,3.373s5.622-1.482,5.622-3.373V809.7a.176.176,0,0,0-.246-.162l-4.705,2.039a1.684,1.684,0,0,1-1.342,0Zm0,0" fill="#4848ff"/>
    </g>
  </g>
</svg>
