<svg xmlns="http://www.w3.org/2000/svg" width="17.92" height="14" viewBox="0 0 17.92 14"><g transform="translate(-2181.517 -165.192)"><path d="M2181.937,167.992h2.66v-1.68h-2.66a.421.421,0,0,0-.42.42v.84A.421.421,0,0,0,2181.937,167.992Z" fill="#4848ff"/><path d="M2199.017,166.312h-10.5v1.68h10.5a.421.421,0,0,0,.42-.42v-.84A.421.421,0,0,0,2199.017,166.312Z" fill="#4848ff"/><path d="M2199.017,171.352h-2.66v1.68h2.66a.421.421,0,0,0,.42-.42v-.84A.421.421,0,0,0,2199.017,171.352Z" fill="#4848ff"/><path d="M2181.937,173.032h10.5v-1.68h-10.5a.421.421,0,0,0-.42.42v.84A.421.421,0,0,0,2181.937,173.032Z" fill="#4848ff"/><path d="M2199.017,176.392h-7.7v1.68h7.7a.421.421,0,0,0,.42-.42v-.84A.421.421,0,0,0,2199.017,176.392Z" fill="#4848ff"/><path d="M2181.517,176.812v.84a.421.421,0,0,0,.42.42h5.46v-1.68h-5.46A.421.421,0,0,0,2181.517,176.812Z" fill="#4848ff"/><rect width="2.24" height="3.92" rx="0.56" transform="translate(2185.437 165.192)" fill="#4848ff"/><rect width="2.24" height="3.92" rx="0.56" transform="translate(2193.277 170.232)" fill="#4848ff"/><rect width="2.24" height="3.92" rx="0.56" transform="translate(2188.237 175.272)" fill="#4848ff"/></g></svg>