<svg xmlns="http://www.w3.org/2000/svg" width="15.913" height="14.361" viewBox="0 0 15.913 14.361">
  <g id="Group_3174" data-name="Group 3174" transform="translate(54.332 -33.335)">
    <path id="Rectangle_1221" data-name="Rectangle 1221" d="M-53.785,39.861h13.1a1.547,1.547,0,0,1,1.4,1.657h0a1.547,1.547,0,0,1-1.4,1.657h-13.1a1.547,1.547,0,0,1-1.4-1.657h0A1.547,1.547,0,0,1-53.785,39.861Z" transform="translate(0.857 -1.003)" fill="#FFFFFF"/>
    <path id="Rectangle_1222" data-name="Rectangle 1222" d="M-50.007,33.335h6.752a1.5,1.5,0,0,1,1.266,1.657h0a1.5,1.5,0,0,1-1.266,1.657h-6.752a1.5,1.5,0,0,1-1.266-1.657h0A1.5,1.5,0,0,1-50.007,33.335Z" transform="translate(0.255)" fill="#FFFFFF"/>
    <path id="Rectangle_1223" data-name="Rectangle 1223" d="M-50.007,46.387h6.752a1.5,1.5,0,0,1,1.266,1.657h0A1.5,1.5,0,0,1-43.255,49.7h-6.752a1.5,1.5,0,0,1-1.266-1.657h0A1.5,1.5,0,0,1-50.007,46.387Z" transform="translate(0.255 -2.006)" fill="#FFFFFF"/>
  </g>
</svg>
