<svg xmlns="http://www.w3.org/2000/svg" width="43.052" height="47.906" viewBox="0 0 43.052 47.906">
  <g id="Group_43" data-name="Group 43" transform="translate(-732.064 -870)">
    <g id="Group_42" data-name="Group 42">
      <path id="Path_34" data-name="Path 34" d="M770.328,891.553h-9.977a7.176,7.176,0,0,1,0,4.8h9.977a2.4,2.4,0,0,0,0-4.8Zm-2.389-7.177H751.2a1.2,1.2,0,1,1,0-2.4h11.955a2.394,2.394,0,1,0,0-4.788H744.019a2.394,2.394,0,0,0,0,4.788,1.2,1.2,0,0,1,0,2.4H739.23a2.394,2.394,0,0,0,0,4.788h9a7.166,7.166,0,0,1,10.7,0h9a2.394,2.394,0,0,0,0-4.788Zm-14.354-11.987a4.81,4.81,0,0,0-4.14,2.4h8.279A4.808,4.808,0,0,0,753.585,872.389Zm-19.133,21.564a2.4,2.4,0,0,0,2.389,2.4h9.977a7.314,7.314,0,0,1,0-4.8h-9.977A2.4,2.4,0,0,0,734.452,893.953Zm23.921,0a4.783,4.783,0,1,0-4.788,4.788A4.784,4.784,0,0,0,758.373,893.953Zm-19.143,9.588h16.743a1.194,1.194,0,1,1,0,2.388H744.019a2.395,2.395,0,0,0,0,4.789h19.132a2.395,2.395,0,1,0,0-4.789,1.194,1.194,0,0,1,0-2.388h4.788a2.4,2.4,0,0,0,0-4.8h-9a7.164,7.164,0,0,1-10.7,0h-9a2.4,2.4,0,0,0,0,4.8ZM753.7,915.517a4.839,4.839,0,0,0,4.173-2.4h-8.345A4.839,4.839,0,0,0,753.7,915.517Zm21.413-21.564a8,8,0,0,0-2.951,9.436,4.774,4.774,0,0,1-4.226,2.54h-.649a4.779,4.779,0,0,1-4.139,7.188h-2.627a7.251,7.251,0,0,1-13.641,0h-2.864a4.779,4.779,0,0,1-4.14-7.188h-.649a54.981,54.981,0,0,0-7.166-11.976,8,8,0,0,0,2.951-9.436,4.771,4.771,0,0,1,4.215-2.541h.649a4.784,4.784,0,0,1,4.14-7.188h2.8a7.175,7.175,0,0,1,13.533,0h2.8a4.779,4.779,0,0,1,4.139,7.188h.649a55.477,55.477,0,0,0,7.177,11.977Z" fill="#ff8532"/>
    </g>
  </g>
</svg>
