<?xml version="1.0" encoding="utf-8"?>
<!-- Generator: Adobe Illustrator 25.4.1, SVG Export Plug-In . SVG Version: 6.00 Build 0)  -->
<svg version="1.1" id="Layer_1" xmlns="http://www.w3.org/2000/svg" xmlns:xlink="http://www.w3.org/1999/xlink" x="0px" y="0px"
	 viewBox="0 0 36 35" style="enable-background:new 0 0 36 35;" xml:space="preserve">
<style type="text/css">
	.st0{fill:#4848FF;}
	.st1{fill:#FFFFFF;}
	.st2{fill:#FFFFFF;stroke:#C7D0FF;stroke-linecap:round;stroke-miterlimit:10;}
</style>
<g>
	<g>
		<path class="st0" d="M9.32,34.7h17.46c5.03,0,9.1-4.07,9.1-9.1V9.27c0-5.03-4.07-9.1-9.1-9.1l-17.46,0c-5.03,0-9.1,4.07-9.1,9.1
			l0,16.33C0.22,30.63,4.3,34.7,9.32,34.7z"/>
	</g>
	<g>
		<g>
			<path class="st1" d="M24.78,10.85H11.3c-1,0-1.83,0.82-1.83,1.84v9.82c0,1,0.83,1.83,1.83,1.83h2.18l-0.33,3
				c-0.04,0.34,0.2,0.64,0.54,0.69c0.16,0.02,0.34-0.04,0.48-0.15l3.9-3.53h6.71c1.02,0,1.84-0.83,1.84-1.83v-9.82
				C26.63,11.67,25.81,10.85,24.78,10.85z"/>
		</g>
		<g>
			<rect x="12.29" y="15.69" class="st0" width="12.01" height="1"/>
		</g>
		<g>
			<rect x="12.29" y="18.35" class="st0" width="11.89" height="1"/>
		</g>
	</g>
</g>
</svg>
