<svg xmlns="http://www.w3.org/2000/svg" width="30.077" height="30.077" viewBox="0 0 30.077 30.077">
  <g id="Group_2772" data-name="Group 2772" transform="translate(-1344.625 -876.104)">
    <g id="Group_257" data-name="Group 257">
      <path id="Path_72" data-name="Path 72" d="M1357.478,890.753" fill="#4952c4"/>
      <g id="Group_256" data-name="Group 256">
        <g id="Group_251" data-name="Group 251">
          <circle id="Ellipse_2" data-name="Ellipse 2" cx="14.038" cy="14.038" r="14.038" transform="translate(1345.625 877.104)" fill="none" stroke="#4848ff" stroke-miterlimit="10" stroke-width="2"/>
        </g>
        <g id="Group_255" data-name="Group 255">
          <g id="Group_254" data-name="Group 254">
            <g id="Group_252" data-name="Group 252">
              <path id="Path_73" data-name="Path 73" d="M1363.563,897.238a5.092,5.092,0,0,1-3.069,1.263v2.237h-1.149v-2.217a7.78,7.78,0,0,1-2.607-.554,6.748,6.748,0,0,1-2.134-1.375l.533-1.006a7.726,7.726,0,0,0,2.2,1.4,6.516,6.516,0,0,0,2.423.431,4.325,4.325,0,0,0,2.709-.749,2.533,2.533,0,0,0,.964-2.124,1.751,1.751,0,0,0-.492-1.294,3.353,3.353,0,0,0-1.212-.759,20.733,20.733,0,0,0-2.01-.595,20.47,20.47,0,0,1-2.515-.769,4.038,4.038,0,0,1-1.621-1.171,3.184,3.184,0,0,1-.667-2.123,3.714,3.714,0,0,1,.554-2,4.044,4.044,0,0,1,1.57-1.437,5.578,5.578,0,0,1,2.309-.626v-2.217h1.129v2.217a6.912,6.912,0,0,1,2.278.585,6.275,6.275,0,0,1,1.867,1.282l-.533,1.006a5.8,5.8,0,0,0-4.249-1.765,4.106,4.106,0,0,0-2.657.791,2.636,2.636,0,0,0-.975,2.166,2.078,2.078,0,0,0,.533,1.487,3.389,3.389,0,0,0,1.314.852,20.789,20.789,0,0,0,2.114.616,19.278,19.278,0,0,1,2.4.728,3.89,3.89,0,0,1,1.529,1.088,2.908,2.908,0,0,1,.626,1.96A3.509,3.509,0,0,1,1363.563,897.238Z" fill="#4848ff"/>
            </g>
            <g id="Group_253" data-name="Group 253">
              <path id="Path_74" data-name="Path 74" d="M1363.563,897.238a5.092,5.092,0,0,1-3.069,1.263v2.237h-1.149v-2.217a7.78,7.78,0,0,1-2.607-.554,6.748,6.748,0,0,1-2.134-1.375l.533-1.006a7.726,7.726,0,0,0,2.2,1.4,6.516,6.516,0,0,0,2.423.431,4.325,4.325,0,0,0,2.709-.749,2.533,2.533,0,0,0,.964-2.124,1.751,1.751,0,0,0-.492-1.294,3.353,3.353,0,0,0-1.212-.759,20.733,20.733,0,0,0-2.01-.595,20.47,20.47,0,0,1-2.515-.769,4.038,4.038,0,0,1-1.621-1.171,3.184,3.184,0,0,1-.667-2.123,3.714,3.714,0,0,1,.554-2,4.044,4.044,0,0,1,1.57-1.437,5.578,5.578,0,0,1,2.309-.626v-2.217h1.129v2.217a6.912,6.912,0,0,1,2.278.585,6.275,6.275,0,0,1,1.867,1.282l-.533,1.006a5.8,5.8,0,0,0-4.249-1.765,4.106,4.106,0,0,0-2.657.791,2.636,2.636,0,0,0-.975,2.166,2.078,2.078,0,0,0,.533,1.487,3.389,3.389,0,0,0,1.314.852,20.789,20.789,0,0,0,2.114.616,19.278,19.278,0,0,1,2.4.728,3.89,3.89,0,0,1,1.529,1.088,2.908,2.908,0,0,1,.626,1.96A3.509,3.509,0,0,1,1363.563,897.238Z" fill="none" stroke="#4848ff" stroke-miterlimit="10" stroke-width="0.75"/>
            </g>
          </g>
        </g>
      </g>
    </g>
  </g>
</svg>
