<svg xmlns="http://www.w3.org/2000/svg" width="14.619" height="12" viewBox="0 0 14.619 12">
  <g id="Group_2773" data-name="Group 2773" transform="translate(-5240.325 -193.804)">
    <g id="Group_2279" data-name="Group 2279">
      <g id="Group_2276" data-name="Group 2276">
        <g id="Group_2275" data-name="Group 2275">
          <path id="Path_714" data-name="Path 714" d="M5254.944,196.664v3.027a.276.276,0,0,0-.019.038,1.166,1.166,0,0,1-1.236.96h-4.776c-.183-.8-.623-1.21-1.285-1.206s-1.1.416-1.269,1.2a.28.28,0,0,1-.052.009c-1.618,0-3.236,0-4.854,0a1.108,1.108,0,0,1-.771-.325,1.327,1.327,0,0,1-.357-.669v-3.027a1.256,1.256,0,0,1,1.439-.994h2.559c.011-.045.021-.081.029-.118a2.217,2.217,0,0,1,2.155-1.743c.757-.005,1.513-.01,2.27,0a2.109,2.109,0,0,1,1.842,1.038,6.427,6.427,0,0,1,.37.821h.118c.866,0,1.732-.005,2.6,0a1.189,1.189,0,0,1,1.135.7A2.616,2.616,0,0,1,5254.944,196.664Zm-5.14-1a1.1,1.1,0,0,0-1.057-.768q-1.113,0-2.225,0a1.292,1.292,0,0,0-.255.028,1.053,1.053,0,0,0-.793.739Z" fill="#4848ff"/>
        </g>
      </g>
      <g id="Group_2277" data-name="Group 2277">
        <path id="Path_715" data-name="Path 715" d="M5240.616,201.357a2.585,2.585,0,0,0,1.241.2c1.465,0,2.931,0,4.4,0a.212.212,0,0,1,.231.145,1.252,1.252,0,0,0,2.3,0,.21.21,0,0,1,.23-.146c1.542.005,3.084,0,4.625.005a2.324,2.324,0,0,0,.948-.167.37.37,0,0,1,.065-.013v.162q0,1.5,0,3a1.174,1.174,0,0,1-1.265,1.264q-5.752,0-11.506,0a1.175,1.175,0,0,1-1.266-1.263v-3.183Z" fill="#4848ff"/>
      </g>
      <g id="Group_2278" data-name="Group 2278">
        <path id="Path_716" data-name="Path 716" d="M5246.91,201a2.344,2.344,0,0,1,.035-.339.713.713,0,0,1,1.4.157c0,.123,0,.247,0,.371a.715.715,0,0,1-1.429,0c0-.062,0-.124,0-.186Z" fill="#4848ff"/>
      </g>
    </g>
  </g>
</svg>
