<svg xmlns="http://www.w3.org/2000/svg" viewBox="0 0 29.08 29.08"><defs><style>.cls-1{fill:none;stroke:#091135;stroke-miterlimit:10;}.cls-2{fill:#091135;}</style></defs><g id="Layer_2" data-name="Layer 2"><g id="Layer_1-2" data-name="Layer 1"><circle class="cls-1" cx="14.54" cy="14.54" r="14.04"/><path class="cls-2" d="M18.44,20.63a5.15,5.15,0,0,1-3.07,1.27v2.23H14.22V21.92a7.75,7.75,0,0,1-2.61-.56A6.82,6.82,0,0,1,9.48,20L10,19a7.63,7.63,0,0,0,2.2,1.4,6.44,6.44,0,0,0,2.42.43,4.32,4.32,0,0,0,2.71-.75,2.54,2.54,0,0,0,1-2.12,1.75,1.75,0,0,0-.49-1.3,3.33,3.33,0,0,0-1.21-.76c-.48-.17-1.15-.37-2-.59a20.52,20.52,0,0,1-2.51-.77,4,4,0,0,1-1.63-1.17,3.23,3.23,0,0,1-.66-2.13,3.74,3.74,0,0,1,.55-2,4,4,0,0,1,1.57-1.43,5.58,5.58,0,0,1,2.31-.63V4.94h1.13V7.16a7,7,0,0,1,2.28.58A6.26,6.26,0,0,1,19.49,9L19,10a5.81,5.81,0,0,0-4.25-1.76,4.09,4.09,0,0,0-2.66.79,2.64,2.64,0,0,0-1,2.16,2.09,2.09,0,0,0,.53,1.49,3.38,3.38,0,0,0,1.32.85,18.67,18.67,0,0,0,2.11.62,19.39,19.39,0,0,1,2.4.73A3.88,3.88,0,0,1,19,16a2.87,2.87,0,0,1,.63,2A3.5,3.5,0,0,1,18.44,20.63Z"/></g></g></svg>