<svg xmlns="http://www.w3.org/2000/svg" width="16" height="15" viewBox="0 0 16 15"><g transform="translate(-1327.662 -474.796)"><path d="M977.813,384.27v3.171a.471.471,0,0,1-.259.419L975,389.137v-3.46l2.756-1.378Z" transform="translate(361.131 93.159)" fill="#4848ff"/><path d="M1066.875,420.469v3.465l-.471-.242-.466.242v-3H1065V420h1.406a.476.476,0,0,1,.07.006.468.468,0,0,1,.4.447C1066.874,420.458,1066.875,420.463,1066.875,420.469Z" transform="translate(273.943 58.546)" fill="#4848ff"/><path d="M1013.253,539.821,1010,541.434l-3.226-1.613,2.757-1.429.466-.242.471.242Z" transform="translate(330.354 -55.912)" fill="#4848ff"/><path d="M706.844,625.686v3.46l-2.585-1.277a.469.469,0,0,1-.259-.419v-3.17l1.436.71Z" transform="translate(623.662 -139.35)" fill="#4848ff"/><path d="M827.813,624.27v3.171a.469.469,0,0,1-.17.361.475.475,0,0,1-.089.059L825,629.137v-3.46l2.756-1.378Z" transform="translate(506.443 -139.341)" fill="#4848ff"/><path d="M1007.813,625.686v3.46l-2.553-1.277a.452.452,0,0,1-.09-.06l-.019-.017a.476.476,0,0,1-.035-.037.469.469,0,0,1-.1-.2.452.452,0,0,1-.012-.1v-3.17l1.42.71Z" transform="translate(332.068 -139.35)" fill="#4848ff"/><path d="M1127.844,624.27v3.171a.469.469,0,0,1-.259.419L1125,629.137v-3.46l2.787-1.378Z" transform="translate(215.818 -139.341)" fill="#4848ff"/><path d="M796.875,420v.938h-.937v3l-.466-.242-.471.242v-3.465a.469.469,0,0,1,.469-.469Z" transform="translate(535.506 58.546)" fill="#4848ff"/><path d="M712.253,539.821l-3.226,1.613-3.257-1.613,2.48-1.271.169-.087.139-.072.471-.242.466.242Z" transform="translate(621.947 -55.912)" fill="#4848ff"/><path d="M863.222,301.62,860,303.233l-3.226-1.613,1.5-.777,1.517-.786a.478.478,0,0,1,.1-.035.527.527,0,0,1,.056-.011.474.474,0,0,1,.115,0,.539.539,0,0,1,.057.011.464.464,0,0,1,.1.035l1.522.789Z" transform="translate(475.666 174.789)" fill="#4848ff"/><path d="M857.813,385.686v3.46l-2.553-1.277a.469.469,0,0,1-.259-.419v-3.17Z" transform="translate(477.381 93.15)" fill="#4848ff"/></g></svg>