<svg xmlns="http://www.w3.org/2000/svg" width="10.823" height="14.409" viewBox="0 0 10.823 14.409">
  <g id="Group_2771" data-name="Group 2771" transform="translate(-4974.622 -191.804)">
    <g id="Group_2287" data-name="Group 2287">
      <path id="Path_718" data-name="Path 718" d="M4984.954,204.674a.27.27,0,0,1-.11-.25c-.02-.57,0-1.14-.06-1.711a3.615,3.615,0,0,0-.86-2c-.34-.379-.73-.73-1.1-1.079-.22-.21-.45-.411-.69-.62.15-.14.29-.261.43-.39a12.061,12.061,0,0,0,1.41-1.371,4.129,4.129,0,0,0,.85-2.27c.02-.469.01-.949.02-1.429a.24.24,0,0,1,.05-.15,1.269,1.269,0,0,0,.55-1.161c-.01-.35-.09-.439-.45-.439h-10.02a.323.323,0,0,0-.35.339c0,.1,0,.211.01.31a1.143,1.143,0,0,0,.47.9.243.243,0,0,1,.12.24c.02.569,0,1.149.06,1.71a3.611,3.611,0,0,0,.86,2c.34.39.73.73,1.1,1.089.22.211.45.411.69.621-.16.14-.3.27-.45.4a11.828,11.828,0,0,0-1.39,1.351,4.157,4.157,0,0,0-.85,2.27c-.02.48-.01.959-.02,1.439a.2.2,0,0,1-.05.141,1.283,1.283,0,0,0-.55,1.2.4.4,0,0,0,.23.4h10.36a.369.369,0,0,0,.23-.4c-.01-.081,0-.151-.01-.23A1.1,1.1,0,0,0,4984.954,204.674Zm-7.48-3.63c.56-.5,1.11-1.01,1.67-1.51a.618.618,0,0,0,0-1.051c-.6-.539-1.22-1.079-1.81-1.639a2.918,2.918,0,0,1-.9-2.06c-.01-.391,0-.77,0-1.17h7.18c.01.01.02.01.02.02-.01.52.01,1.04-.05,1.54a2.832,2.832,0,0,1-.99,1.809c-.56.5-1.12,1.01-1.68,1.51a.622.622,0,0,0,0,1.041c.61.55,1.23,1.09,1.82,1.649a2.644,2.644,0,0,1,.49.621h-6.37A3.267,3.267,0,0,1,4977.474,201.044Zm2.47,1.76c-.15-.19.15-.19,0,0Z" fill="#4848ff"/>
    </g>
  </g>
</svg>
