<svg xmlns="http://www.w3.org/2000/svg" width="13" height="13" viewBox="0 0 13 13">
  <g id="Group_5019" data-name="Group 5019" transform="translate(-630.612 -1425)">
    <path id="Path_95" data-name="Path 95" d="M634.134,1428.479h-.163l-.3,1.523h.772Z" fill="#4848ff"/>
    <path id="Path_96" data-name="Path 96" d="M640.92,1432.629a4.006,4.006,0,0,0,.651-1.1h-1.276A3.992,3.992,0,0,0,640.92,1432.629Z" fill="#4848ff"/>
    <path id="Path_97" data-name="Path 97" d="M642.469,1427.311h-4.73l.987,7.913a1.18,1.18,0,0,1-.283.867l-1.67,1.909h5.7a1.145,1.145,0,0,0,1.143-1.143v-8.378A1.166,1.166,0,0,0,642.469,1427.311Zm0,4.214h-.1a4.821,4.821,0,0,1-.917,1.669c.28.255.579.465.876.7a.381.381,0,0,1-.476.595c-.323-.256-.626-.469-.93-.747-.3.278-.581.491-.9.747a.381.381,0,0,1-.476-.595c.3-.235.571-.445.851-.7a4.8,4.8,0,0,1-.892-1.669h-.1a.38.38,0,1,1,0-.761h1.142v-.381a.381.381,0,1,1,.762,0v.381h1.168a.38.38,0,1,1,0,.761Z" fill="#4848ff"/>
    <path id="Path_98" data-name="Path 98" d="M631.754,1435.715h6.007c.111-.127.2-.207.208-.372,0-.042-1.153-9.3-1.158-9.342a1.143,1.143,0,0,0-1.133-1h-3.924a1.144,1.144,0,0,0-1.142,1.143v8.429A1.144,1.144,0,0,0,631.754,1435.715Zm1.531-7.692a.381.381,0,0,1,.374-.306h.787a.381.381,0,0,1,.373.306l.762,3.808a.381.381,0,1,1-.747.15l-.243-1.217h-1.077l-.244,1.217a.38.38,0,1,1-.746-.15Z" fill="#4848ff"/>
    <path id="Path_99" data-name="Path 99" d="M635.786,1437.884l1.278-1.407h-2l.065.522A1.152,1.152,0,0,0,635.786,1437.884Z" fill="#4848ff"/>
  </g>
</svg>
