<svg xmlns="http://www.w3.org/2000/svg" width="19.906" height="19.905" viewBox="0 0 19.906 19.905">
  <path id="Path_1571" data-name="Path 1571" d="M1445.858,144.627h-6.342v-6.341a1.62,1.62,0,0,0-1.62-1.621h-.74a1.621,1.621,0,0,0-1.621,1.621v6.341h-6.341a1.621,1.621,0,0,0-1.621,1.621v.739a1.621,1.621,0,0,0,1.621,1.621h6.341v6.342a1.62,1.62,0,0,0,1.621,1.62h.74a1.62,1.62,0,0,0,1.62-1.62v-6.342h6.342a1.621,1.621,0,0,0,1.621-1.621v-.739A1.621,1.621,0,0,0,1445.858,144.627Z" transform="translate(-1427.573 -136.665)" fill="#fff" fill-rule="evenodd"/>
</svg>
