<svg xmlns="http://www.w3.org/2000/svg" width="35.022" height="38.969" viewBox="0 0 35.022 38.969">
  <path id="Path_2400" data-name="Path 2400" d="M2184.663,45.431h-8.116a5.838,5.838,0,0,1,0,3.9h8.116a1.952,1.952,0,0,0,0-3.9Zm-1.944-5.839H2169.1a.976.976,0,1,1,0-1.952h9.725a1.948,1.948,0,1,0,0-3.9h-15.563a1.948,1.948,0,0,0,0,3.9.976.976,0,1,1,0,1.952h-3.9a1.948,1.948,0,0,0,0,3.9h7.324a5.829,5.829,0,0,1,8.705,0h7.324a1.948,1.948,0,0,0,0-3.9Zm-11.676-9.751a3.911,3.911,0,0,0-3.368,1.952h6.735A3.909,3.909,0,0,0,2171.043,29.841Zm-15.564,17.542a1.952,1.952,0,0,0,1.944,1.952h8.115a5.951,5.951,0,0,1,0-3.9h-8.115A1.952,1.952,0,0,0,2155.479,47.383Zm19.459,0a3.891,3.891,0,1,0-3.9,3.9A3.892,3.892,0,0,0,2174.938,47.383Zm-15.572,7.8h13.62a.972.972,0,1,1,0,1.943h-9.725a1.948,1.948,0,0,0,0,3.9h15.563a1.948,1.948,0,1,0,0-3.9.972.972,0,0,1,0-1.943h3.9a1.952,1.952,0,0,0,0-3.9H2175.4a5.829,5.829,0,0,1-8.705,0h-7.324a1.952,1.952,0,0,0,0,3.9Zm11.773,9.742a3.934,3.934,0,0,0,3.394-1.952h-6.788A3.935,3.935,0,0,0,2171.139,64.924Zm17.419-17.541a3.9,3.9,0,0,1-2.6,3.675,3.9,3.9,0,0,1-3.236,6.067h-.527a3.887,3.887,0,0,1-3.368,5.847h-2.136a5.9,5.9,0,0,1-11.1,0h-2.33a3.888,3.888,0,0,1-3.368-5.847h-.527a3.9,3.9,0,0,1-3.227-6.067,3.9,3.9,0,0,1,0-7.351,3.9,3.9,0,0,1,3.227-6.067h.527a3.893,3.893,0,0,1,3.368-5.847h2.277a5.837,5.837,0,0,1,11.009,0h2.277a3.887,3.887,0,0,1,3.368,5.847h.527a3.9,3.9,0,0,1,3.236,6.067A3.9,3.9,0,0,1,2188.558,47.383Z" transform="translate(-2153.536 -27.898)" fill="#fff"/>
</svg>
