<svg xmlns="http://www.w3.org/2000/svg" width="45.502" height="40.635" viewBox="0 0 45.502 40.635"><g transform="translate(-730.839 -603)"><path d="M743.857,640.35l5.961,1.582v-2.068l.487-.487h3.407v4.137h-3.65l-4.5-1.947Zm0,0" fill="#cdbdb2" fill-rule="evenodd"/><path d="M763.323,640.35l-5.84,1.582v-2.068l-.487-.487H753.59v4.137h3.65l4.5-1.947Zm0,0" fill="#cdbdb2" fill-rule="evenodd"/><path d="M750.3,635.849l-.487,4.015.609-.487h6.326l.73.487L757,635.849l-.973-.608-4.866.121Zm0,0" fill="#393939" fill-rule="evenodd"/><path d="M747.02,608.718l2.92,6.813,1.338,19.831h4.745l1.46-19.831,2.677-6.813Zm0,0" fill="#f89c35" fill-rule="evenodd"/><path d="M734.246,623.683l-3.407,9.854,8.517-.486h5.474v-4.259l-.243-8.759-1.217.973Zm0,0" fill="#f89d35" fill-rule="evenodd"/><path d="M740.694,624.778l9.976.243-1.095,5.11-4.745-1.217Zm0,0" fill="#d87c30" fill-rule="evenodd"/><path d="M740.694,624.9l4.136,3.893v3.894Zm0,0" fill="#ea8d3a" fill-rule="evenodd"/><path d="M744.83,628.914l4.867,1.217,1.581,5.231-1.1.608-5.353-3.163Zm0,0" fill="#f89d35" fill-rule="evenodd"/><path d="M744.83,632.807l-.973,7.543,6.448-4.5Zm0,0" fill="#eb8f35" fill-rule="evenodd"/><path d="M750.67,625.021l.608,10.341-1.825-5.292Zm0,0" fill="#ea8e3a" fill-rule="evenodd"/><path d="M739.234,632.929l5.6-.122-.973,7.543Zm0,0" fill="#d87c30" fill-rule="evenodd"/><path d="M733.516,643.635l10.341-3.285-4.623-7.421-8.4.608Zm0,0" fill="#eb8f35" fill-rule="evenodd"/><path d="M749.94,615.531l-5.231,4.38-4.015,4.867,9.976.365Zm0,0" fill="#e8821e" fill-rule="evenodd"/><path d="M743.857,640.35l6.448-4.5-.487,3.893v2.19l-4.38-.852Zm0,0" fill="#dfcec3" fill-rule="evenodd"/><path d="M763.323,640.35l-6.327-4.5.487,3.893v2.19l4.38-.852Zm0,0" fill="#dfcec3" fill-rule="evenodd"/><path d="M747.994,627.211l1.338,2.8-4.745-1.217Zm0,0" fill="#393939" fill-rule="evenodd"/><path d="M733.394,603l16.546,12.531-2.8-6.813Zm0,0" fill="#e88f35" fill-rule="evenodd"/><path d="M733.394,603l-2.19,6.692,1.217,7.3-.852.487,1.217,1.095-.974.851,1.339,1.217-.852.73,1.947,2.433,9.124-2.8q6.691-5.353,6.57-5.475T733.394,603Zm0,0" fill="#8e5a30" fill-rule="evenodd"/><path d="M772.934,623.683l3.407,9.854-8.517-.486H762.35v-4.259l.243-8.759,1.217.973Zm0,0" fill="#f89d35" fill-rule="evenodd"/><path d="M766.486,624.778l-9.976.243,1.095,5.11,4.745-1.217Zm0,0" fill="#d87c30" fill-rule="evenodd"/><path d="M766.486,624.9l-4.136,3.893v3.894Zm0,0" fill="#ea8d3a" fill-rule="evenodd"/><path d="M762.35,628.914l-4.867,1.217-1.581,5.231,1.094.608,5.354-3.163Zm0,0" fill="#f89d35" fill-rule="evenodd"/><path d="M762.35,632.807l.973,7.543L757,635.97Zm0,0" fill="#eb8f35" fill-rule="evenodd"/><path d="M756.51,625.021l-.608,10.341,1.824-5.292Zm0,0" fill="#ea8e3a" fill-rule="evenodd"/><path d="M767.946,632.929l-5.6-.122.973,7.543Zm0,0" fill="#d87c30" fill-rule="evenodd"/><path d="M773.664,643.635l-10.341-3.285,4.623-7.421,8.4.608Zm0,0" fill="#eb8f35" fill-rule="evenodd"/><path d="M757.24,615.531l5.231,4.38,4.015,4.867-9.976.365Zm0,0" fill="#e8821e" fill-rule="evenodd"/><path d="M759.186,627.211l-1.338,2.8,4.745-1.217Zm0,0" fill="#393939" fill-rule="evenodd"/><path d="M773.786,603,757.24,615.531l2.8-6.813Zm0,0" fill="#e88f35" fill-rule="evenodd"/><path d="M773.786,603l2.19,6.692-1.217,7.3.852.487-1.217,1.095.974.851-1.339,1.217.852.73-1.947,2.433-9.124-2.8q-6.691-5.353-6.57-5.475T773.786,603Zm0,0" fill="#8e5a30" fill-rule="evenodd"/></g></svg>