<svg xmlns="http://www.w3.org/2000/svg" width="24.745" height="27.466" viewBox="0 0 24.745 27.466"><g transform="translate(-1826.602 -31.003)"><path d="M1833.317,55.179a4.113,4.113,0,0,0,8.06,0Z" fill="#fff"/><path d="M1847.882,49.919a7.305,7.305,0,0,1-1.77-2.23,9.223,9.223,0,0,1-2.24.27,9.48,9.48,0,0,1-8.26-14.15,7.675,7.675,0,0,0-5.72,7.42v3.06a7.35,7.35,0,0,1-2.62,5.63,1.953,1.953,0,0,0-.67,1.46,1.92,1.92,0,0,0,1.92,1.92h18.12a1.92,1.92,0,0,0,1.92-1.92A1.894,1.894,0,0,0,1847.882,49.919Z" fill="#fff"/><path d="M1851.347,38.479a7.484,7.484,0,0,1-7.476,7.476,7.617,7.617,0,0,1-1.915-.241,7.471,7.471,0,0,1-2.9-12.953,7.472,7.472,0,0,1,12.287,5.718Z" fill="#fff"/></g></svg>