<svg xmlns="http://www.w3.org/2000/svg" width="17.668" height="12.22" viewBox="0 0 17.668 12.22">
  <g id="Group_3176" data-name="Group 3176" transform="translate(-767.491 -471.75)">
    <path id="Path_1577" data-name="Path 1577" d="M784.125,409.848h-1.23l-.871-1.653a1.055,1.055,0,0,0-.988-.549,1.042,1.042,0,0,0-.918.655l-1.7,4.395-2.445-7.008a1.054,1.054,0,0,0-1.974-.009l-1.877,5.217-.325-.544a1.053,1.053,0,0,0-.9-.5h-1.851a1.013,1.013,0,1,0,0,2.024h1.25l1.163,1.945a1.057,1.057,0,0,0,1.888-.175l1.625-4.516,2.41,6.907a1.055,1.055,0,0,0,1.966.031l1.9-4.9.086.162a1.043,1.043,0,0,0,.929.551h1.868a1.013,1.013,0,1,0,0-2.024Zm0,0" transform="translate(-0.259 67)" fill="#4848ff" stroke="#4848ff" stroke-width="0.5"/>
  </g>
</svg>
