<svg xmlns="http://www.w3.org/2000/svg" width="11.245" height="12.795" viewBox="0 0 11.245 12.795">
  <g id="Group_1315" data-name="Group 1315" transform="translate(-1316.671 -476.227)">
    <path id="Path_345" data-name="Path 345" d="M1322.294,482.974a3.374,3.374,0,1,1,3.373-3.373A3.377,3.377,0,0,1,1322.294,482.974Z" fill="#4848ff"/>
    <path id="Path_346" data-name="Path 346" d="M1327.542,489.022h-10.5a.375.375,0,0,1-.375-.375,4.92,4.92,0,0,1,1.425-3.469,4.813,4.813,0,0,1,3.448-1.454h1.5a4.811,4.811,0,0,1,3.448,1.454,4.92,4.92,0,0,1,1.425,3.469A.374.374,0,0,1,1327.542,489.022Z" fill="#4848ff"/>
  </g>
</svg>
