<svg xmlns="http://www.w3.org/2000/svg" width="14.62" height="12" viewBox="0 0 14.62 12">
  <g id="Group_147" data-name="Group 147" transform="translate(-741.584 -288.297)">
    <g id="Group_146" data-name="Group 146">
      <g id="Group_143" data-name="Group 143">
        <g id="Group_142" data-name="Group 142">
          <path id="Path_64" data-name="Path 64" d="M756.2,291.158v3.026a.233.233,0,0,0-.02.038,1.165,1.165,0,0,1-1.236.96h-4.776c-.183-.8-.623-1.21-1.285-1.206s-1.1.416-1.268,1.2a.294.294,0,0,1-.053.009c-1.618,0-3.236,0-4.854,0a1.107,1.107,0,0,1-.77-.325,1.339,1.339,0,0,1-.358-.669v-3.026a1.257,1.257,0,0,1,1.44-.995h2.559c.011-.045.021-.081.029-.118a2.218,2.218,0,0,1,2.155-1.743c.756-.005,1.513-.01,2.269,0a2.11,2.11,0,0,1,1.843,1.038,6.555,6.555,0,0,1,.369.821h.119c.866,0,1.732-.005,2.6,0a1.189,1.189,0,0,1,1.135.7A2.6,2.6,0,0,1,756.2,291.158Zm-5.14-1a1.1,1.1,0,0,0-1.057-.768q-1.113,0-2.226,0a1.275,1.275,0,0,0-.254.028,1.05,1.05,0,0,0-.793.739Z" fill="#FFFFFF"/>
        </g>
      </g>
      <g id="Group_144" data-name="Group 144">
        <path id="Path_65" data-name="Path 65" d="M741.876,295.85a2.584,2.584,0,0,0,1.24.2c1.466,0,2.932,0,4.4,0a.212.212,0,0,1,.231.145,1.252,1.252,0,0,0,2.3,0,.212.212,0,0,1,.231-.146c1.542.005,3.083,0,4.625.005a2.317,2.317,0,0,0,.947-.167.376.376,0,0,1,.066-.013v3.16a1.175,1.175,0,0,1-1.266,1.264q-5.752,0-11.5,0a1.175,1.175,0,0,1-1.266-1.263q0-1.506,0-3.012Z" fill="#FFFFFF"/>
      </g>
      <g id="Group_145" data-name="Group 145">
        <path id="Path_66" data-name="Path 66" d="M748.169,295.495a2.509,2.509,0,0,1,.035-.339.713.713,0,0,1,1.405.157c0,.123,0,.247,0,.371a.714.714,0,0,1-1.428,0c0-.062,0-.124,0-.186Z" fill="#FFFFFF"/>
      </g>
    </g>
  </g>
</svg>
