<svg xmlns="http://www.w3.org/2000/svg" width="14.253" height="14.253" viewBox="0 0 14.253 14.253">
  <g id="Group_1063" data-name="Group 1063" transform="translate(-915.421 -1717.507)">
    <g id="Group_1062" data-name="Group 1062">
      <path id="Path_136" data-name="Path 136" d="M915.421,1724.631a7.126,7.126,0,1,1,7.047,7.129A7.137,7.137,0,0,1,915.421,1724.631Zm1.3,0a5.83,5.83,0,1,0,5.838-5.823A5.833,5.833,0,0,0,916.718,1724.628Z" fill="#4848ff"/>
      <path id="Path_137" data-name="Path 137" d="M921.9,1725.607c0-.754-.005-1.507,0-2.26a.644.644,0,1,1,1.287,0c0,.551,0,1.1,0,1.653,0,.951,0,1.9,0,2.851a.644.644,0,1,1-1.288,0Q921.9,1726.729,921.9,1725.607Z" fill="#4848ff"/>
      <path id="Path_138" data-name="Path 138" d="M923.191,1721.4a.644.644,0,1,1-.644-.647A.645.645,0,0,1,923.191,1721.4Z" fill="#4848ff"/>
    </g>
  </g>
</svg>
