<svg xmlns="http://www.w3.org/2000/svg" xmlns:xlink="http://www.w3.org/1999/xlink" width="498.932" height="391.196" viewBox="0 0 498.932 391.196">
  <defs>
    <clipPath id="clip-path">
      <path id="Path_2662" data-name="Path 2662" d="M-681.662,7319.835h-433.3v234.014h433.3V7319.835Z" transform="translate(1114.966 -7319.835)" fill="none" clip-rule="evenodd"/>
    </clipPath>
    <clipPath id="clip-path-3">
      <path id="Intersection_3" data-name="Intersection 3" d="M7.44,52.111,0,0H152.182L145.8,53.175Z" fill="none"/>
    </clipPath>
  </defs>
  <g id="Group_5410" data-name="Group 5410" transform="translate(1171.198 -7132.427)">
    <g id="Group_5412" data-name="Group 5412" transform="translate(-957.33 7132.427)">
      <g id="Group_5411" data-name="Group 5411">
        <path id="Path_2600" data-name="Path 2600" d="M-667.355,7565.132h-35.274a1.438,1.438,0,0,1-1.439-1.439v-35.273a1.439,1.439,0,0,1,1.439-1.439h35.274a1.439,1.439,0,0,1,1.439,1.439v35.273A1.438,1.438,0,0,1-667.355,7565.132Zm-33.835-2.878h32.4v-32.4h-32.4Z" transform="translate(880.434 -7197.5)" fill="#e3e4ff"/>
        <path id="Path_2601" data-name="Path 2601" d="M-667.355,7522.891h-35.274a1.438,1.438,0,0,1-1.439-1.438v-35.273a1.437,1.437,0,0,1,1.439-1.438h35.274a1.438,1.438,0,0,1,1.439,1.438v35.273A1.438,1.438,0,0,1-667.355,7522.891Zm-33.835-2.877h32.4v-32.4h-32.4Z" transform="translate(880.434 -7190.534)" fill="#e3e4ff"/>
        <path id="Path_2602" data-name="Path 2602" d="M-667.355,7565.132a1.432,1.432,0,0,1-1.017-.421l-35.274-35.273a1.439,1.439,0,0,1,0-2.035,1.439,1.439,0,0,1,2.035,0l35.273,35.274a1.438,1.438,0,0,1,0,2.035A1.432,1.432,0,0,1-667.355,7565.132Z" transform="translate(880.434 -7197.501)" fill="#e3e4ff"/>
        <path id="Path_2603" data-name="Path 2603" d="M-667.355,7522.891a1.435,1.435,0,0,1-1.017-.421l-35.274-35.273a1.439,1.439,0,0,1,0-2.035,1.438,1.438,0,0,1,2.035,0l35.273,35.273a1.439,1.439,0,0,1,0,2.035A1.435,1.435,0,0,1-667.355,7522.891Z" transform="translate(880.434 -7190.534)" fill="#e3e4ff"/>
        <path id="Path_2604" data-name="Path 2604" d="M-667.355,7480.651h-35.274a1.439,1.439,0,0,1-1.439-1.439v-35.272a1.437,1.437,0,0,1,1.439-1.438h35.274a1.438,1.438,0,0,1,1.439,1.438v35.272A1.439,1.439,0,0,1-667.355,7480.651Zm-33.835-2.877h32.4v-32.4h-32.4Z" transform="translate(880.434 -7183.568)" fill="#e3e4ff"/>
        <path id="Path_2605" data-name="Path 2605" d="M-667.355,7438.412h-35.274a1.439,1.439,0,0,1-1.439-1.439V7401.7a1.438,1.438,0,0,1,1.439-1.439h35.274a1.438,1.438,0,0,1,1.439,1.439v35.274A1.439,1.439,0,0,1-667.355,7438.412Zm-33.835-2.877h32.4v-32.4h-32.4Z" transform="translate(880.434 -7176.601)" fill="#e3e4ff"/>
        <path id="Path_2606" data-name="Path 2606" d="M-667.355,7480.651a1.436,1.436,0,0,1-1.017-.421l-35.274-35.273a1.438,1.438,0,0,1,0-2.034,1.438,1.438,0,0,1,2.035,0l35.273,35.272a1.439,1.439,0,0,1,0,2.035A1.436,1.436,0,0,1-667.355,7480.651Z" transform="translate(880.434 -7183.568)" fill="#e3e4ff"/>
        <path id="Path_2607" data-name="Path 2607" d="M-667.355,7438.412a1.434,1.434,0,0,1-1.017-.422l-35.274-35.274a1.438,1.438,0,0,1,0-2.034,1.438,1.438,0,0,1,2.035,0l35.273,35.274a1.438,1.438,0,0,1,0,2.034A1.434,1.434,0,0,1-667.355,7438.412Z" transform="translate(880.434 -7176.601)" fill="#e3e4ff"/>
        <path id="Path_2608" data-name="Path 2608" d="M-667.355,7396.171h-35.274a1.439,1.439,0,0,1-1.439-1.439v-35.273a1.439,1.439,0,0,1,1.439-1.439h35.274a1.439,1.439,0,0,1,1.439,1.439v35.273A1.439,1.439,0,0,1-667.355,7396.171Zm-33.835-2.878h32.4v-32.4h-32.4Z" transform="translate(880.434 -7169.634)" fill="#e3e4ff"/>
        <path id="Path_2609" data-name="Path 2609" d="M-667.355,7353.931h-35.274a1.438,1.438,0,0,1-1.439-1.438v-35.274a1.439,1.439,0,0,1,1.439-1.438h35.274a1.439,1.439,0,0,1,1.439,1.438v35.274A1.438,1.438,0,0,1-667.355,7353.931Zm-33.835-2.878h32.4v-32.4h-32.4Z" transform="translate(880.434 -7162.667)" fill="#e3e4ff"/>
        <path id="Path_2610" data-name="Path 2610" d="M-667.355,7396.171a1.432,1.432,0,0,1-1.017-.422l-35.274-35.273a1.438,1.438,0,0,1,0-2.034,1.44,1.44,0,0,1,2.035,0l35.273,35.273a1.438,1.438,0,0,1,0,2.034A1.432,1.432,0,0,1-667.355,7396.171Z" transform="translate(880.434 -7169.634)" fill="#e3e4ff"/>
        <path id="Path_2611" data-name="Path 2611" d="M-709.6,7212.818h-35.272a1.439,1.439,0,0,1-1.439-1.439v-35.273a1.439,1.439,0,0,1,1.439-1.438H-709.6a1.438,1.438,0,0,1,1.439,1.438v35.273A1.438,1.438,0,0,1-709.6,7212.818Zm-33.834-2.878h32.395v-32.4h-32.395Z" transform="translate(887.401 -7139.394)" fill="#e3e4ff"/>
        <path id="Path_2612" data-name="Path 2612" d="M-667.355,7205.852h-35.274a1.439,1.439,0,0,1-1.439-1.439,1.439,1.439,0,0,1,1.439-1.438h33.835v-69.108a1.438,1.438,0,0,1,1.439-1.437,1.438,1.438,0,0,1,1.439,1.438v70.547A1.439,1.439,0,0,1-667.355,7205.852Z" transform="translate(880.434 -7132.427)" fill="#e3e4ff"/>
        <path id="Path_2613" data-name="Path 2613" d="M-702.63,7205.852a1.428,1.428,0,0,1-.642-.152,1.437,1.437,0,0,1-.644-1.93l35.274-70.547a1.438,1.438,0,0,1,1.931-.644,1.439,1.439,0,0,1,.643,1.931l-35.273,70.546A1.44,1.44,0,0,1-702.63,7205.852Z" transform="translate(880.434 -7132.427)" fill="#e3e4ff"/>
        <path id="Path_2614" data-name="Path 2614" d="M-751.835,7212.818h-35.273a1.438,1.438,0,0,1-1.439-1.439v-35.273a1.438,1.438,0,0,1,1.439-1.438h35.273a1.438,1.438,0,0,1,1.439,1.438v35.273A1.438,1.438,0,0,1-751.835,7212.818Zm-33.835-2.878h32.4v-32.4h-32.4Z" transform="translate(894.367 -7139.394)" fill="#e3e4ff"/>
        <path id="Path_2615" data-name="Path 2615" d="M-744.868,7212.818a1.435,1.435,0,0,1-1.017-.422,1.438,1.438,0,0,1,0-2.034l35.272-35.273a1.438,1.438,0,0,1,2.035,0,1.439,1.439,0,0,1,0,2.035L-743.85,7212.4A1.436,1.436,0,0,1-744.868,7212.818Z" transform="translate(887.401 -7139.394)" fill="#e3e4ff"/>
        <path id="Path_2616" data-name="Path 2616" d="M-625.114,7212.818h-35.274a1.439,1.439,0,0,1-1.439-1.439v-35.273a1.439,1.439,0,0,1,1.439-1.438h35.274a1.439,1.439,0,0,1,1.439,1.438v35.273A1.439,1.439,0,0,1-625.114,7212.818Zm-33.835-2.878h32.4v-32.4h-32.4Z" transform="translate(873.467 -7139.394)" fill="#e3e4ff"/>
        <path id="Path_2617" data-name="Path 2617" d="M-660.388,7212.818a1.432,1.432,0,0,1-1.017-.422,1.438,1.438,0,0,1,0-2.034l35.274-35.273a1.437,1.437,0,0,1,2.034,0,1.439,1.439,0,0,1,0,2.035l-35.274,35.272A1.432,1.432,0,0,1-660.388,7212.818Z" transform="translate(873.467 -7139.394)" fill="#e3e4ff"/>
        <path id="Path_2618" data-name="Path 2618" d="M-913.829,7205.852a1.435,1.435,0,0,1-1.017-.422,1.438,1.438,0,0,1,0-2.034l35.274-35.273a1.441,1.441,0,0,1,.735-.393l176.366-35.273a1.441,1.441,0,0,1,1.3.394l70.547,70.546a1.438,1.438,0,0,1,0,2.034,1.438,1.438,0,0,1-2.034,0l-70-70-175.183,35.037-34.966,34.964A1.435,1.435,0,0,1-913.829,7205.852Z" transform="translate(915.268 -7132.427)" fill="#e3e4ff"/>
        <path id="Path_2619" data-name="Path 2619" d="M-787.108,7212.818a1.432,1.432,0,0,1-1.017-.422,1.436,1.436,0,0,1,0-2.034l35.273-35.273a1.438,1.438,0,0,1,2.035,0,1.439,1.439,0,0,1,0,2.035l-35.274,35.272A1.434,1.434,0,0,1-787.108,7212.818Z" transform="translate(894.368 -7139.394)" fill="#e3e4ff"/>
        <path id="Path_2620" data-name="Path 2620" d="M-794.075,7212.818h-35.274a1.439,1.439,0,0,1-1.439-1.439v-35.273a1.439,1.439,0,0,1,1.439-1.438h35.274a1.439,1.439,0,0,1,1.439,1.438v35.273A1.439,1.439,0,0,1-794.075,7212.818Zm-33.835-2.878h32.4v-32.4h-32.4Z" transform="translate(901.334 -7139.394)" fill="#e3e4ff"/>
        <path id="Path_2621" data-name="Path 2621" d="M-836.316,7212.818h-35.272a1.439,1.439,0,0,1-1.439-1.439v-35.273a1.439,1.439,0,0,1,1.439-1.438h35.272a1.439,1.439,0,0,1,1.439,1.438v35.273A1.439,1.439,0,0,1-836.316,7212.818Zm-33.834-2.878h32.395v-32.4h-32.395Z" transform="translate(908.301 -7139.394)" fill="#e3e4ff"/>
        <path id="Path_2622" data-name="Path 2622" d="M-829.349,7212.818a1.432,1.432,0,0,1-1.017-.422,1.438,1.438,0,0,1,0-2.034l35.274-35.273a1.437,1.437,0,0,1,2.034,0,1.439,1.439,0,0,1,0,2.035l-35.274,35.272A1.432,1.432,0,0,1-829.349,7212.818Z" transform="translate(901.334 -7139.394)" fill="#e3e4ff"/>
        <path id="Path_2623" data-name="Path 2623" d="M-871.588,7212.818a1.432,1.432,0,0,1-1.017-.422,1.438,1.438,0,0,1,0-2.034l35.272-35.273a1.437,1.437,0,0,1,2.034,0,1.439,1.439,0,0,1,0,2.035l-35.272,35.272A1.432,1.432,0,0,1-871.588,7212.818Z" transform="translate(908.301 -7139.394)" fill="#e3e4ff"/>
        <path id="Path_2624" data-name="Path 2624" d="M-878.555,7212.818h-35.274a1.439,1.439,0,0,1-1.438-1.439,1.439,1.439,0,0,1,1.438-1.438h33.835v-33.835a1.439,1.439,0,0,1,1.439-1.438,1.439,1.439,0,0,1,1.439,1.438v35.273A1.439,1.439,0,0,1-878.555,7212.818Z" transform="translate(915.268 -7139.394)" fill="#e3e4ff"/>
        <path id="Path_2625" data-name="Path 2625" d="M-667.355,7353.931a1.432,1.432,0,0,1-1.017-.422l-35.274-35.273a1.439,1.439,0,0,1,0-2.035,1.438,1.438,0,0,1,2.035,0l35.273,35.274a1.438,1.438,0,0,1,0,2.034A1.432,1.432,0,0,1-667.355,7353.931Z" transform="translate(880.434 -7162.667)" fill="#e3e4ff"/>
        <path id="Path_2626" data-name="Path 2626" d="M-667.355,7311.69h-35.274a1.439,1.439,0,0,1-1.439-1.439v-35.272a1.439,1.439,0,0,1,1.439-1.439h35.274a1.439,1.439,0,0,1,1.439,1.439v35.272A1.439,1.439,0,0,1-667.355,7311.69Zm-33.835-2.877h32.4v-32.4h-32.4Z" transform="translate(880.434 -7155.701)" fill="#e3e4ff"/>
        <path id="Path_2627" data-name="Path 2627" d="M-667.355,7269.451h-35.274a1.439,1.439,0,0,1-1.439-1.438v-35.273a1.439,1.439,0,0,1,1.439-1.439h35.274a1.439,1.439,0,0,1,1.439,1.439v35.273A1.439,1.439,0,0,1-667.355,7269.451Zm-33.835-2.877h32.4v-32.4h-32.4Z" transform="translate(880.434 -7148.734)" fill="#e3e4ff"/>
        <path id="Path_2628" data-name="Path 2628" d="M-667.355,7311.69a1.435,1.435,0,0,1-1.017-.421L-703.646,7276a1.439,1.439,0,0,1,0-2.035,1.439,1.439,0,0,1,2.035,0l35.273,35.273a1.439,1.439,0,0,1,0,2.035A1.435,1.435,0,0,1-667.355,7311.69Z" transform="translate(880.434 -7155.701)" fill="#e3e4ff"/>
        <path id="Path_2629" data-name="Path 2629" d="M-667.355,7269.451a1.436,1.436,0,0,1-1.017-.421l-35.274-35.273a1.438,1.438,0,0,1,0-2.034,1.439,1.439,0,0,1,2.035,0l35.273,35.272a1.439,1.439,0,0,1,0,2.035A1.436,1.436,0,0,1-667.355,7269.451Z" transform="translate(880.434 -7148.734)" fill="#e3e4ff"/>
        <g id="Group_5410-2" data-name="Group 5410" transform="translate(0 70.547)">
          <path id="Path_2630" data-name="Path 2630" d="M-631.358,7218.63H-913.545l35.273,12.019h246.913Z" transform="translate(914.983 -7217.191)" fill="#e3e4ff"/>
          <path id="Path_2631" data-name="Path 2631" d="M-631.642,7231.8H-878.555a1.44,1.44,0,0,1-.464-.077l-35.275-12.019a1.439,1.439,0,0,1-.954-1.6,1.437,1.437,0,0,1,1.419-1.2h282.187a1.439,1.439,0,0,1,1.439,1.438v12.019A1.439,1.439,0,0,1-631.642,7231.8Zm-246.674-2.878h245.235v-9.141H-905.145Z" transform="translate(915.267 -7216.907)" fill="#e3e4ff"/>
        </g>
        <rect id="Rectangle_1732" data-name="Rectangle 1732" width="12.15" height="55.501" transform="translate(139.542 77.995)" fill="#e3e4ff" opacity="0.04"/>
        <rect id="Rectangle_1733" data-name="Rectangle 1733" width="51.426" height="24.981" transform="translate(233.119 391.172) rotate(180)" fill="#e3e4ff"/>
        <rect id="Rectangle_1734" data-name="Rectangle 1734" width="23.926" height="24.981" transform="translate(157.766 366.191)" fill="#e3e4ff"/>
        <path id="Path_2632" data-name="Path 2632" d="M-618.147,7281.522a1.438,1.438,0,0,1-1.439-1.438v-54.542a1.438,1.438,0,0,1,1.439-1.438,1.438,1.438,0,0,1,1.439,1.438v54.542A1.438,1.438,0,0,1-618.147,7281.522Z" transform="translate(866.5 -7147.547)" fill="#e3e4ff"/>
        <path id="Path_2633" data-name="Path 2633" d="M-618.8,7298.912a4.753,4.753,0,0,1-4.748-4.747,4.754,4.754,0,0,1,4.748-4.748,4.753,4.753,0,0,1,4.747,4.748A4.753,4.753,0,0,1-618.8,7298.912Zm0-6.618a1.873,1.873,0,0,0-1.871,1.871,1.872,1.872,0,0,0,1.871,1.869,1.871,1.871,0,0,0,1.87-1.869A1.873,1.873,0,0,0-618.8,7292.294Z" transform="translate(867.154 -7158.319)" fill="#e3e4ff"/>
        <path id="Path_2634" data-name="Path 2634" d="M-873.311,7338.82a1.33,1.33,0,0,1-1.439-1.184V7231.118a1.329,1.329,0,0,1,1.439-1.182,1.329,1.329,0,0,1,1.439,1.182v106.518A1.33,1.33,0,0,1-873.311,7338.82Z" transform="translate(908.585 -7148.509)" fill="#e3e4ff"/>
      </g>
    </g>
    <path id="Path_2635" data-name="Path 2635" d="M-845.667,7389.958h-4.86a30.189,30.189,0,0,0-4.3-10.4l3.434-3.434a2.049,2.049,0,0,0,0-2.9l-5.909-5.909a2.052,2.052,0,0,0-2.9,0l-3.415,3.416a30.153,30.153,0,0,0-10.417-4.341v-4.8a2.05,2.05,0,0,0-2.05-2.05h-8.356a2.05,2.05,0,0,0-2.05,2.05v4.8a30.134,30.134,0,0,0-10.42,4.341l-3.412-3.413a2.052,2.052,0,0,0-2.9,0l-5.909,5.909a2.051,2.051,0,0,0,0,2.9l3.432,3.432a30.181,30.181,0,0,0-4.3,10.4h-4.86a2.051,2.051,0,0,0-2.05,2.05v8.355a2.05,2.05,0,0,0,2.05,2.05h4.9a30.209,30.209,0,0,0,4.319,10.347l-3.486,3.485a2.051,2.051,0,0,0,0,2.9l5.909,5.909a2.052,2.052,0,0,0,2.9,0l3.5-3.5a30.147,30.147,0,0,0,10.331,4.288v4.942a2.05,2.05,0,0,0,2.05,2.05h8.356a2.05,2.05,0,0,0,2.05-2.05v-4.945a30.16,30.16,0,0,0,10.329-4.289l3.5,3.5a2.052,2.052,0,0,0,2.9,0l5.909-5.909a2.05,2.05,0,0,0,0-2.9l-3.488-3.488a30.169,30.169,0,0,0,4.321-10.344h4.9a2.05,2.05,0,0,0,2.05-2.05v-8.355A2.05,2.05,0,0,0-845.667,7389.958Zm-45.847,17.4a15.908,15.908,0,0,1,0-22.5,15.927,15.927,0,0,1,22.5,0,15.908,15.908,0,0,1,0,22.5A15.908,15.908,0,0,1-891.514,7407.358Z" transform="translate(-41.791 -37.458)" fill="#3564ff" stroke="#091135" stroke-miterlimit="10" stroke-width="1"/>
    <path id="Path_2636" data-name="Path 2636" d="M-788.568,7298.069h-2.882A17.878,17.878,0,0,0-794,7291.9l2.036-2.035a1.214,1.214,0,0,0,0-1.719l-3.5-3.5a1.213,1.213,0,0,0-1.719,0l-2.025,2.024a17.887,17.887,0,0,0-6.176-2.574v-2.848a1.214,1.214,0,0,0-1.215-1.215h-4.954a1.214,1.214,0,0,0-1.215,1.215v2.846a17.888,17.888,0,0,0-6.178,2.574l-2.023-2.022a1.213,1.213,0,0,0-1.719,0l-3.5,3.5a1.214,1.214,0,0,0,0,1.719l2.034,2.034a17.889,17.889,0,0,0-2.55,6.166h-2.881a1.216,1.216,0,0,0-1.216,1.216v4.954a1.215,1.215,0,0,0,1.216,1.215h2.9a17.9,17.9,0,0,0,2.56,6.135l-2.066,2.066a1.214,1.214,0,0,0,0,1.719l3.5,3.5a1.213,1.213,0,0,0,1.719,0l2.076-2.075a17.855,17.855,0,0,0,6.125,2.542v2.931a1.216,1.216,0,0,0,1.215,1.216h4.954a1.216,1.216,0,0,0,1.215-1.216v-2.932a17.9,17.9,0,0,0,6.124-2.542l2.078,2.076a1.213,1.213,0,0,0,1.719,0l3.5-3.5a1.214,1.214,0,0,0,0-1.719l-2.068-2.067a17.886,17.886,0,0,0,2.561-6.134h2.9a1.214,1.214,0,0,0,1.215-1.215v-4.954A1.215,1.215,0,0,0-788.568,7298.069Zm-27.182,10.316a9.43,9.43,0,0,1,0-13.339,9.444,9.444,0,0,1,13.339,0,9.43,9.43,0,0,1,0,13.339A9.431,9.431,0,0,1-815.749,7308.386Z" transform="translate(-55.993 -24.345)" fill="none" stroke="#091135" stroke-linecap="round" stroke-linejoin="round" stroke-width="1.8"/>
    <path id="Path_2637" data-name="Path 2637" d="M-954.666,7286.69l-2.384-5.542a37.448,37.448,0,0,0,9.744-10.009l5.6,2.23a2.545,2.545,0,0,0,3.306-1.422l3.839-9.638a2.544,2.544,0,0,0-1.423-3.305l-5.57-2.219a37.473,37.473,0,0,0-.16-14.008l5.477-2.356a2.545,2.545,0,0,0,1.331-3.344l-4.1-9.528a2.545,2.545,0,0,0-3.343-1.332l-5.474,2.355a37.436,37.436,0,0,0-10.063-9.751l2.217-5.565a2.545,2.545,0,0,0-1.423-3.306l-9.637-3.839a2.545,2.545,0,0,0-3.306,1.423l-2.229,5.6a37.465,37.465,0,0,0-13.97.2l-2.385-5.541a2.544,2.544,0,0,0-3.343-1.332l-9.529,4.1a2.545,2.545,0,0,0-1.332,3.343l2.4,5.583a37.452,37.452,0,0,0-9.678,10l-5.685-2.265a2.544,2.544,0,0,0-3.305,1.422l-3.839,9.638a2.546,2.546,0,0,0,1.422,3.306l5.71,2.274a37.417,37.417,0,0,0,.18,13.885l-5.636,2.424a2.546,2.546,0,0,0-1.332,3.344l4.1,9.529a2.546,2.546,0,0,0,3.344,1.333l5.639-2.427a37.429,37.429,0,0,0,9.957,9.673l-2.276,5.715a2.544,2.544,0,0,0,1.422,3.305l9.638,3.838a2.544,2.544,0,0,0,3.305-1.422l2.266-5.688a37.472,37.472,0,0,0,13.916-.148l2.4,5.583a2.545,2.545,0,0,0,3.344,1.332l9.528-4.1A2.545,2.545,0,0,0-954.666,7286.69ZM-997,7242.951a19.745,19.745,0,0,1,25.654-11.04,19.771,19.771,0,0,1,11.039,25.655,19.745,19.745,0,0,1-25.654,11.039A19.745,19.745,0,0,1-997,7242.951Z" transform="translate(-24.276 -12.123)" fill="#fff" stroke="#091135" stroke-linecap="round" stroke-linejoin="round" stroke-width="1.8"/>
    <g id="Group_5422" data-name="Group 5422" transform="translate(-1124.092 7288.926)">
      <g id="Group_5415" data-name="Group 5415">
        <g id="Group_5414" data-name="Group 5414" clip-path="url(#clip-path)">
          <path id="Path_2638" data-name="Path 2638" d="M-762.634,7383.079l15.276,23.831-25.508.1-1.56-20.322,11.793-3.606Z" transform="translate(1058.8 -7330.266)" fill="#fff" stroke="#091135" stroke-linecap="round" stroke-linejoin="round" stroke-width="1.8" fill-rule="evenodd"/>
          <path id="Path_2639" data-name="Path 2639" d="M-782.079,7366.75l-7.374,4.374,2.7,4.01,4.67-8.384Z" transform="translate(1061.278 -7327.573)" fill="#fff" stroke="#091135" stroke-linecap="round" stroke-linejoin="round" stroke-width="1.8"/>
          <path id="Path_2640" data-name="Path 2640" d="M-761.534,7360.886c-4.144-4.5-12.948-3.158-19.643,3s-8.766,14.82-4.623,19.326,12.948,3.159,19.644-3,8.769-14.822,4.622-19.327Z" transform="translate(1061.028 -7326.167)" fill="#fff" stroke="#091135" stroke-linecap="round" stroke-linejoin="round" stroke-width="1.8" fill-rule="evenodd"/>
          <path id="Path_2641" data-name="Path 2641" d="M-779.511,7369.642c-.924.864-1.35,1.914-.951,2.342s1.474.065,2.4-.8,1.35-1.915.951-2.342-1.476-.066-2.4.8Z" transform="translate(1059.82 -7327.888)" fill="#091135" fill-rule="evenodd"/>
          <path id="Path_2642" data-name="Path 2642" d="M-743.208,7379.345c3.66-4.293,3.954-10.8.656-14.521s-8.941-3.251-12.6,1.042-3.954,10.8-.661,14.519,8.947,3.254,12.607-1.039Z" transform="translate(1056.108 -7326.841)" fill="#091135" fill-rule="evenodd"/>
          <path id="Path_2643" data-name="Path 2643" d="M-754.227,7357.9a9.8,9.8,0,0,0-13.574-2.725,9.792,9.792,0,0,0-2.473,13.622,9.79,9.79,0,0,0,13.57,2.725,9.8,9.8,0,0,0,2.477-13.623Z" transform="translate(1058.401 -7325.392)" fill="#091135" fill-rule="evenodd"/>
          <path id="Path_2644" data-name="Path 2644" d="M-758.264,7369.165c-3.958-.91-8.063,2.238-9.159,7.019s1.233,9.4,5.191,10.31,8.063-2.239,9.158-7.023-1.229-9.4-5.19-10.3Z" transform="translate(1057.69 -7327.946)" fill="#091135" fill-rule="evenodd"/>
          <path id="Path_2645" data-name="Path 2645" d="M-761.283,7379.121c-1.812-1.97-5.246-1.756-7.668.469s-2.917,5.634-1.106,7.6,5.246,1.757,7.668-.468,2.917-5.634,1.106-7.6Z" transform="translate(1058.259 -7329.391)" fill="#fff" stroke="#091135" stroke-linecap="round" stroke-linejoin="round" stroke-width="1.8" fill-rule="evenodd"/>
          <path id="Path_2646" data-name="Path 2646" d="M-738.729,7505.46s4.885,29.942-21.348,96.928-24.369,126.046-24.369,126.046l-68.077-4.081s6.083-117.794,40.678-188.441c18.833-38.456,22.233-52.047,22.233-52.047l50.883,21.6Z" transform="translate(1071.681 -7346.889)" fill="#fff" stroke="#000" stroke-linecap="round" stroke-linejoin="round" stroke-width="1.8" fill-rule="evenodd"/>
          <path id="Path_2647" data-name="Path 2647" d="M-721.014,7510.618s-8.749,50.391,1.074,84c17.712,60.614,36.518,134.506,36.518,134.506l-69.2,3.923s-49.423-67.7-45.365-131.309S-769.92,7480.4-769.92,7480.4l48.907,30.218Z" transform="translate(1062.725 -7346.317)" fill="#fff" stroke="#091135" stroke-linecap="round" stroke-linejoin="round" stroke-width="1.8" fill-rule="evenodd"/>
          <path id="Path_2648" data-name="Path 2648" d="M-752.986,7399.446s42.985,36.869,31.313,100.307l-88.427,7.822s22.526-78.549,28.14-97.607l28.974-10.522Z" transform="translate(1064.684 -7332.966)" fill="#fff" stroke="#091135" stroke-linecap="round" stroke-linejoin="round" stroke-width="1.8" fill-rule="evenodd"/>
          <g id="Group_5413" data-name="Group 5413" transform="translate(4.233 8.316)">
            <path id="Path_2649" data-name="Path 2649" d="M-1013.358,7383.079l-15.276,23.831,25.509.1,1.56-20.322-11.793-3.606Z" transform="translate(1096.494 -7338.583)" fill="#fff" stroke="#091135" stroke-linecap="round" stroke-linejoin="round" stroke-width="1.8" fill-rule="evenodd"/>
            <path id="Path_2650" data-name="Path 2650" d="M-990.023,7366.75l7.374,4.374-2.7,4.01-4.67-8.384Z" transform="translate(1090.126 -7335.89)" fill="#fff" stroke="#091135" stroke-linecap="round" stroke-linejoin="round" stroke-width="1.8"/>
            <path id="Path_2651" data-name="Path 2651" d="M-1014.747,7360.886c4.144-4.5,12.947-3.158,19.643,3s8.766,14.82,4.622,19.326-12.947,3.159-19.643-3-8.77-14.822-4.622-19.327Z" transform="translate(1094.556 -7334.483)" fill="#fff" stroke="#091135" stroke-linecap="round" stroke-linejoin="round" stroke-width="1.8" fill-rule="evenodd"/>
            <path id="Path_2652" data-name="Path 2652" d="M-991.854,7369.642c.924.864,1.35,1.914.95,2.342s-1.474.065-2.4-.8-1.35-1.915-.95-2.342,1.475-.066,2.4.8Z" transform="translate(1090.848 -7336.205)" fill="#091135" fill-rule="evenodd"/>
            <path id="Path_2653" data-name="Path 2653" d="M-1028.351,7369.024c2.435-4.6,7.409-6.758,11.1-4.805s4.7,7.275,2.27,11.879-7.41,6.759-11.1,4.809-4.708-7.278-2.273-11.883Z" transform="translate(1096.666 -7335.353)" fill="#091135" fill-rule="evenodd"/>
            <path id="Path_2654" data-name="Path 2654" d="M-1017.721,7354.683a9.8,9.8,0,0,1,13.574-2.724,9.792,9.792,0,0,1,2.473,13.622,9.791,9.791,0,0,1-13.571,2.724,9.8,9.8,0,0,1-2.476-13.623Z" transform="translate(1094.98 -7333.178)" fill="#091135" fill-rule="evenodd"/>
            <path id="Path_2655" data-name="Path 2655" d="M-1066.753,7340.039a25.569,25.569,0,0,1,33.975-6.381,22.027,22.027,0,0,1,6.19,31.908,25.557,25.557,0,0,1-33.967,6.382,22.036,22.036,0,0,1-6.2-31.908Z" transform="translate(1103.496 -7329.794)" fill="#091135" fill-rule="evenodd"/>
            <path id="Path_2656" data-name="Path 2656" d="M-1024.1,7358.945c1.336-2.394,5.631-2.545,9.589-.337s6.079,5.945,4.742,8.338-5.632,2.547-9.585.339-6.083-5.945-4.747-8.34Z" transform="translate(1095.812 -7334.289)" fill="#091135" fill-rule="evenodd"/>
            <path id="Path_2657" data-name="Path 2657" d="M-1015.322,7369.165c3.957-.91,8.063,2.238,9.159,7.019s-1.233,9.4-5.191,10.31-8.063-2.239-9.159-7.023,1.23-9.4,5.191-10.3Z" transform="translate(1095.199 -7336.262)" fill="#091135" fill-rule="evenodd"/>
            <path id="Path_2658" data-name="Path 2658" d="M-1011.526,7379.121c1.811-1.97,5.245-1.756,7.667.469s2.918,5.634,1.106,7.6-5.245,1.757-7.667-.468-2.918-5.634-1.106-7.6Z" transform="translate(1093.852 -7337.708)" fill="#fff" stroke="#091135" stroke-linecap="round" stroke-linejoin="round" stroke-width="1.8" fill-rule="evenodd"/>
            <path id="Path_2659" data-name="Path 2659" d="M-1054.463,7505.46s-4.884,29.942,21.349,96.928,24.368,126.046,24.368,126.046l68.078-4.081s-6.083-117.794-40.678-188.441c-18.833-38.456-22.234-52.047-22.234-52.047l-50.883,21.6Z" transform="translate(1100.813 -7355.206)" fill="#fff" stroke="#000" stroke-linecap="round" stroke-linejoin="round" stroke-width="1.8" fill-rule="evenodd"/>
            <path id="Path_2660" data-name="Path 2660" d="M-1072.306,7510.618s8.749,50.391-1.075,84c-17.711,60.614-36.517,134.506-36.517,134.506l69.2,3.923s49.423-67.7,45.365-131.309S-1023.4,7480.4-1023.4,7480.4l-48.907,30.218Z" transform="translate(1109.897 -7354.634)" fill="#fff" stroke="#091135" stroke-linecap="round" stroke-linejoin="round" stroke-width="1.8" fill-rule="evenodd"/>
            <path id="Path_2661" data-name="Path 2661" d="M-1035.521,7399.446s-42.986,36.869-31.313,100.307l88.428,7.822s-22.526-78.549-28.141-97.607l-28.974-10.522Z" transform="translate(1103.126 -7341.282)" fill="#fff" stroke="#091135" stroke-linecap="round" stroke-linejoin="round" stroke-width="1.8" fill-rule="evenodd"/>
          </g>
        </g>
      </g>
      <g id="Group_5417" data-name="Group 5417">
        <g id="Group_5416" data-name="Group 5416" clip-path="url(#clip-path)">
          <path id="Path_2663" data-name="Path 2663" d="M-972.211,7430.41l-2.18-1.226-20.222,47.97,2.18,1.229,20.222-47.973Z" transform="translate(1095.116 -7337.871)" fill="#fff" stroke="#091135" stroke-linecap="round" stroke-linejoin="round" stroke-width="1.8"/>
          <path id="Path_2664" data-name="Path 2664" d="M-817.8,7428.607H-969.981v113.8H-817.8v-113.8Z" transform="translate(1091.053 -7337.775)" fill="#fff" stroke="#091135" stroke-linecap="round" stroke-linejoin="round" stroke-width="1.8" fill-rule="evenodd"/>
          <path id="Path_2665" data-name="Path 2665" d="M-817.8,7428.607H-969.981l7.44,52.11,138.36,1.064,6.383-53.174Z" transform="translate(1091.053 -7337.775)" fill="#3664ff" fill-rule="evenodd" opacity="0.15"/>
        </g>
      </g>
      <g id="Group_5419" data-name="Group 5419" transform="translate(121.072 90.831)">
        <g id="Group_5418" data-name="Group 5418" clip-path="url(#clip-path-3)">
          <path id="Path_2667" data-name="Path 2667" d="M-775.744,7403.347H-1001.5v28.726h225.758v-28.726Z" transform="translate(975.18 -7424.44)" fill="#fff" fill-rule="evenodd"/>
        </g>
      </g>
      <g id="Group_5421" data-name="Group 5421">
        <g id="Group_5420" data-name="Group 5420" clip-path="url(#clip-path)">
          <path id="Path_2670" data-name="Path 2670" d="M-817.8,7428.607H-969.981l7.44,52.11,138.36,1.064,6.383-53.174Z" transform="translate(1091.053 -7337.775)" fill="none" stroke="#091135" stroke-linecap="round" stroke-linejoin="round" stroke-width="1.8"/>
        </g>
      </g>
      <line id="Line_187" data-name="Line 187" x2="393.973" transform="translate(11.163 233.797)" fill="#fff" stroke="#091135" stroke-linecap="round" stroke-linejoin="round" stroke-width="1.8"/>
      <path id="Path_2672" data-name="Path 2672" d="M-1000.4,7390.94l-6.041-6.041-6.045,6.041,6.045,6.045,6.041-6.045Z" transform="translate(1098.063 -7330.566)" fill="#3564ff" fill-rule="evenodd"/>
    </g>
    <path id="Path_2673" data-name="Path 2673" d="M-781.226,7422.368c11.959-10.738,31.668,1.43,28.909,30.979s-15.71,54.414-29.47,66.194c-11.841,10.133-34.416,25.133-61.223,28.5-1.819.229-10.777,6.59-21.459,6.111-6.926-.314-17.941-5.566-19-12.5-.479-3.127,16.361-.833,27.521-9.323,11.566-8.8,39.951-38.122,43.935-47.1,3.052-6.882,10.3-24.507,14.477-37.42a62.828,62.828,0,0,1,16.309-25.447Z" transform="translate(-47.306 -47.185)" fill="#fff" stroke="#091135" stroke-linecap="round" stroke-linejoin="round" stroke-width="1.8" fill-rule="evenodd"/>
    <path id="Path_2674" data-name="Path 2674" d="M-741.785,7441.489c-3.681-29.449-22.862-30.6-36.434-21.992-11.269,7.15-18.217,34.074-18.217,34.074s-7.278,34.8-41.522,61.785l-11.835,11.362,18.463,22.725s72.139-15.5,86.931-75.157A86.669,86.669,0,0,0-741.785,7441.489Z" transform="translate(-52.861 -46.577)" fill="#fff" stroke="#091135" stroke-linecap="round" stroke-linejoin="round" stroke-width="1.8" fill-rule="evenodd"/>
    <path id="Path_2675" data-name="Path 2675" d="M-769.563,7361.137s-9.119-16.569,15.44-24.073c0,0-5.975,5.255-2.781,10.817,1.625,2.831,7.806,5.653,7.927,10.993" transform="translate(-65.821 -33.751)" fill="#091135" fill-rule="evenodd"/>
    <path id="Path_2676" data-name="Path 2676" d="M-1015.166,7540.736l-51.818-3.445s-5.918,27.956-3.551,52.207h75.144s-7-38.56-9-40.827Z" transform="translate(-16.362 -66.775)" fill="#fff" stroke="#091135" stroke-linecap="round" stroke-linejoin="round" stroke-width="1.8" fill-rule="evenodd"/>
    <g id="Group_5423" data-name="Group 5423" transform="translate(-1068.248 7368.25)">
      <path id="Path_2677" data-name="Path 2677" d="M-1012.854,7423.927c-11.958-10.739-31.667,1.43-28.908,30.979s15.709,54.414,29.47,66.194c11.842,10.133,34.417,25.133,61.224,28.5,1.819.228,10.777,6.589,21.459,6.111,6.926-.314,17.941-5.567,19-12.5.479-3.127-16.361-.833-27.521-9.324-11.566-8.8-39.951-38.123-43.936-47.1-3.051-6.882-10.295-24.506-14.477-37.419a62.8,62.8,0,0,0-16.309-25.447Z" transform="translate(1047.091 -7415.693)" fill="#fff" stroke="#091135" stroke-linecap="round" stroke-linejoin="round" stroke-width="1.8" fill-rule="evenodd"/>
      <path id="Path_2678" data-name="Path 2678" d="M-1011.306,7419.5c-13.571-8.61-32.752-7.457-36.434,21.993-2.18,17.441,6.5,36.152,6.5,36.152l48.156-24.069s-6.948-26.925-18.218-34.076Z" transform="translate(1048.092 -7414.827)" fill="#fff" stroke="#091135" stroke-linecap="round" stroke-linejoin="round" stroke-width="1.8" fill-rule="evenodd"/>
    </g>
    <g id="Group_5426" data-name="Group 5426" transform="translate(-1170.298 7408.502)">
      <g id="Group_5425" data-name="Group 5425">
        <g id="Group_5424" data-name="Group 5424">
          <path id="Path_2679" data-name="Path 2679" d="M-1076.049,7564.092H-1158.9l.65-1.758,6.112-16.654,6.685-18.3,7.066-19.253,6.685-18.3,8.289-22.651a6.324,6.324,0,0,1,11.88,0l8.289,22.651,6.685,18.3,7.1,19.367,6.685,18.259,6.073,16.578Z" transform="translate(1168.418 -7463.029)" fill="#fff" stroke="#091135" stroke-linecap="round" stroke-linejoin="round" stroke-width="1.8"/>
          <rect id="Rectangle_1735" data-name="Rectangle 1735" width="101.889" height="14.901" rx="1.538" transform="translate(0 99.319)" fill="#fff" stroke="#091135" stroke-linecap="round" stroke-linejoin="round" stroke-width="1.8"/>
        </g>
      </g>
      <path id="Path_2680" data-name="Path 2680" d="M-1093.146,7513.426h-40.238l6.685-18.3h26.869Z" transform="translate(1164.21 -7468.324)" fill="#3564ff"/>
      <path id="Path_2681" data-name="Path 2681" d="M-1082.06,7558.467l-67.778-.077,6.644-18.3,54.436.114Z" transform="translate(1166.923 -7475.74)" fill="#3564ff"/>
    </g>
  </g>
</svg>
