<svg id="图层_1" data-name="图层 1" xmlns="http://www.w3.org/2000/svg" viewBox="0 0 38.49 37.28"><defs><style>.cls-1{fill:#091135;}.cls-2{fill:#fff;}</style></defs><g id="Group_3222" data-name="Group 3222"><rect id="Rectangle_1254-2-2" data-name="Rectangle 1254-2-2" class="cls-1" x="1.42" y="1.37" width="35.65" height="34.53" rx="9.1"/><path id="Path_1763-2" data-name="Path 1763-2" class="cls-2" d="M30.59,25.23a1,1,0,0,1-1,1H17.18a1,1,0,0,1-1-1A6.19,6.19,0,0,1,22.34,19H24.4a6.19,6.19,0,0,1,6.19,6.19ZM23.37,9.76a4.13,4.13,0,1,0,4.13,4.12h0A4.12,4.12,0,0,0,23.37,9.76Zm-9.28,0a4.13,4.13,0,1,0,4.12,4.12h0a4.12,4.12,0,0,0-4.12-4.12Zm0,15.47a8.18,8.18,0,0,1,2.42-5.83,5.54,5.54,0,0,0-2-.36h-.91A5.74,5.74,0,0,0,7.9,24.78v.45a1,1,0,0,0,1,1h5.34a3,3,0,0,1-.18-1Z"/></g></svg>