<svg xmlns="http://www.w3.org/2000/svg" width="49.27" height="30.198" viewBox="0 0 49.27 30.198"><g transform="translate(-728.955 -699.178)"><path d="M739.042,705.078a20.885,20.885,0,0,1,29.1,0l.967.947a.991.991,0,0,1,0,1.424l-3.308,3.239a.521.521,0,0,1-.727,0l-1.331-1.3a14.57,14.57,0,0,0-20.3,0l-1.425,1.4a.522.522,0,0,1-.728,0l-3.308-3.239a.992.992,0,0,1,0-1.424Zm35.937,6.7,2.945,2.883a.993.993,0,0,1,0,1.424l-13.275,13a1.043,1.043,0,0,1-1.455,0l-9.422-9.224a.26.26,0,0,0-.364,0l-9.421,9.224a1.043,1.043,0,0,1-1.455,0l-13.276-13a.994.994,0,0,1,0-1.425l2.944-2.882a1.043,1.043,0,0,1,1.455,0L743.077,721a.262.262,0,0,0,.364,0l9.421-9.225a1.043,1.043,0,0,1,1.455,0L763.739,721a.262.262,0,0,0,.364,0l9.422-9.225A1.044,1.044,0,0,1,774.979,711.776Z" fill="#3a99fb"/></g></svg>