<svg xmlns="http://www.w3.org/2000/svg" xmlns:xlink="http://www.w3.org/1999/xlink" width="119.957" height="120.864" viewBox="0 0 119.957 120.864"><defs><filter id="a" x="0" y="0" width="119.957" height="120.864" filterUnits="userSpaceOnUse"><feOffset dx="2" dy="2" input="SourceAlpha"/><feGaussianBlur stdDeviation="2" result="b"/><feFlood flood-color="#091135" flood-opacity="0.22"/><feComposite operator="in" in2="b"/><feComposite in="SourceGraphic"/></filter></defs><g transform="translate(-444.771 -2563.733)"><g transform="translate(448.771 2567.733)"><g transform="matrix(1, 0, 0, 1, -4, -4)" filter="url(#a)"><rect width="107.957" height="108.864" rx="28.652" transform="translate(4 4)" fill="#e1deff"/></g></g><g transform="translate(480.363 2599.22)"><path d="M523.486,2615.382v23.828c0,1.1-.243,1.342-1.355,1.342H481.714c-1.108,0-1.349-.24-1.349-1.346v-31.5c0-1.039.257-1.3,1.283-1.3h32.883a8.1,8.1,0,0,1,4.123-6.156,7.874,7.874,0,0,1,5.366-.906,8.107,8.107,0,0,1-.534,16.033Zm-20.733,12.306,6.318-6.334c.766-.768,1.111-.771,1.867-.016q5.123,5.121,10.244,10.243c.138.138.286.265.468.433v-16.669a8.153,8.153,0,0,1-7.107-7.093H482.2v21.984c.2-.194.352-.33.494-.471l10.2-10.2c.781-.781,1.113-.779,1.907.016q3.772,3.771,7.54,7.547A4.779,4.779,0,0,1,502.753,2627.688Zm-20.591,11.018H511.2l-17.437-17.44c.03-.015-.01-.006-.034.018q-5.679,5.674-11.351,11.357a.693.693,0,0,0-.2.427C482.157,2634.937,482.162,2636.807,482.162,2638.706Zm22.023-9.771c.029.033.083.107.147.17q4.7,4.7,9.408,9.393a1.076,1.076,0,0,0,.687.247c1.944.019,3.889.01,5.833.01h1.429c0-1.236-.016-2.41.01-3.583a1.162,1.162,0,0,0-.389-.925q-5.445-5.422-10.873-10.863c-.129-.13-.267-.25-.361-.338Zm18.41-15.339a6.288,6.288,0,1,0-6.295-6.321A6.3,6.3,0,0,0,522.595,2613.6Z" transform="translate(-480.365 -2599.22)" fill="#4848ff"/><path d="M502.843,2610a4.492,4.492,0,1,1-4.51,4.485A4.5,4.5,0,0,1,502.843,2610Zm-.011,7.183a2.692,2.692,0,1,0-2.7-2.712A2.7,2.7,0,0,0,502.832,2617.188Z" transform="translate(-480.365 -2599.22)" fill="#4848ff"/><path d="M521.69,2608.207c-.863,0-1.663,0-2.463,0-.712,0-1.12-.33-1.126-.889s.4-.9,1.107-.906c.8-.005,1.6,0,2.482,0,0-.884-.01-1.736,0-2.588.01-.694.535-1.149,1.119-.972a.913.913,0,0,1,.675.979c-.005.838,0,1.676,0,2.582.913,0,1.785-.013,2.657,0a.886.886,0,0,1,.932.909.9.9,0,0,1-.912.876c-.391.019-.785,0-1.177.006q-.674,0-1.346.01a.663.663,0,0,0-.154.064c0,.776,0,1.575,0,2.373,0,.717-.32,1.127-.874,1.142-.575.016-.918-.41-.921-1.151C521.687,2609.862,521.69,2609.077,521.69,2608.207Z" transform="translate(-480.365 -2599.22)" fill="#4848ff"/></g></g></svg>